<svg width="189" height="139" viewBox="0 0 189 139" fill="none" xmlns="http://www.w3.org/2000/svg">
<path d="M25.2193 121.2C24.8193 121.48 24.5193 121.62 24.3193 121.62C23.8793 121.62 23.5793 121.44 23.4193 121.08C22.2193 118.68 21.2193 115.44 20.4193 111.36C20.3793 111.2 20.3193 111.12 20.2393 111.12L19.8793 111.36C18.7993 113.28 17.5393 115.06 16.0993 116.7C14.6993 118.34 13.5593 119.5 12.6793 120.18L11.3593 121.2C10.9593 121.56 10.6393 121.74 10.3993 121.74C9.9593 121.74 9.6593 121.54 9.4993 121.14C8.6193 119.46 7.5993 116.2 6.4393 111.36L5.8993 108.9C5.1393 105.38 4.3593 102.56 3.5593 100.44C2.7993 98.32 2.2193 97.08 1.8193 96.72L1.2193 96.18C0.859297 96.06 0.679297 95.86 0.679297 95.58C0.679297 95.02 1.4993 94.42 3.1393 93.78C4.8193 93.14 6.1193 92.82 7.0393 92.82C7.9593 92.82 8.5593 93.2 8.8393 93.96C9.1593 94.68 9.6393 96.74 10.2793 100.14C11.9593 109.1 13.1793 113.58 13.9393 113.58C14.1793 113.58 14.4393 113.38 14.7193 112.98C15.0393 112.54 15.3993 112.02 15.7993 111.42C16.2393 110.82 16.8193 109.78 17.5393 108.3C18.2593 106.82 18.6193 105.52 18.6193 104.4C18.6193 104.2 18.4793 103.48 18.1993 102.24C17.9193 100.96 17.4993 99.74 16.9393 98.58C16.4193 97.38 15.9993 96.7 15.6793 96.54C14.9593 96.14 14.5993 95.8 14.5993 95.52C14.5993 95.04 15.4193 94.48 17.0593 93.84C18.6993 93.16 20.1793 92.82 21.4993 92.82C22.0993 92.82 22.5193 93.18 22.7593 93.9C23.3593 95.78 24.0793 99.16 24.9193 104.04C25.9993 110.28 26.9993 113.4 27.9193 113.4C28.2393 113.4 28.7193 112.96 29.3593 112.08C29.9993 111.16 30.6193 109.84 31.2193 108.12C31.8593 106.4 32.1793 104.94 32.1793 103.74C32.1793 102.5 32.1193 101.56 31.9993 100.92C31.9193 100.24 31.5793 99.46 30.9793 98.58C30.3793 97.7 29.6993 97.2 28.9393 97.08C28.1793 96.92 27.7993 96.66 27.7993 96.3C27.7993 95.74 28.6193 95.02 30.2593 94.14C31.9393 93.26 33.6593 92.82 35.4193 92.82C37.0993 92.82 37.9393 94.5 37.9393 97.86C37.9393 102.06 36.6993 106.38 34.2193 110.82C31.7393 115.26 28.7393 118.72 25.2193 121.2ZM44.9316 104.76L44.9916 106.26C44.9916 106.5 45.1516 106.62 45.4716 106.62C46.7516 106.5 47.8716 106.18 48.8316 105.66C49.7916 105.1 50.5116 104.48 50.9916 103.8C51.9516 102.32 52.4716 101.04 52.5516 99.96L52.6116 99.24C52.6116 97.08 51.7516 96 50.0316 96C48.7516 96 47.7116 96.56 46.9116 97.68C45.5916 99.44 44.9316 101.8 44.9316 104.76ZM58.0116 112.74C58.0116 114.26 57.6916 115.6 57.0516 116.76C56.4516 117.88 55.7516 118.72 54.9516 119.28C54.1916 119.8 53.2916 120.22 52.2516 120.54C50.9316 120.94 49.6716 121.14 48.4716 121.14C45.1116 121.14 42.6316 119.88 41.0316 117.36C39.4316 114.84 38.6316 111.64 38.6316 107.76C38.6316 103.84 39.6116 100.36 41.5716 97.32C43.5716 94.28 46.5516 92.76 50.5116 92.76C54.1116 92.76 56.5516 94.02 57.8316 96.54C58.3516 97.5 58.6116 98.42 58.6116 99.3C58.6116 100.14 58.5716 100.82 58.4916 101.34C58.4116 101.82 58.1316 102.56 57.6516 103.56C57.1716 104.56 56.5316 105.46 55.7316 106.26C54.9316 107.06 53.6716 107.82 51.9516 108.54C50.2316 109.26 48.2116 109.74 45.8916 109.98C45.5716 109.98 45.4116 110.12 45.4116 110.4C45.4116 110.76 45.5316 111.3 45.7716 112.02C46.0516 112.7 46.3516 113.28 46.6716 113.76C47.5516 114.88 48.8516 115.44 50.5716 115.44C52.2916 115.44 53.7516 114.88 54.9516 113.76C55.5916 113.16 56.1116 112.42 56.5116 111.54C56.6716 111.22 56.8716 111.06 57.1116 111.06C57.3916 111.06 57.6116 111.28 57.7716 111.72C57.9316 112.16 58.0116 112.5 58.0116 112.74ZM72.8555 99.3L71.4755 99.66C70.7555 99.66 70.3955 99 70.3955 97.68C70.3955 96.32 70.8755 95.24 71.8355 94.44C72.8355 93.6 74.0955 93.18 75.6155 93.18C76.4555 93.18 77.3555 93.44 78.3155 93.96C79.2755 94.44 80.0755 95.06 80.7155 95.82C81.3555 96.54 81.9155 97.7 82.3955 99.3C82.9155 100.86 83.1755 102.7 83.1755 104.82C83.1755 109.7 81.8555 113.66 79.2155 116.7C76.6155 119.74 72.8355 121.26 67.8755 121.26C66.4355 121.26 65.0155 121.12 63.6155 120.84L63.0155 120.72C62.4955 120.56 62.1955 120.28 62.1155 119.88C61.9955 119.04 61.9355 117.06 61.9355 113.94L62.2955 94.5C62.2955 91.5 62.2155 89.2 62.0555 87.6L61.9355 86.76C61.8555 85.64 61.6155 84.68 61.2155 83.88C60.8555 83.08 60.4955 82.56 60.1355 82.32L59.6555 82.02C59.3755 81.86 59.2355 81.68 59.2355 81.48C59.2355 80.88 60.2355 80.18 62.2355 79.38C64.2355 78.54 65.6955 78.12 66.6155 78.12C67.5355 78.12 68.0155 78.36 68.0555 78.84C68.3355 81.28 68.4755 84.76 68.4755 89.28L68.1755 103.68C68.1755 109.96 68.3555 114.3 68.7155 116.7C68.7555 117.26 69.3755 117.54 70.5755 117.54C71.8155 117.54 72.8755 117.2 73.7555 116.52C74.6355 115.84 75.2955 114.94 75.7355 113.82C76.5355 111.78 76.9355 109.52 76.9355 107.04C76.9355 105.88 76.7755 104.62 76.4555 103.26C75.8955 100.62 74.6955 99.3 72.8555 99.3ZM91.4663 87.9L90.0263 87.84C88.9463 87.84 88.2463 88.1 87.9263 88.62C87.8463 88.74 87.7463 88.8 87.6263 88.8C87.1063 88.8 86.8463 87.92 86.8463 86.16C86.8463 84.36 87.1063 83.22 87.6263 82.74C88.1863 82.26 89.1263 82.02 90.4463 82.02C91.8063 82.02 92.7263 82.26 93.2063 82.74C93.6863 83.18 93.9263 83.94 93.9263 85.02C93.9263 86.1 93.7463 86.86 93.3863 87.3C93.0263 87.7 92.3863 87.9 91.4663 87.9ZM86.6663 118.2L87.3263 104.22C87.3263 100.9 86.9463 98.64 86.1863 97.44C85.9463 97.04 85.6663 96.74 85.3463 96.54C85.1063 96.46 84.9863 96.3 84.9863 96.06C84.9863 95.34 86.0063 94.64 88.0463 93.96C90.0863 93.28 91.5663 92.94 92.4863 92.94C93.4463 92.94 93.9463 93.18 93.9863 93.66C93.9863 94.46 93.8663 96.74 93.6263 100.5C93.4263 104.22 93.3263 108.14 93.3263 112.26C93.3263 116.38 93.5663 118.94 94.0463 119.94C94.1663 120.14 94.2263 120.34 94.2263 120.54C94.2263 121.06 93.4663 121.32 91.9463 121.32C90.4263 121.32 88.8663 120.92 87.2663 120.12C86.8663 119.92 86.6663 119.28 86.6663 118.2ZM116.124 111.78C116.124 113.5 115.784 115 115.104 116.28C114.464 117.56 113.724 118.5 112.884 119.1C112.044 119.7 111.044 120.18 109.884 120.54C108.364 121.02 106.984 121.26 105.744 121.26C103.144 121.26 100.984 120.76 99.264 119.76C97.544 118.72 96.684 117.08 96.684 114.84C96.684 113.52 97.044 112.44 97.764 111.6C98.884 110.36 100.224 109.74 101.784 109.74C102.264 109.74 102.504 109.96 102.504 110.4C102.504 110.44 102.404 110.76 102.204 111.36C102.044 111.92 101.964 112.64 101.964 113.52C101.964 114.4 102.304 115.18 102.984 115.86C103.704 116.54 104.564 116.88 105.564 116.88C106.564 116.88 107.364 116.72 107.964 116.4C108.564 116.04 108.984 115.6 109.224 115.08C109.584 114.36 109.764 113.68 109.764 113.04C109.764 111.88 109.184 110.88 108.024 110.04C106.864 109.2 105.584 108.54 104.184 108.06C102.784 107.58 101.504 106.78 100.344 105.66C99.184 104.54 98.604 103.14 98.604 101.46C98.604 98.58 99.504 96.42 101.304 94.98C103.144 93.54 105.624 92.82 108.744 92.82C110.104 92.82 111.524 93.02 113.004 93.42C114.524 93.78 115.284 94.42 115.284 95.34C115.284 96.22 115.124 97.04 114.804 97.8C114.524 98.56 114.164 98.94 113.724 98.94C113.484 98.94 113.324 98.86 113.244 98.7C113.164 98.5 113.024 98.28 112.824 98.04C112.624 97.8 112.144 97.5 111.384 97.14C110.624 96.74 109.964 96.54 109.404 96.54C108.884 96.54 108.524 96.56 108.324 96.6C108.164 96.6 107.864 96.66 107.424 96.78C106.984 96.86 106.584 97 106.224 97.2C105.304 97.72 104.844 98.48 104.844 99.48C104.844 100.12 104.984 100.6 105.264 100.92C105.544 101.2 105.764 101.42 105.924 101.58C106.084 101.74 106.364 101.94 106.764 102.18C107.164 102.38 107.444 102.52 107.604 102.6C107.764 102.68 108.124 102.86 108.684 103.14C109.244 103.38 109.604 103.54 109.764 103.62C114.004 105.62 116.124 108.34 116.124 111.78ZM124.389 97.38C123.349 97.42 122.589 97.46 122.109 97.5C121.669 97.5 121.449 97.38 121.449 97.14C121.449 96.9 121.569 96.66 121.809 96.42C124.369 94.06 128.689 92.88 134.769 92.88C136.849 92.88 138.489 93.06 139.689 93.42L140.289 93.6C140.769 93.8 141.009 94.02 141.009 94.26C141.009 94.46 140.869 94.62 140.589 94.74C139.509 95.06 138.469 95.58 137.469 96.3C136.469 96.98 135.969 97.46 135.969 97.74L136.329 98.16C137.609 98.88 138.589 100.02 139.269 101.58C139.989 103.14 140.389 104.52 140.469 105.72L140.589 107.58C140.589 111.54 139.489 114.8 137.289 117.36C135.089 119.92 132.089 121.2 128.289 121.2C126.369 121.2 124.709 120.86 123.309 120.18C121.909 119.5 120.869 118.74 120.189 117.9C119.549 117.02 119.029 116.04 118.629 114.96C118.149 113.48 117.909 111.96 117.909 110.4C117.909 108.8 118.169 107.2 118.689 105.6C119.249 104 119.869 102.82 120.549 102.06C121.269 101.3 122.069 100.68 122.949 100.2C124.069 99.6 124.969 99.3 125.649 99.3C126.329 99.3 126.669 99.44 126.669 99.72L126.309 100.32C125.429 101.36 124.789 102.72 124.389 104.4C124.029 106.08 123.849 107.58 123.849 108.9C123.849 110.18 124.009 111.46 124.329 112.74C124.649 114.02 125.009 114.98 125.409 115.62C125.809 116.22 126.269 116.68 126.789 117C127.549 117.48 128.349 117.72 129.189 117.72C130.029 117.72 130.849 117.4 131.649 116.76C132.449 116.08 133.029 115.2 133.389 114.12C134.109 112.12 134.469 110.06 134.469 107.94C134.469 104.58 133.609 101.98 131.889 100.14C130.209 98.3 127.709 97.38 124.389 97.38ZM155.704 93.06C156.424 93.06 157.064 93.16 157.624 93.36C158.224 93.52 158.544 93.6 158.584 93.6L158.944 93.3L158.704 86.76C158.624 85.64 158.384 84.68 157.984 83.88C157.584 83.08 157.224 82.56 156.904 82.32L156.364 82.02C156.124 81.86 156.004 81.68 156.004 81.48C156.004 80.88 156.924 80.18 158.764 79.38C160.644 78.58 162.104 78.18 163.144 78.18C164.184 78.18 164.744 78.4 164.824 78.84C165.024 80.2 165.124 82.8 165.124 86.64C165.124 90.44 165.024 94.18 164.824 97.86C164.664 101.54 164.584 105.72 164.584 110.4C164.584 115.04 164.884 117.96 165.484 119.16C165.644 119.44 165.724 119.7 165.724 119.94C165.724 120.54 164.864 120.84 163.144 120.84C159.864 120.84 158.224 120.06 158.224 118.5C158.144 117.86 158.104 116.88 158.104 115.56C158.104 114.2 158.224 111.7 158.464 108.06C158.744 104.38 158.884 101.56 158.884 99.6C158.884 97.6 157.884 96.6 155.884 96.6C153.924 96.6 152.424 97.76 151.384 100.08C150.344 102.4 149.824 104.72 149.824 107.04C149.824 111.96 151.064 114.42 153.544 114.42C153.904 114.42 154.244 114.36 154.564 114.24C154.924 114.08 155.144 114 155.224 114C155.544 114 155.784 114.2 155.944 114.6C156.144 115 156.244 115.4 156.244 115.8C156.244 117.16 155.704 118.32 154.624 119.28C153.544 120.2 152.224 120.66 150.664 120.66C148.264 120.66 146.444 119.62 145.204 117.54C144.004 115.42 143.404 112.8 143.404 109.68C143.404 105.72 144.344 102.04 146.224 98.64C147.184 96.96 148.484 95.62 150.124 94.62C151.764 93.58 153.624 93.06 155.704 93.06ZM174.131 104.76L174.191 106.26C174.191 106.5 174.351 106.62 174.671 106.62C175.951 106.5 177.071 106.18 178.031 105.66C178.991 105.1 179.711 104.48 180.191 103.8C181.151 102.32 181.671 101.04 181.751 99.96L181.811 99.24C181.811 97.08 180.951 96 179.231 96C177.951 96 176.911 96.56 176.111 97.68C174.791 99.44 174.131 101.8 174.131 104.76ZM187.211 112.74C187.211 114.26 186.891 115.6 186.251 116.76C185.651 117.88 184.951 118.72 184.151 119.28C183.391 119.8 182.491 120.22 181.451 120.54C180.131 120.94 178.871 121.14 177.671 121.14C174.311 121.14 171.831 119.88 170.231 117.36C168.631 114.84 167.831 111.64 167.831 107.76C167.831 103.84 168.811 100.36 170.771 97.32C172.771 94.28 175.751 92.76 179.711 92.76C183.311 92.76 185.751 94.02 187.031 96.54C187.551 97.5 187.811 98.42 187.811 99.3C187.811 100.14 187.771 100.82 187.691 101.34C187.611 101.82 187.331 102.56 186.851 103.56C186.371 104.56 185.731 105.46 184.931 106.26C184.131 107.06 182.871 107.82 181.151 108.54C179.431 109.26 177.411 109.74 175.091 109.98C174.771 109.98 174.611 110.12 174.611 110.4C174.611 110.76 174.731 111.3 174.971 112.02C175.251 112.7 175.551 113.28 175.871 113.76C176.751 114.88 178.051 115.44 179.771 115.44C181.491 115.44 182.951 114.88 184.151 113.76C184.791 113.16 185.311 112.42 185.711 111.54C185.871 111.22 186.071 111.06 186.311 111.06C186.591 111.06 186.811 111.28 186.971 111.72C187.131 112.16 187.211 112.5 187.211 112.74Z" fill="#015239"/>
<g clip-path="url(#clip0_31_10)">
<path d="M125 30C125 46.645 111.455 60 95 60C78.355 60 65 46.645 65 30C65 13.355 78.355 0 95 0C111.455 0 125 13.355 125 30ZM70.035 30C70.035 43.7425 81.2575 54.9675 95 54.9675C108.745 54.9675 119.97 43.7425 119.97 30C119.97 16.255 108.745 5.0325 95 5.0325C81.2575 5.0325 70.035 16.255 70.035 30ZM97.905 15.2875V36.9675C97.905 37.9275 97.1325 38.705 96.1775 38.7125H93.6475C92.68 38.7125 91.905 37.935 91.905 36.9675V15.0975C91.905 14.13 92.6825 13.355 93.6475 13.355H96.1625C97.13 13.5475 97.905 14.3225 97.905 15.2875ZM88.2275 20.9025V42.7725C88.2325 43.73 87.46 44.515 86.5 44.5175H83.975C83.1975 44.5175 82.4225 43.7425 82.4225 42.775V20.905C82.4225 20.13 83.2 19.355 83.97 19.355H86.485C87.45 19.3525 88.2275 20.13 88.2275 20.9025ZM101.772 42.7725V20.9025C101.772 19.9325 102.55 19.1625 103.515 19.1625H106.03C106.988 19.1575 107.767 19.935 107.772 20.89V42.7725C107.582 43.7425 106.805 44.515 105.84 44.515L103.325 44.515C102.55 44.5175 101.772 43.7425 101.772 42.7725Z" fill="#015239"/>
</g>
<defs>
<clipPath id="clip0_31_10">
<rect width="60" height="60" fill="white" transform="matrix(0 -1 1 0 65 60)"/>
</clipPath>
</defs>
</svg>
