<svg width="208" height="40" viewBox="0 0 208 40" fill="none" xmlns="http://www.w3.org/2000/svg">
<path d="M63.31 20.18C63.31 19.72 63.03 19.47 62.47 19.43H60.34C60.18 19.43 60.1 19.38 60.1 19.28C60.22 18.7 60.43 18.24 60.73 17.9C61.03 17.54 61.28 17.34 61.48 17.3C62.04 17.22 62.96 17.18 64.24 17.18C65.52 17.18 66.32 17.19 66.64 17.21C66.96 17.21 67.16 17.24 67.24 17.3C67.32 17.4 67.36 17.52 67.36 17.66C67.36 17.78 67.32 18.61 67.24 20.15C67.18 21.67 67.15 23.04 67.15 24.26C67.15 25.46 67.19 26.22 67.27 26.54C67.35 26.84 67.39 27.03 67.39 27.11C67.39 27.43 67.11 27.78 66.55 28.16C65.99 28.52 65.14 28.84 64 29.12C62.88 29.4 61.64 29.54 60.28 29.54C58.46 29.54 56.88 28.91 55.54 27.65C54.5 26.65 53.78 25.56 53.38 24.38C53 23.2 52.81 21.54 52.81 19.4C52.81 11.46 55.72 7.49 61.54 7.49C62.52 7.49 63.4 7.6 64.18 7.82C64.96 8.02 65.64 8.43 66.22 9.05C66.82 9.65 67.12 10.43 67.12 11.39C67.12 11.89 67.02 12.4 66.82 12.92C66.46 13.98 65.66 14.51 64.42 14.51C63.74 14.51 63.22 14.34 62.86 14C62.52 13.64 62.35 13.15 62.35 12.53C62.35 12.29 62.48 12.14 62.74 12.08C63.12 11.86 63.31 11.49 63.31 10.97C63.31 10.43 63.11 10.02 62.71 9.74C62.31 9.44 61.89 9.29 61.45 9.29C60.49 9.29 59.68 9.64 59.02 10.34C58.36 11.02 57.88 11.92 57.58 13.04C57.08 15.04 56.83 17.08 56.83 19.16C56.83 22.56 57.66 24.82 59.32 25.94C59.94 26.38 60.59 26.6 61.27 26.6C62.53 26.6 63.2 26.37 63.28 25.91C63.34 25.29 63.37 24.33 63.37 23.03L63.31 20.18ZM71.9533 17.69C71.4333 17.71 71.0533 17.73 70.8133 17.75C70.5933 17.75 70.4833 17.69 70.4833 17.57C70.4833 17.45 70.5433 17.33 70.6633 17.21C71.9433 16.03 74.1033 15.44 77.1433 15.44C78.1833 15.44 79.0033 15.53 79.6033 15.71L79.9033 15.8C80.1433 15.9 80.2633 16.01 80.2633 16.13C80.2633 16.23 80.1933 16.31 80.0533 16.37C79.5133 16.53 78.9933 16.79 78.4933 17.15C77.9933 17.49 77.7433 17.73 77.7433 17.87L77.9233 18.08C78.5633 18.44 79.0533 19.01 79.3933 19.79C79.7533 20.57 79.9533 21.26 79.9933 21.86L80.0533 22.79C80.0533 24.77 79.5033 26.4 78.4033 27.68C77.3033 28.96 75.8033 29.6 73.9033 29.6C72.9433 29.6 72.1133 29.43 71.4133 29.09C70.7133 28.75 70.1933 28.37 69.8533 27.95C69.5333 27.51 69.2733 27.02 69.0733 26.48C68.8333 25.74 68.7133 24.98 68.7133 24.2C68.7133 23.4 68.8433 22.6 69.1033 21.8C69.3833 21 69.6933 20.41 70.0333 20.03C70.3933 19.65 70.7933 19.34 71.2333 19.1C71.7933 18.8 72.2433 18.65 72.5833 18.65C72.9233 18.65 73.0933 18.72 73.0933 18.86L72.9133 19.16C72.4733 19.68 72.1533 20.36 71.9533 21.2C71.7733 22.04 71.6833 22.79 71.6833 23.45C71.6833 24.09 71.7633 24.73 71.9233 25.37C72.0833 26.01 72.2633 26.49 72.4633 26.81C72.6633 27.11 72.8933 27.34 73.1533 27.5C73.5333 27.74 73.9333 27.86 74.3533 27.86C74.7733 27.86 75.1833 27.7 75.5833 27.38C75.9833 27.04 76.2733 26.6 76.4533 26.06C76.8133 25.06 76.9933 24.03 76.9933 22.97C76.9933 21.29 76.5633 19.99 75.7033 19.07C74.8633 18.15 73.6133 17.69 71.9533 17.69ZM84.5509 17.69C84.0309 17.71 83.6509 17.73 83.4109 17.75C83.1909 17.75 83.0809 17.69 83.0809 17.57C83.0809 17.45 83.1409 17.33 83.2609 17.21C84.5409 16.03 86.7009 15.44 89.7409 15.44C90.7809 15.44 91.6009 15.53 92.2009 15.71L92.5009 15.8C92.7409 15.9 92.8609 16.01 92.8609 16.13C92.8609 16.23 92.7909 16.31 92.6509 16.37C92.1109 16.53 91.5909 16.79 91.0909 17.15C90.5909 17.49 90.3409 17.73 90.3409 17.87L90.5209 18.08C91.1609 18.44 91.6509 19.01 91.9909 19.79C92.3509 20.57 92.5509 21.26 92.5909 21.86L92.6509 22.79C92.6509 24.77 92.1009 26.4 91.0009 27.68C89.9009 28.96 88.4009 29.6 86.5009 29.6C85.5409 29.6 84.7109 29.43 84.0109 29.09C83.3109 28.75 82.7909 28.37 82.4509 27.95C82.1309 27.51 81.8709 27.02 81.6709 26.48C81.4309 25.74 81.3109 24.98 81.3109 24.2C81.3109 23.4 81.4409 22.6 81.7009 21.8C81.9809 21 82.2909 20.41 82.6309 20.03C82.9909 19.65 83.3909 19.34 83.8309 19.1C84.3909 18.8 84.8409 18.65 85.1809 18.65C85.5209 18.65 85.6909 18.72 85.6909 18.86L85.5109 19.16C85.0709 19.68 84.7509 20.36 84.5509 21.2C84.3709 22.04 84.2809 22.79 84.2809 23.45C84.2809 24.09 84.3609 24.73 84.5209 25.37C84.6809 26.01 84.8609 26.49 85.0609 26.81C85.2609 27.11 85.4909 27.34 85.7509 27.5C86.1309 27.74 86.5309 27.86 86.9509 27.86C87.3709 27.86 87.7809 27.7 88.1809 27.38C88.5809 27.04 88.8709 26.6 89.0509 26.06C89.4109 25.06 89.5909 24.03 89.5909 22.97C89.5909 21.29 89.1609 19.99 88.3009 19.07C87.4609 18.15 86.2109 17.69 84.5509 17.69ZM96.1886 16.91C96.6286 16.45 97.2086 16.07 97.9286 15.77C98.6486 15.45 99.3386 15.29 99.9986 15.29C100.659 15.29 101.329 15.44 102.009 15.74C102.089 15.74 102.149 15.72 102.189 15.68C102.709 15.16 103.469 14.9 104.469 14.9C104.709 14.9 104.829 15.01 104.829 15.23C104.829 15.25 104.809 15.34 104.769 15.5C104.729 15.66 104.679 15.9 104.619 16.22C104.559 16.52 104.509 16.89 104.469 17.33C104.329 18.47 104.249 19.73 104.229 21.11C104.229 22.49 104.229 23.87 104.229 25.25L104.319 31.55C104.319 33.57 103.799 35.25 102.759 36.59C102.339 37.13 101.699 37.6 100.839 38C99.9986 38.4 99.0086 38.6 97.8686 38.6C97.6086 38.44 97.4786 38.28 97.4786 38.12C97.4786 37.96 97.5886 37.83 97.8086 37.73C99.0686 37.15 99.9686 35.77 100.509 33.59C101.049 31.43 101.319 28.14 101.319 23.72L101.259 19.52L101.169 17.48C101.169 17.3 100.889 17.17 100.329 17.09C99.6086 17.09 98.9986 17.33 98.4986 17.81C98.0186 18.27 97.6886 18.88 97.5086 19.64C97.1886 20.86 97.0286 21.92 97.0286 22.82C97.0286 23.7 97.1686 24.48 97.4486 25.16C97.7486 25.84 98.2586 26.18 98.9786 26.18C99.1786 26.18 99.3586 26.14 99.5186 26.06C99.6986 25.98 99.8186 25.94 99.8786 25.94C100.079 25.94 100.179 26.14 100.179 26.54C100.179 26.94 100.149 27.27 100.089 27.53C100.029 27.77 99.9086 28.04 99.7286 28.34C99.3286 29 98.5486 29.33 97.3886 29.33C96.2286 29.33 95.3986 28.91 94.8986 28.07C94.3786 27.21 94.0786 26.44 93.9986 25.76C93.8786 24.74 93.8186 24.07 93.8186 23.75C93.8186 23.43 93.8186 23.18 93.8186 23C93.8386 22.8 93.8886 22.42 93.9686 21.86C94.0686 21.28 94.1886 20.74 94.3286 20.24C94.4886 19.72 94.7286 19.15 95.0486 18.53C95.3686 17.89 95.7486 17.35 96.1886 16.91ZM110.241 11.84L110.061 22.85C110.061 26.29 110.171 28.35 110.391 29.03C110.451 29.15 110.481 29.27 110.481 29.39C110.481 29.63 110.191 29.75 109.611 29.75C109.031 29.75 108.381 29.6 107.661 29.3C106.961 29.02 106.611 28.65 106.611 28.19C107.011 25.39 107.211 21.65 107.211 16.97L107.091 12.38C107.051 11.82 106.931 11.34 106.731 10.94C106.551 10.54 106.371 10.28 106.191 10.16L105.951 10.01C105.811 9.93 105.741 9.84 105.741 9.74C105.741 9.46 106.171 9.12 107.031 8.72C107.911 8.3 108.761 8.09 109.581 8.09C109.901 8.09 110.081 8.2 110.121 8.42C110.201 8.94 110.241 10.08 110.241 11.84ZM115.135 21.38L115.165 22.13C115.165 22.25 115.245 22.31 115.405 22.31C116.045 22.25 116.605 22.09 117.085 21.83C117.565 21.55 117.925 21.24 118.165 20.9C118.645 20.16 118.905 19.52 118.945 18.98L118.975 18.62C118.975 17.54 118.545 17 117.685 17C117.045 17 116.525 17.28 116.125 17.84C115.465 18.72 115.135 19.9 115.135 21.38ZM121.675 25.37C121.675 26.13 121.515 26.8 121.195 27.38C120.895 27.94 120.545 28.36 120.145 28.64C119.765 28.9 119.315 29.11 118.795 29.27C118.135 29.47 117.505 29.57 116.905 29.57C115.225 29.57 113.985 28.94 113.185 27.68C112.385 26.42 111.985 24.82 111.985 22.88C111.985 20.92 112.475 19.18 113.455 17.66C114.455 16.14 115.945 15.38 117.925 15.38C119.725 15.38 120.945 16.01 121.585 17.27C121.845 17.75 121.975 18.21 121.975 18.65C121.975 19.07 121.955 19.41 121.915 19.67C121.875 19.91 121.735 20.28 121.495 20.78C121.255 21.28 120.935 21.73 120.535 22.13C120.135 22.53 119.505 22.91 118.645 23.27C117.785 23.63 116.775 23.87 115.615 23.99C115.455 23.99 115.375 24.06 115.375 24.2C115.375 24.38 115.435 24.65 115.555 25.01C115.695 25.35 115.845 25.64 116.005 25.88C116.445 26.44 117.095 26.72 117.955 26.72C118.815 26.72 119.545 26.44 120.145 25.88C120.465 25.58 120.725 25.21 120.925 24.77C121.005 24.61 121.105 24.53 121.225 24.53C121.365 24.53 121.475 24.64 121.555 24.86C121.635 25.08 121.675 25.25 121.675 25.37ZM135.53 16.43C135.61 16.43 135.76 16.51 135.98 16.67C136.2 16.83 136.43 16.91 136.67 16.91H136.7C137.38 16.91 137.92 16.64 138.32 16.1C138.72 15.56 138.94 15.02 138.98 14.48L139.07 13.67C139.07 12.91 138.95 12.26 138.71 11.72C138.49 11.16 138.23 10.75 137.93 10.49C137.63 10.21 137.28 10 136.88 9.86C136.38 9.66 135.85 9.56 135.29 9.56C134.75 9.56 134.31 9.62 133.97 9.74C133.63 9.84 133.44 9.94 133.4 10.04L133.37 10.22C133.19 12.92 133.1 15.34 133.1 17.48C133.1 19.6 133.13 21.43 133.19 22.97C133.27 24.51 133.34 25.7 133.4 26.54C133.48 27.36 133.52 27.81 133.52 27.89C133.52 28.39 133.08 28.79 132.2 29.09C131.32 29.39 130.45 29.54 129.59 29.54C129.19 29.54 128.99 29.44 128.99 29.24C128.99 29.18 129.02 29.04 129.08 28.82C129.46 27.94 129.65 23.85 129.65 16.55C129.65 12.25 129.36 9.79 128.78 9.17C128.66 9.05 128.6 8.93 128.6 8.81C128.6 8.67 128.74 8.52 129.02 8.36C129.32 8.2 130.14 8.02 131.48 7.82C132.82 7.6 134.24 7.49 135.74 7.49C138.1 7.49 139.87 8.13 141.05 9.41C142.25 10.69 142.85 12.22 142.85 14C142.85 15.76 142.36 17.29 141.38 18.59C140.42 19.89 139.16 20.54 137.6 20.54C137.1 20.54 136.6 20.45 136.1 20.27C135.1 19.91 134.6 19.16 134.6 18.02C134.6 17.78 134.68 17.46 134.84 17.06C135 16.64 135.23 16.43 135.53 16.43ZM145.606 17.69C145.086 17.71 144.706 17.73 144.466 17.75C144.246 17.75 144.136 17.69 144.136 17.57C144.136 17.45 144.196 17.33 144.316 17.21C145.596 16.03 147.756 15.44 150.796 15.44C151.836 15.44 152.656 15.53 153.256 15.71L153.556 15.8C153.796 15.9 153.916 16.01 153.916 16.13C153.916 16.23 153.846 16.31 153.706 16.37C153.166 16.53 152.646 16.79 152.146 17.15C151.646 17.49 151.396 17.73 151.396 17.87L151.576 18.08C152.216 18.44 152.706 19.01 153.046 19.79C153.406 20.57 153.606 21.26 153.646 21.86L153.706 22.79C153.706 24.77 153.156 26.4 152.056 27.68C150.956 28.96 149.456 29.6 147.556 29.6C146.596 29.6 145.766 29.43 145.066 29.09C144.366 28.75 143.846 28.37 143.506 27.95C143.186 27.51 142.926 27.02 142.726 26.48C142.486 25.74 142.366 24.98 142.366 24.2C142.366 23.4 142.496 22.6 142.756 21.8C143.036 21 143.346 20.41 143.686 20.03C144.046 19.65 144.446 19.34 144.886 19.1C145.446 18.8 145.896 18.65 146.236 18.65C146.576 18.65 146.746 18.72 146.746 18.86L146.566 19.16C146.126 19.68 145.806 20.36 145.606 21.2C145.426 22.04 145.336 22.79 145.336 23.45C145.336 24.09 145.416 24.73 145.576 25.37C145.736 26.01 145.916 26.49 146.116 26.81C146.316 27.11 146.546 27.34 146.806 27.5C147.186 27.74 147.586 27.86 148.006 27.86C148.426 27.86 148.836 27.7 149.236 27.38C149.636 27.04 149.926 26.6 150.106 26.06C150.466 25.06 150.646 24.03 150.646 22.97C150.646 21.29 150.216 19.99 149.356 19.07C148.516 18.15 147.266 17.69 145.606 17.69ZM161.263 15.53C161.623 15.53 161.943 15.58 162.223 15.68C162.523 15.76 162.683 15.8 162.703 15.8L162.883 15.65L162.763 12.38C162.723 11.82 162.603 11.34 162.403 10.94C162.203 10.54 162.023 10.28 161.863 10.16L161.593 10.01C161.473 9.93 161.413 9.84 161.413 9.74C161.413 9.44 161.873 9.09 162.793 8.69C163.733 8.29 164.463 8.09 164.983 8.09C165.503 8.09 165.783 8.2 165.823 8.42C165.923 9.1 165.973 10.4 165.973 12.32C165.973 14.22 165.923 16.09 165.823 17.93C165.743 19.77 165.703 21.86 165.703 24.2C165.703 26.52 165.853 27.98 166.153 28.58C166.233 28.72 166.273 28.85 166.273 28.97C166.273 29.27 165.843 29.42 164.983 29.42C163.343 29.42 162.523 29.03 162.523 28.25C162.483 27.93 162.463 27.44 162.463 26.78C162.463 26.1 162.523 24.85 162.643 23.03C162.783 21.19 162.853 19.78 162.853 18.8C162.853 17.8 162.353 17.3 161.353 17.3C160.373 17.3 159.623 17.88 159.103 19.04C158.583 20.2 158.323 21.36 158.323 22.52C158.323 24.98 158.943 26.21 160.183 26.21C160.363 26.21 160.533 26.18 160.693 26.12C160.873 26.04 160.983 26 161.023 26C161.183 26 161.303 26.1 161.383 26.3C161.483 26.5 161.533 26.7 161.533 26.9C161.533 27.58 161.263 28.16 160.723 28.64C160.183 29.1 159.523 29.33 158.743 29.33C157.543 29.33 156.633 28.81 156.013 27.77C155.413 26.71 155.113 25.4 155.113 23.84C155.113 21.86 155.583 20.02 156.523 18.32C157.003 17.48 157.653 16.81 158.473 16.31C159.293 15.79 160.223 15.53 161.263 15.53ZM177.437 25.55C177.437 26.69 176.977 27.64 176.057 28.4C175.157 29.14 174.077 29.51 172.817 29.51C170.977 29.51 169.627 28.96 168.767 27.86C167.907 26.74 167.477 25.23 167.477 23.33C167.477 21.31 167.927 19.52 168.827 17.96C169.267 17.16 169.897 16.53 170.717 16.07C171.537 15.61 172.497 15.38 173.597 15.38C175.257 15.38 176.427 15.94 177.107 17.06C177.387 17.52 177.527 18.06 177.527 18.68C177.527 19.64 177.127 20.36 176.327 20.84C176.007 21.02 175.707 21.11 175.427 21.11C175.167 21.11 174.947 21.1 174.767 21.08C174.607 21.04 174.387 20.9 174.107 20.66C173.827 20.42 173.687 20.09 173.687 19.67C173.707 19.45 173.877 19.27 174.197 19.13C174.497 18.95 174.647 18.63 174.647 18.17C174.647 17.39 174.167 17 173.207 17C172.967 17 172.677 17.11 172.337 17.33C172.017 17.53 171.747 17.8 171.527 18.14C171.307 18.46 171.097 18.98 170.897 19.7C170.717 20.4 170.627 21.08 170.627 21.74C170.627 22.38 170.647 22.87 170.687 23.21C170.747 23.53 170.857 23.98 171.017 24.56C171.197 25.12 171.517 25.58 171.977 25.94C172.457 26.3 173.047 26.48 173.747 26.48C174.587 26.48 175.327 26.13 175.967 25.43C176.227 25.15 176.437 24.81 176.597 24.41C176.677 24.25 176.777 24.17 176.897 24.17C177.077 24.17 177.207 24.34 177.287 24.68C177.387 25 177.437 25.29 177.437 25.55ZM189.043 20L188.983 23.84C188.983 26.5 189.273 28.1 189.853 28.64C189.933 28.72 189.973 28.81 189.973 28.91C189.973 29.21 189.323 29.36 188.023 29.36C186.743 29.36 186.063 28.98 185.983 28.22C185.963 28.04 185.953 27.67 185.953 27.11L186.073 22.31C186.073 22.17 185.993 22.1 185.833 22.1C184.873 22.1 183.973 22.37 183.133 22.91C182.293 23.45 181.873 24.14 181.873 24.98C181.873 25.42 181.993 25.79 182.233 26.09C182.473 26.39 182.763 26.54 183.103 26.54C183.463 26.54 183.753 26.47 183.973 26.33C184.213 26.19 184.353 26.11 184.393 26.09C184.733 26.13 184.903 26.49 184.903 27.17C184.903 27.83 184.593 28.37 183.973 28.79C183.353 29.19 182.703 29.39 182.023 29.39C181.343 29.39 180.753 29.27 180.253 29.03C179.773 28.79 179.423 28.52 179.203 28.22C178.983 27.92 178.803 27.58 178.663 27.2C178.523 26.74 178.453 26.34 178.453 26C178.453 24.6 178.893 23.48 179.773 22.64C180.653 21.8 181.783 21.2 183.163 20.84C184.983 20.48 185.933 20.15 186.013 19.85C186.073 19.63 186.103 19.26 186.103 18.74C186.103 17.68 185.563 17.15 184.483 17.15C184.023 17.15 183.613 17.3 183.253 17.6C182.893 17.88 182.713 18.24 182.713 18.68L182.893 19.4C182.853 19.74 182.493 19.94 181.813 20L181.483 20.03C180.883 20.03 180.403 19.88 180.043 19.58C179.703 19.28 179.533 18.88 179.533 18.38C179.533 18.06 179.633 17.71 179.833 17.33C180.053 16.93 180.323 16.61 180.643 16.37C180.963 16.13 181.453 15.92 182.113 15.74C182.793 15.54 183.443 15.44 184.063 15.44C184.683 15.44 185.163 15.46 185.503 15.5C185.843 15.54 186.303 15.64 186.883 15.8C187.483 15.94 187.973 16.22 188.353 16.64C188.753 17.06 188.963 17.51 188.983 17.99C189.023 18.45 189.043 19.12 189.043 20ZM199.979 24.89C199.979 25.75 199.809 26.5 199.469 27.14C199.149 27.78 198.779 28.25 198.359 28.55C197.939 28.85 197.439 29.09 196.859 29.27C196.099 29.51 195.409 29.63 194.789 29.63C193.489 29.63 192.409 29.38 191.549 28.88C190.689 28.36 190.259 27.54 190.259 26.42C190.259 25.76 190.439 25.22 190.799 24.8C191.359 24.18 192.029 23.87 192.809 23.87C193.049 23.87 193.169 23.98 193.169 24.2C193.169 24.22 193.119 24.38 193.019 24.68C192.939 24.96 192.899 25.32 192.899 25.76C192.899 26.2 193.069 26.59 193.409 26.93C193.769 27.27 194.199 27.44 194.699 27.44C195.199 27.44 195.599 27.36 195.899 27.2C196.199 27.02 196.409 26.8 196.529 26.54C196.709 26.18 196.799 25.84 196.799 25.52C196.799 24.94 196.509 24.44 195.929 24.02C195.349 23.6 194.709 23.27 194.009 23.03C193.309 22.79 192.669 22.39 192.089 21.83C191.509 21.27 191.219 20.57 191.219 19.73C191.219 18.29 191.669 17.21 192.569 16.49C193.489 15.77 194.729 15.41 196.289 15.41C196.969 15.41 197.679 15.51 198.419 15.71C199.179 15.89 199.559 16.21 199.559 16.67C199.559 17.11 199.479 17.52 199.319 17.9C199.179 18.28 198.999 18.47 198.779 18.47C198.659 18.47 198.579 18.43 198.539 18.35C198.499 18.25 198.429 18.14 198.329 18.02C198.229 17.9 197.989 17.75 197.609 17.57C197.229 17.37 196.899 17.27 196.619 17.27C196.359 17.27 196.179 17.28 196.079 17.3C195.999 17.3 195.849 17.33 195.629 17.39C195.409 17.43 195.209 17.5 195.029 17.6C194.569 17.86 194.339 18.24 194.339 18.74C194.339 19.06 194.409 19.3 194.549 19.46C194.689 19.6 194.799 19.71 194.879 19.79C194.959 19.87 195.099 19.97 195.299 20.09C195.499 20.19 195.639 20.26 195.719 20.3C195.799 20.34 195.979 20.43 196.259 20.57C196.539 20.69 196.719 20.77 196.799 20.81C198.919 21.81 199.979 23.17 199.979 24.89ZM200.721 17.3L200.811 16.1C200.831 15.92 200.971 15.83 201.231 15.83H202.281L202.161 13.43V13.31C202.161 12.85 202.511 12.41 203.211 11.99C203.911 11.57 204.551 11.36 205.131 11.36C205.311 11.36 205.401 11.44 205.401 11.6V11.63C205.321 12.17 205.241 13.56 205.161 15.8C206.041 15.8 206.601 15.78 206.841 15.74C207.081 15.7 207.211 15.68 207.231 15.68C207.371 15.68 207.441 15.8 207.441 16.04C207.441 16.28 207.331 16.59 207.111 16.97C206.891 17.33 206.651 17.52 206.391 17.54H205.131C205.111 18.22 205.101 19.37 205.101 20.99C205.101 22.59 205.111 23.91 205.131 24.95C205.171 25.99 205.211 26.78 205.251 27.32C205.291 27.84 205.331 28.26 205.371 28.58C205.431 28.9 205.471 29.13 205.491 29.27C205.531 29.41 205.551 29.5 205.551 29.54C205.551 29.74 205.421 29.85 205.161 29.87C204.381 29.87 203.601 29.76 202.821 29.54C202.061 29.32 201.681 28.94 201.681 28.4C202.101 25.04 202.311 21.43 202.311 17.57C201.771 17.57 201.361 17.59 201.081 17.63H201.051C200.871 17.63 200.761 17.52 200.721 17.3Z" fill="white"/>
<g clip-path="url(#clip0_33_213)">
<path d="M2.505 16.13C1.12166 16.13 0.00499725 17.2467 0.00499725 18.63V21.3467C0.00499725 21.675 0.0696617 22.0001 0.195298 22.3034C0.320935 22.6067 0.505084 22.8823 0.73723 23.1144C0.969377 23.3466 1.24497 23.5307 1.54829 23.6564C1.8516 23.782 2.17669 23.8467 2.505 23.8467C2.8333 23.8467 3.15839 23.782 3.46171 23.6564C3.76502 23.5307 4.04062 23.3466 4.27276 23.1144C4.50491 22.8823 4.68906 22.6067 4.8147 22.3034C4.94033 22.0001 5.005 21.675 5.005 21.3467V18.63C5.005 17.2467 3.88833 16.13 2.505 16.13ZM37.495 16.13C36.1117 16.13 34.995 17.2467 34.995 18.63V21.3467C34.995 22.0097 35.2584 22.6456 35.7272 23.1144C36.1961 23.5833 36.832 23.8467 37.495 23.8467C38.158 23.8467 38.7939 23.5833 39.2628 23.1144C39.7316 22.6456 39.995 22.0097 39.995 21.3467V18.63C39.995 17.2467 38.8783 16.13 37.495 16.13ZM11.1333 24.3117C9.75 24.3117 8.63333 25.4283 8.63333 26.8117V29.5283C8.63333 30.1914 8.89672 30.8273 9.36556 31.2961C9.8344 31.7649 10.4703 32.0283 11.1333 32.0283C11.7964 32.0283 12.4323 31.7649 12.9011 31.2961C13.3699 30.8273 13.6333 30.1914 13.6333 29.5283V26.8283C13.6333 25.445 12.5167 24.3283 11.1333 24.3283V24.3117ZM11.1333 7.95C9.75 7.95 8.63333 9.06667 8.63333 10.45V19.3783C8.63333 20.0414 8.89672 20.6773 9.36556 21.1461C9.8344 21.6149 10.4703 21.8783 11.1333 21.8783C11.7964 21.8783 12.4323 21.6149 12.9011 21.1461C13.3699 20.6773 13.6333 20.0414 13.6333 19.3783V10.43C13.6333 9.04667 12.5167 7.93 11.1333 7.93V7.95ZM28.8633 7.95C27.48 7.95 26.3633 9.06667 26.3633 10.45V13.1833C26.3633 13.8464 26.6267 14.4823 27.0956 14.9511C27.5644 15.4199 28.2003 15.6833 28.8633 15.6833C29.5264 15.6833 30.1623 15.4199 30.6311 14.9511C31.0999 14.4823 31.3633 13.8464 31.3633 13.1833V10.45C31.3633 9.06667 30.2467 7.95 28.8633 7.95ZM20 0C18.6167 0 17.5 1.11667 17.5 2.5V5.21667C17.5 5.87971 17.7634 6.51559 18.2322 6.98443C18.7011 7.45327 19.337 7.71667 20 7.71667C20.663 7.71667 21.2989 7.45327 21.7678 6.98443C22.2366 6.51559 22.5 5.87971 22.5 5.21667V2.5C22.5 1.11667 21.3833 0.00166667 20 0.00166667V0ZM20 32.2583C18.6167 32.2583 17.5 33.375 17.5 34.7583V37.4917C17.4989 37.82 17.5625 38.1453 17.6871 38.449C17.8117 38.7527 17.995 39.029 18.2263 39.2619C18.4577 39.4948 18.7327 39.6799 19.0356 39.8065C19.3385 39.9332 19.6634 39.9989 19.9917 40C20.32 40.0011 20.6453 39.9375 20.949 39.8129C21.2527 39.6883 21.529 39.505 21.7619 39.2737C21.9948 39.0423 22.1799 38.7673 22.3065 38.4644C22.4332 38.1615 22.4989 37.8366 22.5 37.5083V34.775C22.5 33.4083 21.3833 32.275 20 32.275V32.2583ZM28.865 18.1633C27.4817 18.1633 26.365 19.2967 26.365 20.6633V29.5433C26.365 30.2064 26.6284 30.8423 27.0972 31.3111C27.5661 31.7799 28.202 32.0433 28.865 32.0433C29.528 32.0433 30.1639 31.7799 30.6328 31.3111C31.1016 30.8423 31.365 30.2064 31.365 29.5433V20.6617C31.365 19.2783 30.2483 18.1617 28.865 18.1617V18.1633ZM20 10.2133C18.6167 10.2133 17.5 11.3467 17.5 12.7133V27.26C17.5 27.923 17.7634 28.5589 18.2322 29.0278C18.7011 29.4966 19.337 29.76 20 29.76C20.663 29.76 21.2989 29.4966 21.7678 29.0278C22.2366 28.5589 22.5 27.923 22.5 27.26V12.73C22.5 11.3467 21.3833 10.23 20 10.23V10.2133Z" fill="white"/>
</g>
<defs>
<clipPath id="clip0_33_213">
<rect width="40" height="40" fill="white"/>
</clipPath>
</defs>
</svg>
