<svg width="179" height="40" viewBox="0 0 179 40" fill="none" xmlns="http://www.w3.org/2000/svg">
<path d="M59.71 16.43C59.79 16.43 59.94 16.51 60.16 16.67C60.38 16.83 60.61 16.91 60.85 16.91H60.88C61.56 16.91 62.1 16.64 62.5 16.1C62.9 15.56 63.12 15.02 63.16 14.48L63.25 13.67C63.25 12.91 63.13 12.26 62.89 11.72C62.67 11.16 62.41 10.75 62.11 10.49C61.81 10.21 61.46 10 61.06 9.86C60.56 9.66 60.03 9.56 59.47 9.56C58.93 9.56 58.49 9.62 58.15 9.74C57.81 9.84 57.62 9.94 57.58 10.04L57.55 10.22C57.37 12.92 57.28 15.34 57.28 17.48C57.28 19.6 57.31 21.43 57.37 22.97C57.45 24.51 57.52 25.7 57.58 26.54C57.66 27.36 57.7 27.81 57.7 27.89C57.7 28.39 57.26 28.79 56.38 29.09C55.5 29.39 54.63 29.54 53.77 29.54C53.37 29.54 53.17 29.44 53.17 29.24C53.17 29.18 53.2 29.04 53.26 28.82C53.64 27.94 53.83 23.85 53.83 16.55C53.83 12.25 53.54 9.79 52.96 9.17C52.84 9.05 52.78 8.93 52.78 8.81C52.78 8.67 52.92 8.52 53.2 8.36C53.5 8.2 54.32 8.02 55.66 7.82C57 7.6 58.42 7.49 59.92 7.49C62.28 7.49 64.05 8.13 65.23 9.41C66.43 10.69 67.03 12.22 67.03 14C67.03 15.76 66.54 17.29 65.56 18.59C64.6 19.89 63.34 20.54 61.78 20.54C61.28 20.54 60.78 20.45 60.28 20.27C59.28 19.91 58.78 19.16 58.78 18.02C58.78 17.78 58.86 17.46 59.02 17.06C59.18 16.64 59.41 16.43 59.71 16.43ZM69.7853 17.69C69.2653 17.71 68.8853 17.73 68.6453 17.75C68.4253 17.75 68.3153 17.69 68.3153 17.57C68.3153 17.45 68.3753 17.33 68.4953 17.21C69.7753 16.03 71.9353 15.44 74.9753 15.44C76.0153 15.44 76.8353 15.53 77.4353 15.71L77.7353 15.8C77.9753 15.9 78.0953 16.01 78.0953 16.13C78.0953 16.23 78.0253 16.31 77.8853 16.37C77.3453 16.53 76.8253 16.79 76.3253 17.15C75.8253 17.49 75.5753 17.73 75.5753 17.87L75.7553 18.08C76.3953 18.44 76.8853 19.01 77.2253 19.79C77.5853 20.57 77.7853 21.26 77.8253 21.86L77.8853 22.79C77.8853 24.77 77.3353 26.4 76.2353 27.68C75.1353 28.96 73.6353 29.6 71.7353 29.6C70.7753 29.6 69.9453 29.43 69.2453 29.09C68.5453 28.75 68.0253 28.37 67.6853 27.95C67.3653 27.51 67.1053 27.02 66.9053 26.48C66.6653 25.74 66.5453 24.98 66.5453 24.2C66.5453 23.4 66.6753 22.6 66.9353 21.8C67.2153 21 67.5253 20.41 67.8653 20.03C68.2253 19.65 68.6253 19.34 69.0653 19.1C69.6253 18.8 70.0753 18.65 70.4153 18.65C70.7553 18.65 70.9253 18.72 70.9253 18.86L70.7453 19.16C70.3053 19.68 69.9853 20.36 69.7853 21.2C69.6053 22.04 69.5153 22.79 69.5153 23.45C69.5153 24.09 69.5953 24.73 69.7553 25.37C69.9153 26.01 70.0953 26.49 70.2953 26.81C70.4953 27.11 70.7253 27.34 70.9853 27.5C71.3653 27.74 71.7653 27.86 72.1853 27.86C72.6053 27.86 73.0153 27.7 73.4153 27.38C73.8153 27.04 74.1053 26.6 74.2853 26.06C74.6453 25.06 74.8253 24.03 74.8253 22.97C74.8253 21.29 74.3953 19.99 73.5353 19.07C72.6953 18.15 71.4453 17.69 69.7853 17.69ZM89.253 25.55C89.253 26.69 88.793 27.64 87.873 28.4C86.973 29.14 85.893 29.51 84.633 29.51C82.793 29.51 81.443 28.96 80.583 27.86C79.723 26.74 79.293 25.23 79.293 23.33C79.293 21.31 79.743 19.52 80.643 17.96C81.083 17.16 81.713 16.53 82.533 16.07C83.353 15.61 84.313 15.38 85.413 15.38C87.073 15.38 88.243 15.94 88.923 17.06C89.203 17.52 89.343 18.06 89.343 18.68C89.343 19.64 88.943 20.36 88.143 20.84C87.823 21.02 87.523 21.11 87.243 21.11C86.983 21.11 86.763 21.1 86.583 21.08C86.423 21.04 86.203 20.9 85.923 20.66C85.643 20.42 85.503 20.09 85.503 19.67C85.523 19.45 85.693 19.27 86.013 19.13C86.313 18.95 86.463 18.63 86.463 18.17C86.463 17.39 85.983 17 85.023 17C84.783 17 84.493 17.11 84.153 17.33C83.833 17.53 83.563 17.8 83.343 18.14C83.123 18.46 82.913 18.98 82.713 19.7C82.533 20.4 82.443 21.08 82.443 21.74C82.443 22.38 82.463 22.87 82.503 23.21C82.563 23.53 82.673 23.98 82.833 24.56C83.013 25.12 83.333 25.58 83.793 25.94C84.273 26.3 84.863 26.48 85.563 26.48C86.403 26.48 87.143 26.13 87.783 25.43C88.043 25.15 88.253 24.81 88.413 24.41C88.493 24.25 88.593 24.17 88.713 24.17C88.893 24.17 89.023 24.34 89.103 24.68C89.203 25 89.253 25.29 89.253 25.55ZM96.7921 19.28C96.7121 19.36 96.6721 19.45 96.6721 19.55C96.6721 19.63 96.8521 19.71 97.2121 19.79C97.5921 19.87 98.0021 20.09 98.4421 20.45C98.8821 20.81 99.2121 21.2 99.4321 21.62C99.8521 22.44 100.082 23.16 100.122 23.78L100.152 24.17C100.252 26.51 100.682 28.11 101.442 28.97C101.542 29.11 101.592 29.21 101.592 29.27C101.592 29.49 101.312 29.6 100.752 29.6C99.0721 29.6 98.0021 29.25 97.5421 28.55C97.3021 28.27 97.1821 27.4 97.1821 25.94V25.19C97.1821 23.33 96.9521 22.04 96.4921 21.32C96.2521 20.98 95.9521 20.81 95.5921 20.81C95.2521 20.81 94.8921 21.12 94.5121 21.74C94.1321 22.34 93.9421 22.85 93.9421 23.27C93.9421 24.95 93.9821 26.12 94.0621 26.78C94.1421 27.44 94.1821 27.78 94.1821 27.8C94.1821 28.38 93.7821 28.83 92.9821 29.15C92.2021 29.47 91.4621 29.63 90.7621 29.63C90.5021 29.63 90.3721 29.47 90.3721 29.15V29.03C90.8521 26.57 91.0921 22.69 91.0921 17.39C91.0921 15.65 91.0521 14.18 90.9721 12.98L90.9121 12.38C90.8721 11.82 90.7521 11.34 90.5521 10.94C90.3721 10.54 90.1921 10.28 90.0121 10.16L89.7721 10.01C89.6321 9.93 89.5621 9.84 89.5621 9.74C89.5621 9.42 90.0421 9.06 91.0021 8.66C91.9621 8.26 92.7921 8.06 93.4921 8.06C93.8121 8.08 93.9821 8.2 94.0021 8.42C94.1021 9.22 94.1521 10.87 94.1521 13.37C94.1521 15.85 94.0921 17.83 93.9721 19.31C93.9721 19.55 94.0121 19.67 94.0921 19.67C94.1721 19.67 94.2921 19.56 94.4521 19.34C94.6321 19.1 94.9321 18.73 95.3521 18.23C95.7921 17.73 96.3721 17.15 97.0921 16.49C97.8321 15.83 98.4221 15.5 98.8621 15.5C99.3221 15.5 99.7721 15.61 100.212 15.83C100.652 16.05 100.872 16.26 100.872 16.46L100.542 16.67C99.4021 17.09 98.1521 17.96 96.7921 19.28ZM104.998 21.38L105.028 22.13C105.028 22.25 105.108 22.31 105.268 22.31C105.908 22.25 106.468 22.09 106.948 21.83C107.428 21.55 107.788 21.24 108.028 20.9C108.508 20.16 108.768 19.52 108.808 18.98L108.838 18.62C108.838 17.54 108.408 17 107.548 17C106.908 17 106.388 17.28 105.988 17.84C105.328 18.72 104.998 19.9 104.998 21.38ZM111.538 25.37C111.538 26.13 111.378 26.8 111.058 27.38C110.758 27.94 110.408 28.36 110.008 28.64C109.628 28.9 109.178 29.11 108.658 29.27C107.998 29.47 107.368 29.57 106.768 29.57C105.088 29.57 103.848 28.94 103.048 27.68C102.248 26.42 101.848 24.82 101.848 22.88C101.848 20.92 102.338 19.18 103.318 17.66C104.318 16.14 105.808 15.38 107.788 15.38C109.588 15.38 110.808 16.01 111.448 17.27C111.708 17.75 111.838 18.21 111.838 18.65C111.838 19.07 111.818 19.41 111.778 19.67C111.738 19.91 111.598 20.28 111.358 20.78C111.118 21.28 110.798 21.73 110.398 22.13C109.998 22.53 109.368 22.91 108.508 23.27C107.648 23.63 106.638 23.87 105.478 23.99C105.318 23.99 105.238 24.06 105.238 24.2C105.238 24.38 105.298 24.65 105.418 25.01C105.558 25.35 105.708 25.64 105.868 25.88C106.308 26.44 106.958 26.72 107.818 26.72C108.678 26.72 109.408 26.44 110.008 25.88C110.328 25.58 110.588 25.21 110.788 24.77C110.868 24.61 110.968 24.53 111.088 24.53C111.228 24.53 111.338 24.64 111.418 24.86C111.498 25.08 111.538 25.25 111.538 25.37ZM112.743 17.3L112.833 16.1C112.853 15.92 112.993 15.83 113.253 15.83H114.303L114.183 13.43V13.31C114.183 12.85 114.533 12.41 115.233 11.99C115.933 11.57 116.573 11.36 117.153 11.36C117.333 11.36 117.423 11.44 117.423 11.6V11.63C117.343 12.17 117.263 13.56 117.183 15.8C118.063 15.8 118.623 15.78 118.863 15.74C119.103 15.7 119.233 15.68 119.253 15.68C119.393 15.68 119.463 15.8 119.463 16.04C119.463 16.28 119.353 16.59 119.133 16.97C118.913 17.33 118.673 17.52 118.413 17.54H117.153C117.133 18.22 117.123 19.37 117.123 20.99C117.123 22.59 117.133 23.91 117.153 24.95C117.193 25.99 117.233 26.78 117.273 27.32C117.313 27.84 117.353 28.26 117.393 28.58C117.453 28.9 117.493 29.13 117.513 29.27C117.553 29.41 117.573 29.5 117.573 29.54C117.573 29.74 117.443 29.85 117.183 29.87C116.403 29.87 115.623 29.76 114.843 29.54C114.083 29.32 113.703 28.94 113.703 28.4C114.123 25.04 114.333 21.43 114.333 17.57C113.793 17.57 113.383 17.59 113.103 17.63H113.073C112.893 17.63 112.783 17.52 112.743 17.3ZM138.253 22.13C138.633 22.13 138.823 22.61 138.823 23.57C138.823 24.53 138.643 25.39 138.283 26.15C137.923 26.91 137.483 27.5 136.963 27.92C136.463 28.34 135.893 28.68 135.253 28.94C133.113 29.88 131.113 29.86 129.253 28.88C128.313 28.38 127.593 27.79 127.093 27.11C126.593 26.41 126.193 25.58 125.893 24.62C125.433 23.18 125.203 21.67 125.203 20.09C125.203 18.51 125.353 17.03 125.653 15.65C125.953 14.27 126.413 12.96 127.033 11.72C127.653 10.46 128.533 9.45 129.673 8.69C130.813 7.93 132.133 7.55 133.633 7.55C134.273 7.55 134.933 7.66 135.613 7.88C136.313 8.08 136.883 8.34 137.323 8.66C137.763 8.96 138.153 9.43 138.493 10.07C138.833 10.71 139.003 11.46 139.003 12.32C139.003 13.24 138.783 14.07 138.343 14.81C138.143 15.15 137.823 15.46 137.383 15.74C136.943 16 136.423 16.13 135.823 16.13C134.903 16.13 134.253 15.72 133.873 14.9C133.713 14.58 133.633 14.23 133.633 13.85C133.633 13.47 133.763 13.25 134.023 13.19C134.303 13.11 134.563 12.89 134.803 12.53C135.043 12.17 135.163 11.75 135.163 11.27C135.163 10.89 135.063 10.56 134.863 10.28C134.483 9.78 133.933 9.53 133.213 9.53C132.493 9.53 131.833 9.86 131.233 10.52C130.653 11.18 130.213 12.01 129.913 13.01C129.313 15.01 129.013 16.85 129.013 18.53C129.013 20.21 129.243 21.56 129.703 22.58C130.263 23.84 130.973 24.68 131.833 25.1C132.373 25.36 132.993 25.49 133.693 25.49C134.873 25.49 135.933 24.96 136.873 23.9C137.273 23.48 137.603 22.98 137.863 22.4C137.963 22.22 138.093 22.13 138.253 22.13ZM150.488 20L150.428 23.84C150.428 26.5 150.718 28.1 151.298 28.64C151.378 28.72 151.418 28.81 151.418 28.91C151.418 29.21 150.768 29.36 149.468 29.36C148.188 29.36 147.508 28.98 147.428 28.22C147.408 28.04 147.398 27.67 147.398 27.11L147.518 22.31C147.518 22.17 147.438 22.1 147.278 22.1C146.318 22.1 145.418 22.37 144.578 22.91C143.738 23.45 143.318 24.14 143.318 24.98C143.318 25.42 143.438 25.79 143.678 26.09C143.918 26.39 144.208 26.54 144.548 26.54C144.908 26.54 145.198 26.47 145.418 26.33C145.658 26.19 145.798 26.11 145.838 26.09C146.178 26.13 146.348 26.49 146.348 27.17C146.348 27.83 146.038 28.37 145.418 28.79C144.798 29.19 144.148 29.39 143.468 29.39C142.788 29.39 142.198 29.27 141.698 29.03C141.218 28.79 140.868 28.52 140.648 28.22C140.428 27.92 140.248 27.58 140.108 27.2C139.968 26.74 139.898 26.34 139.898 26C139.898 24.6 140.338 23.48 141.218 22.64C142.098 21.8 143.228 21.2 144.608 20.84C146.428 20.48 147.378 20.15 147.458 19.85C147.518 19.63 147.548 19.26 147.548 18.74C147.548 17.68 147.008 17.15 145.928 17.15C145.468 17.15 145.058 17.3 144.698 17.6C144.338 17.88 144.158 18.24 144.158 18.68L144.338 19.4C144.298 19.74 143.938 19.94 143.258 20L142.928 20.03C142.328 20.03 141.848 19.88 141.488 19.58C141.148 19.28 140.978 18.88 140.978 18.38C140.978 18.06 141.078 17.71 141.278 17.33C141.498 16.93 141.768 16.61 142.088 16.37C142.408 16.13 142.898 15.92 143.558 15.74C144.238 15.54 144.888 15.44 145.508 15.44C146.128 15.44 146.608 15.46 146.948 15.5C147.288 15.54 147.748 15.64 148.328 15.8C148.928 15.94 149.418 16.22 149.798 16.64C150.198 17.06 150.408 17.51 150.428 17.99C150.468 18.45 150.488 19.12 150.488 20ZM161.424 24.89C161.424 25.75 161.254 26.5 160.914 27.14C160.594 27.78 160.224 28.25 159.804 28.55C159.384 28.85 158.884 29.09 158.304 29.27C157.544 29.51 156.854 29.63 156.234 29.63C154.934 29.63 153.854 29.38 152.994 28.88C152.134 28.36 151.704 27.54 151.704 26.42C151.704 25.76 151.884 25.22 152.244 24.8C152.804 24.18 153.474 23.87 154.254 23.87C154.494 23.87 154.614 23.98 154.614 24.2C154.614 24.22 154.564 24.38 154.464 24.68C154.384 24.96 154.344 25.32 154.344 25.76C154.344 26.2 154.514 26.59 154.854 26.93C155.214 27.27 155.644 27.44 156.144 27.44C156.644 27.44 157.044 27.36 157.344 27.2C157.644 27.02 157.854 26.8 157.974 26.54C158.154 26.18 158.244 25.84 158.244 25.52C158.244 24.94 157.954 24.44 157.374 24.02C156.794 23.6 156.154 23.27 155.454 23.03C154.754 22.79 154.114 22.39 153.534 21.83C152.954 21.27 152.664 20.57 152.664 19.73C152.664 18.29 153.114 17.21 154.014 16.49C154.934 15.77 156.174 15.41 157.734 15.41C158.414 15.41 159.124 15.51 159.864 15.71C160.624 15.89 161.004 16.21 161.004 16.67C161.004 17.11 160.924 17.52 160.764 17.9C160.624 18.28 160.444 18.47 160.224 18.47C160.104 18.47 160.024 18.43 159.984 18.35C159.944 18.25 159.874 18.14 159.774 18.02C159.674 17.9 159.434 17.75 159.054 17.57C158.674 17.37 158.344 17.27 158.064 17.27C157.804 17.27 157.624 17.28 157.524 17.3C157.444 17.3 157.294 17.33 157.074 17.39C156.854 17.43 156.654 17.5 156.474 17.6C156.014 17.86 155.784 18.24 155.784 18.74C155.784 19.06 155.854 19.3 155.994 19.46C156.134 19.6 156.244 19.71 156.324 19.79C156.404 19.87 156.544 19.97 156.744 20.09C156.944 20.19 157.084 20.26 157.164 20.3C157.244 20.34 157.424 20.43 157.704 20.57C157.984 20.69 158.164 20.77 158.244 20.81C160.364 21.81 161.424 23.17 161.424 24.89ZM162.167 17.3L162.257 16.1C162.277 15.92 162.417 15.83 162.677 15.83H163.727L163.607 13.43V13.31C163.607 12.85 163.957 12.41 164.657 11.99C165.357 11.57 165.997 11.36 166.577 11.36C166.757 11.36 166.847 11.44 166.847 11.6V11.63C166.767 12.17 166.687 13.56 166.607 15.8C167.487 15.8 168.047 15.78 168.287 15.74C168.527 15.7 168.657 15.68 168.677 15.68C168.817 15.68 168.887 15.8 168.887 16.04C168.887 16.28 168.777 16.59 168.557 16.97C168.337 17.33 168.097 17.52 167.837 17.54H166.577C166.557 18.22 166.547 19.37 166.547 20.99C166.547 22.59 166.557 23.91 166.577 24.95C166.617 25.99 166.657 26.78 166.697 27.32C166.737 27.84 166.777 28.26 166.817 28.58C166.877 28.9 166.917 29.13 166.937 29.27C166.977 29.41 166.997 29.5 166.997 29.54C166.997 29.74 166.867 29.85 166.607 29.87C165.827 29.87 165.047 29.76 164.267 29.54C163.507 29.32 163.127 28.94 163.127 28.4C163.547 25.04 163.757 21.43 163.757 17.57C163.217 17.57 162.807 17.59 162.527 17.63H162.497C162.317 17.63 162.207 17.52 162.167 17.3ZM178.446 24.89C178.446 25.75 178.276 26.5 177.936 27.14C177.616 27.78 177.246 28.25 176.826 28.55C176.406 28.85 175.906 29.09 175.326 29.27C174.566 29.51 173.876 29.63 173.256 29.63C171.956 29.63 170.876 29.38 170.016 28.88C169.156 28.36 168.726 27.54 168.726 26.42C168.726 25.76 168.906 25.22 169.266 24.8C169.826 24.18 170.496 23.87 171.276 23.87C171.516 23.87 171.636 23.98 171.636 24.2C171.636 24.22 171.586 24.38 171.486 24.68C171.406 24.96 171.366 25.32 171.366 25.76C171.366 26.2 171.536 26.59 171.876 26.93C172.236 27.27 172.666 27.44 173.166 27.44C173.666 27.44 174.066 27.36 174.366 27.2C174.666 27.02 174.876 26.8 174.996 26.54C175.176 26.18 175.266 25.84 175.266 25.52C175.266 24.94 174.976 24.44 174.396 24.02C173.816 23.6 173.176 23.27 172.476 23.03C171.776 22.79 171.136 22.39 170.556 21.83C169.976 21.27 169.686 20.57 169.686 19.73C169.686 18.29 170.136 17.21 171.036 16.49C171.956 15.77 173.196 15.41 174.756 15.41C175.436 15.41 176.146 15.51 176.886 15.71C177.646 15.89 178.026 16.21 178.026 16.67C178.026 17.11 177.946 17.52 177.786 17.9C177.646 18.28 177.466 18.47 177.246 18.47C177.126 18.47 177.046 18.43 177.006 18.35C176.966 18.25 176.896 18.14 176.796 18.02C176.696 17.9 176.456 17.75 176.076 17.57C175.696 17.37 175.366 17.27 175.086 17.27C174.826 17.27 174.646 17.28 174.546 17.3C174.466 17.3 174.316 17.33 174.096 17.39C173.876 17.43 173.676 17.5 173.496 17.6C173.036 17.86 172.806 18.24 172.806 18.74C172.806 19.06 172.876 19.3 173.016 19.46C173.156 19.6 173.266 19.71 173.346 19.79C173.426 19.87 173.566 19.97 173.766 20.09C173.966 20.19 174.106 20.26 174.186 20.3C174.266 20.34 174.446 20.43 174.726 20.57C175.006 20.69 175.186 20.77 175.266 20.81C177.386 21.81 178.446 23.17 178.446 24.89Z" fill="white"/>
<g clip-path="url(#clip0_33_212)">
<path d="M20 0C8.95333 0 0 8.95333 0 20C0 31.0467 8.95333 40 20 40C31.0467 40 40 31.0467 40 20C40 8.95333 31.0467 0 20 0ZM25.94 20C25.94 16.72 23.28 14.06 20 14.06C16.72 14.06 14.06 16.7183 14.06 20C14.06 23.28 16.7183 25.94 20 25.94V29.3333C14.845 29.3333 10.6667 25.155 10.6667 20C10.6667 14.845 14.845 10.6667 20 10.6667C25.155 10.6667 29.3333 14.845 29.3333 20H25.94ZM31.6667 20C31.6667 13.5567 26.4433 8.33333 20 8.33333C13.5567 8.33333 8.33333 13.5567 8.33333 20C8.33333 26.4433 13.5567 31.6667 20 31.6667V35.555C11.4083 35.555 4.445 28.59 4.445 20C4.445 11.4083 11.41 4.445 20 4.445C28.5917 4.445 35.555 11.41 35.555 20H31.6667Z" fill="white"/>
</g>
<defs>
<clipPath id="clip0_33_212">
<rect width="40" height="40" fill="white"/>
</clipPath>
</defs>
</svg>
