<svg width="195" height="40" viewBox="0 0 195 40" fill="none" xmlns="http://www.w3.org/2000/svg">
<path d="M60.7 10.81C59.12 12.79 57.98 14.77 57.28 16.75H57.31C60.09 16.75 61.68 16.76 62.08 16.78C62.5 16.78 62.73 16.76 62.77 16.72C62.81 16.68 62.84 16.63 62.86 16.57C62.52 14.11 62.25 12.44 62.05 11.56C61.85 10.66 61.65 10.21 61.45 10.21C61.25 10.21 61 10.41 60.7 10.81ZM58.03 24.94L58.69 24.82C58.89 24.82 58.99 24.93 58.99 25.15C58.99 25.85 58.85 26.44 58.57 26.92C58.29 27.4 57.94 27.74 57.52 27.94C56.84 28.28 56.26 28.45 55.78 28.45C54.86 28.45 54.17 28.11 53.71 27.43C53.25 26.73 53.02 25.69 53.02 24.31C53.02 22.91 53.4 21.1 54.16 18.88H52.42C52.2 18.88 52.09 18.77 52.09 18.55C52.09 18.33 52.26 17.98 52.6 17.5C52.94 17 53.3 16.75 53.68 16.75H55.03C56.45 13.59 58.12 10.86 60.04 8.56C60.54 7.96 61.15 7.4 61.87 6.88C62.61 6.36 63.18 6.1 63.58 6.1C63.98 6.1 64.28 6.28 64.48 6.64C65 7.48 65.61 10.55 66.31 15.85C66.55 18.13 66.96 20.49 67.54 22.93C68.14 25.35 68.69 26.76 69.19 27.16C69.31 27.24 69.37 27.34 69.37 27.46C69.37 27.76 68.94 28.04 68.08 28.3C67.24 28.56 66.59 28.69 66.13 28.69C65.69 28.69 65.35 28.63 65.11 28.51C64.87 28.41 64.72 28.3 64.66 28.18C64.3 27.4 63.94 25.54 63.58 22.6L63.4 21.19C63.32 20.25 63.24 19.54 63.16 19.06L62.95 18.91L56.68 18.88C56.44 19.9 56.32 20.79 56.32 21.55C56.32 22.31 56.34 22.87 56.38 23.23C56.44 23.57 56.61 23.94 56.89 24.34C57.17 24.74 57.55 24.94 58.03 24.94ZM70.3973 23.41C70.4373 21.39 70.4573 19.73 70.4573 18.43C70.4573 17.13 70.3673 15.89 70.1873 14.71C70.1873 14.51 70.3873 14.41 70.7873 14.41C71.1873 14.41 71.5273 14.46 71.8073 14.56C72.1073 14.66 72.3173 14.77 72.4373 14.89C72.7573 15.21 72.9373 15.37 72.9773 15.37C73.0373 15.37 73.1973 15.28 73.4573 15.1C74.2373 14.6 75.0973 14.35 76.0373 14.35C76.9973 14.35 77.8273 14.59 78.5273 15.07C79.2473 15.55 79.7573 16.18 80.0573 16.96C80.5973 18.3 80.8673 19.72 80.8673 21.22C80.8673 22.7 80.5973 24.18 80.0573 25.66C79.7573 26.46 79.3173 27.12 78.7373 27.64C78.1573 28.14 77.4773 28.39 76.6973 28.39C75.1573 28.39 74.3873 27.5 74.3873 25.72C74.3873 25.24 74.4873 25 74.6873 25C74.7273 25 74.8373 25.05 75.0173 25.15C75.2173 25.23 75.4073 25.27 75.5873 25.27C77.0073 25.27 77.7173 23.77 77.7173 20.77C77.7173 17.75 76.9573 16.24 75.4373 16.24C75.0173 16.24 74.6573 16.34 74.3573 16.54C74.0773 16.72 73.8973 16.9 73.8173 17.08L73.6973 17.38C73.4173 19.18 73.2773 22.65 73.2773 27.79C73.2773 30.11 73.3173 31.77 73.3973 32.77C73.4973 33.79 73.5473 34.4 73.5473 34.6C73.5473 34.8 73.4873 34.98 73.3673 35.14C72.9673 35.66 72.4273 36.12 71.7473 36.52C71.0673 36.94 70.4673 37.15 69.9473 37.15C69.7473 37.15 69.6473 37.02 69.6473 36.76C69.9673 34.74 70.2173 30.29 70.3973 23.41ZM82.3504 23.41C82.3904 21.39 82.4104 19.73 82.4104 18.43C82.4104 17.13 82.3204 15.89 82.1404 14.71C82.1404 14.51 82.3404 14.41 82.7404 14.41C83.1404 14.41 83.4804 14.46 83.7604 14.56C84.0604 14.66 84.2704 14.77 84.3904 14.89C84.7104 15.21 84.8904 15.37 84.9304 15.37C84.9904 15.37 85.1504 15.28 85.4104 15.1C86.1904 14.6 87.0504 14.35 87.9904 14.35C88.9504 14.35 89.7804 14.59 90.4804 15.07C91.2004 15.55 91.7104 16.18 92.0104 16.96C92.5504 18.3 92.8204 19.72 92.8204 21.22C92.8204 22.7 92.5504 24.18 92.0104 25.66C91.7104 26.46 91.2704 27.12 90.6904 27.64C90.1104 28.14 89.4304 28.39 88.6504 28.39C87.1104 28.39 86.3404 27.5 86.3404 25.72C86.3404 25.24 86.4404 25 86.6404 25C86.6804 25 86.7904 25.05 86.9704 25.15C87.1704 25.23 87.3604 25.27 87.5404 25.27C88.9604 25.27 89.6704 23.77 89.6704 20.77C89.6704 17.75 88.9104 16.24 87.3904 16.24C86.9704 16.24 86.6104 16.34 86.3104 16.54C86.0304 16.72 85.8504 16.9 85.7704 17.08L85.6504 17.38C85.3704 19.18 85.2304 22.65 85.2304 27.79C85.2304 30.11 85.2704 31.77 85.3504 32.77C85.4504 33.79 85.5004 34.4 85.5004 34.6C85.5004 34.8 85.4404 34.98 85.3204 35.14C84.9204 35.66 84.3804 36.12 83.7004 36.52C83.0204 36.94 82.4204 37.15 81.9004 37.15C81.7004 37.15 81.6004 37.02 81.6004 36.76C81.9204 34.74 82.1704 30.29 82.3504 23.41ZM97.7605 10.84L97.5805 21.85C97.5805 25.29 97.6905 27.35 97.9105 28.03C97.9705 28.15 98.0005 28.27 98.0005 28.39C98.0005 28.63 97.7105 28.75 97.1305 28.75C96.5505 28.75 95.9005 28.6 95.1805 28.3C94.4805 28.02 94.1305 27.65 94.1305 27.19C94.5305 24.39 94.7305 20.65 94.7305 15.97L94.6105 11.38C94.5705 10.82 94.4505 10.34 94.2505 9.94C94.0705 9.54 93.8905 9.28 93.7105 9.16L93.4705 9.01C93.3305 8.93 93.2605 8.84 93.2605 8.74C93.2605 8.46 93.6905 8.12 94.5505 7.72C95.4305 7.3 96.2805 7.09 97.1005 7.09C97.4205 7.09 97.6005 7.2 97.6405 7.42C97.7205 7.94 97.7605 9.08 97.7605 10.84ZM102.654 20.38L102.684 21.13C102.684 21.25 102.764 21.31 102.924 21.31C103.564 21.25 104.124 21.09 104.604 20.83C105.084 20.55 105.444 20.24 105.684 19.9C106.164 19.16 106.424 18.52 106.464 17.98L106.494 17.62C106.494 16.54 106.064 16 105.204 16C104.564 16 104.044 16.28 103.644 16.84C102.984 17.72 102.654 18.9 102.654 20.38ZM109.194 24.37C109.194 25.13 109.034 25.8 108.714 26.38C108.414 26.94 108.064 27.36 107.664 27.64C107.284 27.9 106.834 28.11 106.314 28.27C105.654 28.47 105.024 28.57 104.424 28.57C102.744 28.57 101.504 27.94 100.704 26.68C99.9043 25.42 99.5043 23.82 99.5043 21.88C99.5043 19.92 99.9943 18.18 100.974 16.66C101.974 15.14 103.464 14.38 105.444 14.38C107.244 14.38 108.464 15.01 109.104 16.27C109.364 16.75 109.494 17.21 109.494 17.65C109.494 18.07 109.474 18.41 109.434 18.67C109.394 18.91 109.254 19.28 109.014 19.78C108.774 20.28 108.454 20.73 108.054 21.13C107.654 21.53 107.024 21.91 106.164 22.27C105.304 22.63 104.294 22.87 103.134 22.99C102.974 22.99 102.894 23.06 102.894 23.2C102.894 23.38 102.954 23.65 103.074 24.01C103.214 24.35 103.364 24.64 103.524 24.88C103.964 25.44 104.614 25.72 105.474 25.72C106.334 25.72 107.064 25.44 107.664 24.88C107.984 24.58 108.244 24.21 108.444 23.77C108.524 23.61 108.624 23.53 108.744 23.53C108.884 23.53 108.994 23.64 109.074 23.86C109.154 24.08 109.194 24.25 109.194 24.37ZM123.05 15.43C123.13 15.43 123.28 15.51 123.5 15.67C123.72 15.83 123.95 15.91 124.19 15.91H124.22C124.9 15.91 125.44 15.64 125.84 15.1C126.24 14.56 126.46 14.02 126.5 13.48L126.59 12.67C126.59 11.91 126.47 11.26 126.23 10.72C126.01 10.16 125.75 9.75 125.45 9.49C125.15 9.21 124.8 9 124.4 8.86C123.9 8.66 123.37 8.56 122.81 8.56C122.27 8.56 121.83 8.62 121.49 8.74C121.15 8.84 120.96 8.94 120.92 9.04L120.89 9.22C120.71 11.92 120.62 14.34 120.62 16.48C120.62 18.6 120.65 20.43 120.71 21.97C120.79 23.51 120.86 24.7 120.92 25.54C121 26.36 121.04 26.81 121.04 26.89C121.04 27.39 120.6 27.79 119.72 28.09C118.84 28.39 117.97 28.54 117.11 28.54C116.71 28.54 116.51 28.44 116.51 28.24C116.51 28.18 116.54 28.04 116.6 27.82C116.98 26.94 117.17 22.85 117.17 15.55C117.17 11.25 116.88 8.79 116.3 8.17C116.18 8.05 116.12 7.93 116.12 7.81C116.12 7.67 116.26 7.52 116.54 7.36C116.84 7.2 117.66 7.02 119 6.82C120.34 6.6 121.76 6.49 123.26 6.49C125.62 6.49 127.39 7.13 128.57 8.41C129.77 9.69 130.37 11.22 130.37 13C130.37 14.76 129.88 16.29 128.9 17.59C127.94 18.89 126.68 19.54 125.12 19.54C124.62 19.54 124.12 19.45 123.62 19.27C122.62 18.91 122.12 18.16 122.12 17.02C122.12 16.78 122.2 16.46 122.36 16.06C122.52 15.64 122.75 15.43 123.05 15.43ZM133.125 16.69C132.605 16.71 132.225 16.73 131.985 16.75C131.765 16.75 131.655 16.69 131.655 16.57C131.655 16.45 131.715 16.33 131.835 16.21C133.115 15.03 135.275 14.44 138.315 14.44C139.355 14.44 140.175 14.53 140.775 14.71L141.075 14.8C141.315 14.9 141.435 15.01 141.435 15.13C141.435 15.23 141.365 15.31 141.225 15.37C140.685 15.53 140.165 15.79 139.665 16.15C139.165 16.49 138.915 16.73 138.915 16.87L139.095 17.08C139.735 17.44 140.225 18.01 140.565 18.79C140.925 19.57 141.125 20.26 141.165 20.86L141.225 21.79C141.225 23.77 140.675 25.4 139.575 26.68C138.475 27.96 136.975 28.6 135.075 28.6C134.115 28.6 133.285 28.43 132.585 28.09C131.885 27.75 131.365 27.37 131.025 26.95C130.705 26.51 130.445 26.02 130.245 25.48C130.005 24.74 129.885 23.98 129.885 23.2C129.885 22.4 130.015 21.6 130.275 20.8C130.555 20 130.865 19.41 131.205 19.03C131.565 18.65 131.965 18.34 132.405 18.1C132.965 17.8 133.415 17.65 133.755 17.65C134.095 17.65 134.265 17.72 134.265 17.86L134.085 18.16C133.645 18.68 133.325 19.36 133.125 20.2C132.945 21.04 132.855 21.79 132.855 22.45C132.855 23.09 132.935 23.73 133.095 24.37C133.255 25.01 133.435 25.49 133.635 25.81C133.835 26.11 134.065 26.34 134.325 26.5C134.705 26.74 135.105 26.86 135.525 26.86C135.945 26.86 136.355 26.7 136.755 26.38C137.155 26.04 137.445 25.6 137.625 25.06C137.985 24.06 138.165 23.03 138.165 21.97C138.165 20.29 137.735 18.99 136.875 18.07C136.035 17.15 134.785 16.69 133.125 16.69ZM148.783 14.53C149.143 14.53 149.463 14.58 149.743 14.68C150.043 14.76 150.203 14.8 150.223 14.8L150.403 14.65L150.283 11.38C150.243 10.82 150.123 10.34 149.923 9.94C149.723 9.54 149.543 9.28 149.383 9.16L149.113 9.01C148.993 8.93 148.933 8.84 148.933 8.74C148.933 8.44 149.393 8.09 150.313 7.69C151.253 7.29 151.983 7.09 152.503 7.09C153.023 7.09 153.303 7.2 153.343 7.42C153.443 8.1 153.493 9.4 153.493 11.32C153.493 13.22 153.443 15.09 153.343 16.93C153.263 18.77 153.223 20.86 153.223 23.2C153.223 25.52 153.373 26.98 153.673 27.58C153.753 27.72 153.793 27.85 153.793 27.97C153.793 28.27 153.363 28.42 152.503 28.42C150.863 28.42 150.043 28.03 150.043 27.25C150.003 26.93 149.983 26.44 149.983 25.78C149.983 25.1 150.043 23.85 150.163 22.03C150.303 20.19 150.373 18.78 150.373 17.8C150.373 16.8 149.873 16.3 148.873 16.3C147.893 16.3 147.143 16.88 146.623 18.04C146.103 19.2 145.843 20.36 145.843 21.52C145.843 23.98 146.463 25.21 147.703 25.21C147.883 25.21 148.053 25.18 148.213 25.12C148.393 25.04 148.503 25 148.543 25C148.703 25 148.823 25.1 148.903 25.3C149.003 25.5 149.053 25.7 149.053 25.9C149.053 26.58 148.783 27.16 148.243 27.64C147.703 28.1 147.043 28.33 146.263 28.33C145.063 28.33 144.153 27.81 143.533 26.77C142.933 25.71 142.633 24.4 142.633 22.84C142.633 20.86 143.103 19.02 144.043 17.32C144.523 16.48 145.173 15.81 145.993 15.31C146.813 14.79 147.743 14.53 148.783 14.53ZM164.956 24.55C164.956 25.69 164.496 26.64 163.576 27.4C162.676 28.14 161.596 28.51 160.336 28.51C158.496 28.51 157.146 27.96 156.286 26.86C155.426 25.74 154.996 24.23 154.996 22.33C154.996 20.31 155.446 18.52 156.346 16.96C156.786 16.16 157.416 15.53 158.236 15.07C159.056 14.61 160.016 14.38 161.116 14.38C162.776 14.38 163.946 14.94 164.626 16.06C164.906 16.52 165.046 17.06 165.046 17.68C165.046 18.64 164.646 19.36 163.846 19.84C163.526 20.02 163.226 20.11 162.946 20.11C162.686 20.11 162.466 20.1 162.286 20.08C162.126 20.04 161.906 19.9 161.626 19.66C161.346 19.42 161.206 19.09 161.206 18.67C161.226 18.45 161.396 18.27 161.716 18.13C162.016 17.95 162.166 17.63 162.166 17.17C162.166 16.39 161.686 16 160.726 16C160.486 16 160.196 16.11 159.856 16.33C159.536 16.53 159.266 16.8 159.046 17.14C158.826 17.46 158.616 17.98 158.416 18.7C158.236 19.4 158.146 20.08 158.146 20.74C158.146 21.38 158.166 21.87 158.206 22.21C158.266 22.53 158.376 22.98 158.536 23.56C158.716 24.12 159.036 24.58 159.496 24.94C159.976 25.3 160.566 25.48 161.266 25.48C162.106 25.48 162.846 25.13 163.486 24.43C163.746 24.15 163.956 23.81 164.116 23.41C164.196 23.25 164.296 23.17 164.416 23.17C164.596 23.17 164.726 23.34 164.806 23.68C164.906 24 164.956 24.29 164.956 24.55ZM176.563 19L176.503 22.84C176.503 25.5 176.793 27.1 177.373 27.64C177.453 27.72 177.493 27.81 177.493 27.91C177.493 28.21 176.843 28.36 175.543 28.36C174.263 28.36 173.583 27.98 173.503 27.22C173.483 27.04 173.473 26.67 173.473 26.11L173.593 21.31C173.593 21.17 173.513 21.1 173.353 21.1C172.393 21.1 171.493 21.37 170.653 21.91C169.813 22.45 169.393 23.14 169.393 23.98C169.393 24.42 169.513 24.79 169.753 25.09C169.993 25.39 170.283 25.54 170.623 25.54C170.983 25.54 171.273 25.47 171.493 25.33C171.733 25.19 171.873 25.11 171.913 25.09C172.253 25.13 172.423 25.49 172.423 26.17C172.423 26.83 172.113 27.37 171.493 27.79C170.873 28.19 170.223 28.39 169.543 28.39C168.863 28.39 168.273 28.27 167.773 28.03C167.293 27.79 166.943 27.52 166.723 27.22C166.503 26.92 166.323 26.58 166.183 26.2C166.043 25.74 165.973 25.34 165.973 25C165.973 23.6 166.413 22.48 167.293 21.64C168.173 20.8 169.303 20.2 170.683 19.84C172.503 19.48 173.453 19.15 173.533 18.85C173.593 18.63 173.623 18.26 173.623 17.74C173.623 16.68 173.083 16.15 172.003 16.15C171.543 16.15 171.133 16.3 170.773 16.6C170.413 16.88 170.233 17.24 170.233 17.68L170.413 18.4C170.373 18.74 170.013 18.94 169.333 19L169.003 19.03C168.403 19.03 167.923 18.88 167.563 18.58C167.223 18.28 167.053 17.88 167.053 17.38C167.053 17.06 167.153 16.71 167.353 16.33C167.573 15.93 167.843 15.61 168.163 15.37C168.483 15.13 168.973 14.92 169.633 14.74C170.313 14.54 170.963 14.44 171.583 14.44C172.203 14.44 172.683 14.46 173.023 14.5C173.363 14.54 173.823 14.64 174.403 14.8C175.003 14.94 175.493 15.22 175.873 15.64C176.273 16.06 176.483 16.51 176.503 16.99C176.543 17.45 176.563 18.12 176.563 19ZM187.499 23.89C187.499 24.75 187.329 25.5 186.989 26.14C186.669 26.78 186.299 27.25 185.879 27.55C185.459 27.85 184.959 28.09 184.379 28.27C183.619 28.51 182.929 28.63 182.309 28.63C181.009 28.63 179.929 28.38 179.069 27.88C178.209 27.36 177.779 26.54 177.779 25.42C177.779 24.76 177.959 24.22 178.319 23.8C178.879 23.18 179.549 22.87 180.329 22.87C180.569 22.87 180.689 22.98 180.689 23.2C180.689 23.22 180.639 23.38 180.539 23.68C180.459 23.96 180.419 24.32 180.419 24.76C180.419 25.2 180.589 25.59 180.929 25.93C181.289 26.27 181.719 26.44 182.219 26.44C182.719 26.44 183.119 26.36 183.419 26.2C183.719 26.02 183.929 25.8 184.049 25.54C184.229 25.18 184.319 24.84 184.319 24.52C184.319 23.94 184.029 23.44 183.449 23.02C182.869 22.6 182.229 22.27 181.529 22.03C180.829 21.79 180.189 21.39 179.609 20.83C179.029 20.27 178.739 19.57 178.739 18.73C178.739 17.29 179.189 16.21 180.089 15.49C181.009 14.77 182.249 14.41 183.809 14.41C184.489 14.41 185.199 14.51 185.939 14.71C186.699 14.89 187.079 15.21 187.079 15.67C187.079 16.11 186.999 16.52 186.839 16.9C186.699 17.28 186.519 17.47 186.299 17.47C186.179 17.47 186.099 17.43 186.059 17.35C186.019 17.25 185.949 17.14 185.849 17.02C185.749 16.9 185.509 16.75 185.129 16.57C184.749 16.37 184.419 16.27 184.139 16.27C183.879 16.27 183.699 16.28 183.599 16.3C183.519 16.3 183.369 16.33 183.149 16.39C182.929 16.43 182.729 16.5 182.549 16.6C182.089 16.86 181.859 17.24 181.859 17.74C181.859 18.06 181.929 18.3 182.069 18.46C182.209 18.6 182.319 18.71 182.399 18.79C182.479 18.87 182.619 18.97 182.819 19.09C183.019 19.19 183.159 19.26 183.239 19.3C183.319 19.34 183.499 19.43 183.779 19.57C184.059 19.69 184.239 19.77 184.319 19.81C186.439 20.81 187.499 22.17 187.499 23.89ZM188.241 16.3L188.331 15.1C188.351 14.92 188.491 14.83 188.751 14.83H189.801L189.681 12.43V12.31C189.681 11.85 190.031 11.41 190.731 10.99C191.431 10.57 192.071 10.36 192.651 10.36C192.831 10.36 192.921 10.44 192.921 10.6V10.63C192.841 11.17 192.761 12.56 192.681 14.8C193.561 14.8 194.121 14.78 194.361 14.74C194.601 14.7 194.731 14.68 194.751 14.68C194.891 14.68 194.961 14.8 194.961 15.04C194.961 15.28 194.851 15.59 194.631 15.97C194.411 16.33 194.171 16.52 193.911 16.54H192.651C192.631 17.22 192.621 18.37 192.621 19.99C192.621 21.59 192.631 22.91 192.651 23.95C192.691 24.99 192.731 25.78 192.771 26.32C192.811 26.84 192.851 27.26 192.891 27.58C192.951 27.9 192.991 28.13 193.011 28.27C193.051 28.41 193.071 28.5 193.071 28.54C193.071 28.74 192.941 28.85 192.681 28.87C191.901 28.87 191.121 28.76 190.341 28.54C189.581 28.32 189.201 27.94 189.201 27.4C189.621 24.04 189.831 20.43 189.831 16.57C189.291 16.57 188.881 16.59 188.601 16.63H188.571C188.391 16.63 188.281 16.52 188.241 16.3Z" fill="white"/>
<g clip-path="url(#clip0_33_211)">
<path d="M8.90002 2.25755e-05C7.73052 -0.00261442 6.57201 0.225791 5.49102 0.672124C4.41003 1.11846 3.42786 1.77393 2.60089 2.60089C1.77393 3.42786 1.11846 4.41003 0.672124 5.49102C0.225791 6.57201 -0.00261442 7.73052 2.25755e-05 8.90002V31.1C-0.00261442 32.2695 0.225791 33.428 0.672124 34.509C1.11846 35.59 1.77393 36.5722 2.60089 37.3992C3.42786 38.2261 4.41003 38.8816 5.49102 39.3279C6.57201 39.7743 7.73052 40.0027 8.90002 40H31.1C32.2695 40.0027 33.428 39.7743 34.509 39.3279C35.59 38.8816 36.5722 38.2261 37.3992 37.3992C38.2261 36.5722 38.8816 35.59 39.3279 34.509C39.7743 33.428 40.0027 32.2695 40 31.1V8.90002C40.0027 7.73052 39.7743 6.57201 39.3279 5.49102C38.8816 4.41003 38.2261 3.42786 37.3992 2.60089C36.5722 1.77393 35.59 1.11846 34.509 0.672124C33.428 0.225791 32.2695 -0.00261442 31.1 2.25755e-05H8.90002ZM19.775 4.28002C23.6684 4.28002 27.1884 5.78336 29.8684 8.59169C31.9084 10.7117 33.055 12.9567 33.6417 15.9117C33.8417 16.895 33.8417 19.5784 33.6534 20.685C33.0298 24.2025 31.1012 27.3549 28.2534 29.5117C27.24 30.2784 24.76 31.6134 24.36 31.6134C24.2134 31.6134 24.2 31.4617 24.2667 30.8467C24.3867 29.86 24.5067 29.655 25.0667 29.42C25.96 29.0467 27.48 27.9634 28.4134 27.0284C30.0405 25.4021 31.197 23.3656 31.76 21.135C32.1067 19.7617 32.0667 16.7084 31.68 15.295C30.4667 10.8017 26.8 7.30836 22.3067 6.37502C21 6.10836 18.6267 6.10836 17.3067 6.37502C12.76 7.30836 9.00002 10.975 7.85336 15.5884C7.54669 16.8417 7.54669 19.895 7.85336 21.1484C8.61336 24.2017 10.5867 27.0017 13.1734 28.6684C13.68 29.0017 14.2934 29.3484 14.5467 29.455C15.1067 29.695 15.2267 29.895 15.3334 30.8817C15.4 31.4817 15.3834 31.655 15.24 31.655C15.1467 31.655 14.4667 31.3617 13.7467 31.015L13.68 30.965C9.56002 28.9384 6.92002 25.5084 5.96002 20.945C5.72002 19.7684 5.68002 16.9584 5.91002 15.8784C6.51002 12.9784 7.65669 10.7117 9.56336 8.70502C12.31 5.81002 15.8434 4.27836 19.7767 4.27836L19.775 4.28002ZM19.9984 8.96336C20.68 8.97002 21.3367 9.03002 21.8417 9.14002C26.4817 10.1734 29.775 14.82 29.135 19.43C28.8817 21.2867 28.2417 22.8134 27.1084 24.23C26.5484 24.9467 25.1884 26.1467 24.9484 26.1467C24.91 26.1467 24.8684 25.6934 24.8684 25.1417V24.1334L25.5617 23.3067C28.175 20.1767 27.9884 15.8034 25.135 12.9334C24.0284 11.8167 22.7484 11.16 21.095 10.8567C20.0284 10.66 19.8017 10.66 18.6817 10.8434C16.9817 11.1217 15.665 11.78 14.495 12.9367C11.6284 15.7767 11.4417 20.1734 14.055 23.3067L14.7434 24.1334V25.1467C14.7434 25.7067 14.6984 26.16 14.6434 26.16C14.5934 26.16 14.2034 25.8934 13.79 25.56L13.7334 25.5417C12.3467 24.435 11.12 22.4717 10.6134 20.5467C10.3067 19.3834 10.3067 17.1734 10.6267 16.0134C11.4667 12.8834 13.7734 10.455 16.9734 9.31502C17.6567 9.07336 18.8617 8.94836 19.9967 8.96336H19.9984ZM19.7817 13.9467C20.2984 13.9467 20.815 14.0467 21.1884 14.2434C22.0017 14.665 22.6684 15.485 22.9217 16.3417C23.695 18.9717 20.9084 21.275 18.3884 20.0984H18.3634C17.1767 19.5467 16.5367 18.505 16.5234 17.1484C16.5234 15.9267 17.2034 14.8634 18.3767 14.24C18.75 14.045 19.2667 13.9467 19.7834 13.9467H19.7817ZM19.7634 21.8267C21.41 21.82 22.6067 22.4084 23.0467 23.4434C23.3767 24.2167 23.2534 26.6634 22.6834 30.6134C22.2967 33.3734 22.0834 34.07 21.55 34.54C20.8167 35.19 19.7767 35.37 18.79 35.02H18.785C17.5917 34.5917 17.335 34.0117 16.845 30.6134C16.2767 26.6634 16.1517 24.2167 16.4817 23.4434C16.9184 22.4167 18.105 21.8334 19.765 21.8267H19.7634Z" fill="white"/>
</g>
<defs>
<clipPath id="clip0_33_211">
<rect width="40" height="40" fill="white"/>
</clipPath>
</defs>
</svg>
