<svg width="204" height="40" viewBox="0 0 204 40" fill="none" xmlns="http://www.w3.org/2000/svg">
<path d="M59.71 16.43C59.79 16.43 59.94 16.51 60.16 16.67C60.38 16.83 60.61 16.91 60.85 16.91H60.88C61.56 16.91 62.1 16.64 62.5 16.1C62.9 15.56 63.12 15.02 63.16 14.48L63.25 13.67C63.25 12.91 63.13 12.26 62.89 11.72C62.67 11.16 62.41 10.75 62.11 10.49C61.81 10.21 61.46 10 61.06 9.86C60.56 9.66 60.03 9.56 59.47 9.56C58.93 9.56 58.49 9.62 58.15 9.74C57.81 9.84 57.62 9.94 57.58 10.04L57.55 10.22C57.37 12.92 57.28 15.34 57.28 17.48C57.28 19.6 57.31 21.43 57.37 22.97C57.45 24.51 57.52 25.7 57.58 26.54C57.66 27.36 57.7 27.81 57.7 27.89C57.7 28.39 57.26 28.79 56.38 29.09C55.5 29.39 54.63 29.54 53.77 29.54C53.37 29.54 53.17 29.44 53.17 29.24C53.17 29.18 53.2 29.04 53.26 28.82C53.64 27.94 53.83 23.85 53.83 16.55C53.83 12.25 53.54 9.79 52.96 9.17C52.84 9.05 52.78 8.93 52.78 8.81C52.78 8.67 52.92 8.52 53.2 8.36C53.5 8.2 54.32 8.02 55.66 7.82C57 7.6 58.42 7.49 59.92 7.49C62.28 7.49 64.05 8.13 65.23 9.41C66.43 10.69 67.03 12.22 67.03 14C67.03 15.76 66.54 17.29 65.56 18.59C64.6 19.89 63.34 20.54 61.78 20.54C61.28 20.54 60.78 20.45 60.28 20.27C59.28 19.91 58.78 19.16 58.78 18.02C58.78 17.78 58.86 17.46 59.02 17.06C59.18 16.64 59.41 16.43 59.71 16.43ZM69.7853 17.69C69.2653 17.71 68.8853 17.73 68.6453 17.75C68.4253 17.75 68.3153 17.69 68.3153 17.57C68.3153 17.45 68.3753 17.33 68.4953 17.21C69.7753 16.03 71.9353 15.44 74.9753 15.44C76.0153 15.44 76.8353 15.53 77.4353 15.71L77.7353 15.8C77.9753 15.9 78.0953 16.01 78.0953 16.13C78.0953 16.23 78.0253 16.31 77.8853 16.37C77.3453 16.53 76.8253 16.79 76.3253 17.15C75.8253 17.49 75.5753 17.73 75.5753 17.87L75.7553 18.08C76.3953 18.44 76.8853 19.01 77.2253 19.79C77.5853 20.57 77.7853 21.26 77.8253 21.86L77.8853 22.79C77.8853 24.77 77.3353 26.4 76.2353 27.68C75.1353 28.96 73.6353 29.6 71.7353 29.6C70.7753 29.6 69.9453 29.43 69.2453 29.09C68.5453 28.75 68.0253 28.37 67.6853 27.95C67.3653 27.51 67.1053 27.02 66.9053 26.48C66.6653 25.74 66.5453 24.98 66.5453 24.2C66.5453 23.4 66.6753 22.6 66.9353 21.8C67.2153 21 67.5253 20.41 67.8653 20.03C68.2253 19.65 68.6253 19.34 69.0653 19.1C69.6253 18.8 70.0753 18.65 70.4153 18.65C70.7553 18.65 70.9253 18.72 70.9253 18.86L70.7453 19.16C70.3053 19.68 69.9853 20.36 69.7853 21.2C69.6053 22.04 69.5153 22.79 69.5153 23.45C69.5153 24.09 69.5953 24.73 69.7553 25.37C69.9153 26.01 70.0953 26.49 70.2953 26.81C70.4953 27.11 70.7253 27.34 70.9853 27.5C71.3653 27.74 71.7653 27.86 72.1853 27.86C72.6053 27.86 73.0153 27.7 73.4153 27.38C73.8153 27.04 74.1053 26.6 74.2853 26.06C74.6453 25.06 74.8253 24.03 74.8253 22.97C74.8253 21.29 74.3953 19.99 73.5353 19.07C72.6953 18.15 71.4453 17.69 69.7853 17.69ZM85.443 15.53C85.803 15.53 86.123 15.58 86.403 15.68C86.703 15.76 86.863 15.8 86.883 15.8L87.063 15.65L86.943 12.38C86.903 11.82 86.783 11.34 86.583 10.94C86.383 10.54 86.203 10.28 86.043 10.16L85.773 10.01C85.653 9.93 85.593 9.84 85.593 9.74C85.593 9.44 86.053 9.09 86.973 8.69C87.913 8.29 88.643 8.09 89.163 8.09C89.683 8.09 89.963 8.2 90.003 8.42C90.103 9.1 90.153 10.4 90.153 12.32C90.153 14.22 90.103 16.09 90.003 17.93C89.923 19.77 89.883 21.86 89.883 24.2C89.883 26.52 90.033 27.98 90.333 28.58C90.413 28.72 90.453 28.85 90.453 28.97C90.453 29.27 90.023 29.42 89.163 29.42C87.523 29.42 86.703 29.03 86.703 28.25C86.663 27.93 86.643 27.44 86.643 26.78C86.643 26.1 86.703 24.85 86.823 23.03C86.963 21.19 87.033 19.78 87.033 18.8C87.033 17.8 86.533 17.3 85.533 17.3C84.553 17.3 83.803 17.88 83.283 19.04C82.763 20.2 82.503 21.36 82.503 22.52C82.503 24.98 83.123 26.21 84.363 26.21C84.543 26.21 84.713 26.18 84.873 26.12C85.053 26.04 85.163 26 85.203 26C85.363 26 85.483 26.1 85.563 26.3C85.663 26.5 85.713 26.7 85.713 26.9C85.713 27.58 85.443 28.16 84.903 28.64C84.363 29.1 83.703 29.33 82.923 29.33C81.723 29.33 80.813 28.81 80.193 27.77C79.593 26.71 79.293 25.4 79.293 23.84C79.293 21.86 79.763 20.02 80.703 18.32C81.183 17.48 81.833 16.81 82.653 16.31C83.473 15.79 84.403 15.53 85.443 15.53ZM101.616 25.55C101.616 26.69 101.156 27.64 100.236 28.4C99.3363 29.14 98.2563 29.51 96.9963 29.51C95.1563 29.51 93.8063 28.96 92.9463 27.86C92.0863 26.74 91.6563 25.23 91.6563 23.33C91.6563 21.31 92.1063 19.52 93.0063 17.96C93.4463 17.16 94.0763 16.53 94.8963 16.07C95.7163 15.61 96.6763 15.38 97.7763 15.38C99.4363 15.38 100.606 15.94 101.286 17.06C101.566 17.52 101.706 18.06 101.706 18.68C101.706 19.64 101.306 20.36 100.506 20.84C100.186 21.02 99.8863 21.11 99.6063 21.11C99.3463 21.11 99.1263 21.1 98.9463 21.08C98.7863 21.04 98.5663 20.9 98.2863 20.66C98.0063 20.42 97.8663 20.09 97.8663 19.67C97.8863 19.45 98.0563 19.27 98.3763 19.13C98.6763 18.95 98.8262 18.63 98.8262 18.17C98.8262 17.39 98.3463 17 97.3863 17C97.1463 17 96.8563 17.11 96.5163 17.33C96.1963 17.53 95.9263 17.8 95.7063 18.14C95.4863 18.46 95.2763 18.98 95.0763 19.7C94.8963 20.4 94.8063 21.08 94.8063 21.74C94.8063 22.38 94.8263 22.87 94.8662 23.21C94.9263 23.53 95.0363 23.98 95.1963 24.56C95.3763 25.12 95.6963 25.58 96.1563 25.94C96.6363 26.3 97.2263 26.48 97.9263 26.48C98.7663 26.48 99.5063 26.13 100.146 25.43C100.406 25.15 100.616 24.81 100.776 24.41C100.856 24.25 100.956 24.17 101.076 24.17C101.256 24.17 101.386 24.34 101.466 24.68C101.566 25 101.616 25.29 101.616 25.55ZM113.223 20L113.163 23.84C113.163 26.5 113.453 28.1 114.033 28.64C114.113 28.72 114.153 28.81 114.153 28.91C114.153 29.21 113.503 29.36 112.203 29.36C110.923 29.36 110.243 28.98 110.163 28.22C110.143 28.04 110.133 27.67 110.133 27.11L110.253 22.31C110.253 22.17 110.173 22.1 110.013 22.1C109.053 22.1 108.153 22.37 107.313 22.91C106.473 23.45 106.053 24.14 106.053 24.98C106.053 25.42 106.173 25.79 106.413 26.09C106.653 26.39 106.943 26.54 107.283 26.54C107.643 26.54 107.933 26.47 108.153 26.33C108.393 26.19 108.533 26.11 108.573 26.09C108.913 26.13 109.083 26.49 109.083 27.17C109.083 27.83 108.773 28.37 108.153 28.79C107.533 29.19 106.883 29.39 106.203 29.39C105.523 29.39 104.933 29.27 104.433 29.03C103.953 28.79 103.603 28.52 103.383 28.22C103.163 27.92 102.983 27.58 102.843 27.2C102.703 26.74 102.633 26.34 102.633 26C102.633 24.6 103.073 23.48 103.953 22.64C104.833 21.8 105.963 21.2 107.343 20.84C109.163 20.48 110.113 20.15 110.193 19.85C110.253 19.63 110.283 19.26 110.283 18.74C110.283 17.68 109.743 17.15 108.663 17.15C108.203 17.15 107.793 17.3 107.433 17.6C107.073 17.88 106.893 18.24 106.893 18.68L107.073 19.4C107.033 19.74 106.673 19.94 105.993 20L105.663 20.03C105.063 20.03 104.583 19.88 104.223 19.58C103.883 19.28 103.713 18.88 103.713 18.38C103.713 18.06 103.813 17.71 104.013 17.33C104.233 16.93 104.503 16.61 104.823 16.37C105.143 16.13 105.633 15.92 106.293 15.74C106.973 15.54 107.623 15.44 108.243 15.44C108.863 15.44 109.343 15.46 109.683 15.5C110.023 15.54 110.483 15.64 111.063 15.8C111.663 15.94 112.153 16.22 112.533 16.64C112.933 17.06 113.143 17.51 113.163 17.99C113.203 18.45 113.223 19.12 113.223 20ZM124.159 24.89C124.159 25.75 123.989 26.5 123.649 27.14C123.329 27.78 122.959 28.25 122.539 28.55C122.119 28.85 121.619 29.09 121.039 29.27C120.279 29.51 119.589 29.63 118.969 29.63C117.669 29.63 116.589 29.38 115.729 28.88C114.869 28.36 114.439 27.54 114.439 26.42C114.439 25.76 114.619 25.22 114.979 24.8C115.539 24.18 116.209 23.87 116.989 23.87C117.229 23.87 117.349 23.98 117.349 24.2C117.349 24.22 117.299 24.38 117.199 24.68C117.119 24.96 117.079 25.32 117.079 25.76C117.079 26.2 117.249 26.59 117.589 26.93C117.949 27.27 118.379 27.44 118.879 27.44C119.379 27.44 119.779 27.36 120.079 27.2C120.379 27.02 120.589 26.8 120.709 26.54C120.889 26.18 120.979 25.84 120.979 25.52C120.979 24.94 120.689 24.44 120.109 24.02C119.529 23.6 118.889 23.27 118.189 23.03C117.489 22.79 116.849 22.39 116.269 21.83C115.689 21.27 115.399 20.57 115.399 19.73C115.399 18.29 115.849 17.21 116.749 16.49C117.669 15.77 118.909 15.41 120.469 15.41C121.149 15.41 121.859 15.51 122.599 15.71C123.359 15.89 123.739 16.21 123.739 16.67C123.739 17.11 123.659 17.52 123.499 17.9C123.359 18.28 123.179 18.47 122.959 18.47C122.839 18.47 122.759 18.43 122.719 18.35C122.679 18.25 122.609 18.14 122.509 18.02C122.409 17.9 122.169 17.75 121.789 17.57C121.409 17.37 121.079 17.27 120.799 17.27C120.539 17.27 120.359 17.28 120.259 17.3C120.179 17.3 120.029 17.33 119.809 17.39C119.589 17.43 119.389 17.5 119.209 17.6C118.749 17.86 118.519 18.24 118.519 18.74C118.519 19.06 118.589 19.3 118.729 19.46C118.869 19.6 118.979 19.71 119.059 19.79C119.139 19.87 119.279 19.97 119.479 20.09C119.679 20.19 119.819 20.26 119.899 20.3C119.979 20.34 120.159 20.43 120.439 20.57C120.719 20.69 120.899 20.77 120.979 20.81C123.099 21.81 124.159 23.17 124.159 24.89ZM124.901 17.3L124.991 16.1C125.011 15.92 125.151 15.83 125.411 15.83H126.461L126.341 13.43V13.31C126.341 12.85 126.691 12.41 127.391 11.99C128.091 11.57 128.731 11.36 129.311 11.36C129.491 11.36 129.581 11.44 129.581 11.6V11.63C129.501 12.17 129.421 13.56 129.341 15.8C130.221 15.8 130.781 15.78 131.021 15.74C131.261 15.7 131.391 15.68 131.411 15.68C131.551 15.68 131.621 15.8 131.621 16.04C131.621 16.28 131.511 16.59 131.291 16.97C131.071 17.33 130.831 17.52 130.571 17.54H129.311C129.291 18.22 129.281 19.37 129.281 20.99C129.281 22.59 129.291 23.91 129.311 24.95C129.351 25.99 129.391 26.78 129.431 27.32C129.471 27.84 129.511 28.26 129.551 28.58C129.611 28.9 129.651 29.13 129.671 29.27C129.711 29.41 129.731 29.5 129.731 29.54C129.731 29.74 129.601 29.85 129.341 29.87C128.561 29.87 127.781 29.76 127.001 29.54C126.241 29.32 125.861 28.94 125.861 28.4C126.281 25.04 126.491 21.43 126.491 17.57C125.951 17.57 125.541 17.59 125.261 17.63H125.231C125.051 17.63 124.941 17.52 124.901 17.3ZM145.251 11.81C143.671 13.79 142.531 15.77 141.831 17.75H141.861C144.641 17.75 146.231 17.76 146.631 17.78C147.051 17.78 147.281 17.76 147.321 17.72C147.361 17.68 147.391 17.63 147.411 17.57C147.071 15.11 146.801 13.44 146.601 12.56C146.401 11.66 146.201 11.21 146.001 11.21C145.801 11.21 145.551 11.41 145.251 11.81ZM142.581 25.94L143.241 25.82C143.441 25.82 143.541 25.93 143.541 26.15C143.541 26.85 143.401 27.44 143.121 27.92C142.841 28.4 142.491 28.74 142.071 28.94C141.391 29.28 140.811 29.45 140.331 29.45C139.411 29.45 138.721 29.11 138.261 28.43C137.801 27.73 137.571 26.69 137.571 25.31C137.571 23.91 137.951 22.1 138.711 19.88H136.971C136.751 19.88 136.641 19.77 136.641 19.55C136.641 19.33 136.811 18.98 137.151 18.5C137.491 18 137.851 17.75 138.231 17.75H139.581C141.001 14.59 142.671 11.86 144.591 9.56C145.091 8.96 145.701 8.4 146.421 7.88C147.161 7.36 147.731 7.1 148.131 7.1C148.531 7.1 148.831 7.28 149.031 7.64C149.551 8.48 150.161 11.55 150.861 16.85C151.101 19.13 151.511 21.49 152.091 23.93C152.691 26.35 153.241 27.76 153.741 28.16C153.861 28.24 153.921 28.34 153.921 28.46C153.921 28.76 153.491 29.04 152.631 29.3C151.791 29.56 151.141 29.69 150.681 29.69C150.241 29.69 149.901 29.63 149.661 29.51C149.421 29.41 149.271 29.3 149.211 29.18C148.851 28.4 148.491 26.54 148.131 23.6L147.951 22.19C147.871 21.25 147.791 20.54 147.711 20.06L147.501 19.91L141.231 19.88C140.991 20.9 140.871 21.79 140.871 22.55C140.871 23.31 140.891 23.87 140.931 24.23C140.991 24.57 141.161 24.94 141.441 25.34C141.721 25.74 142.101 25.94 142.581 25.94ZM160.648 15.53C161.008 15.53 161.328 15.58 161.608 15.68C161.908 15.76 162.068 15.8 162.088 15.8L162.268 15.65L162.148 12.38C162.108 11.82 161.988 11.34 161.788 10.94C161.588 10.54 161.408 10.28 161.248 10.16L160.978 10.01C160.858 9.93 160.798 9.84 160.798 9.74C160.798 9.44 161.258 9.09 162.178 8.69C163.118 8.29 163.848 8.09 164.368 8.09C164.888 8.09 165.168 8.2 165.208 8.42C165.308 9.1 165.358 10.4 165.358 12.32C165.358 14.22 165.308 16.09 165.208 17.93C165.128 19.77 165.088 21.86 165.088 24.2C165.088 26.52 165.238 27.98 165.538 28.58C165.618 28.72 165.658 28.85 165.658 28.97C165.658 29.27 165.228 29.42 164.368 29.42C162.728 29.42 161.908 29.03 161.908 28.25C161.868 27.93 161.848 27.44 161.848 26.78C161.848 26.1 161.908 24.85 162.028 23.03C162.168 21.19 162.238 19.78 162.238 18.8C162.238 17.8 161.738 17.3 160.738 17.3C159.758 17.3 159.008 17.88 158.488 19.04C157.968 20.2 157.708 21.36 157.708 22.52C157.708 24.98 158.328 26.21 159.568 26.21C159.748 26.21 159.918 26.18 160.078 26.12C160.258 26.04 160.368 26 160.408 26C160.568 26 160.688 26.1 160.768 26.3C160.868 26.5 160.918 26.7 160.918 26.9C160.918 27.58 160.648 28.16 160.108 28.64C159.568 29.1 158.908 29.33 158.128 29.33C156.928 29.33 156.018 28.81 155.398 27.77C154.798 26.71 154.498 25.4 154.498 23.84C154.498 21.86 154.968 20.02 155.908 18.32C156.388 17.48 157.038 16.81 157.858 16.31C158.678 15.79 159.608 15.53 160.648 15.53ZM173.011 15.53C173.371 15.53 173.691 15.58 173.971 15.68C174.271 15.76 174.431 15.8 174.451 15.8L174.631 15.65L174.511 12.38C174.471 11.82 174.351 11.34 174.151 10.94C173.951 10.54 173.771 10.28 173.611 10.16L173.341 10.01C173.221 9.93 173.161 9.84 173.161 9.74C173.161 9.44 173.621 9.09 174.541 8.69C175.481 8.29 176.211 8.09 176.731 8.09C177.251 8.09 177.531 8.2 177.571 8.42C177.671 9.1 177.721 10.4 177.721 12.32C177.721 14.22 177.671 16.09 177.571 17.93C177.491 19.77 177.451 21.86 177.451 24.2C177.451 26.52 177.601 27.98 177.901 28.58C177.981 28.72 178.021 28.85 178.021 28.97C178.021 29.27 177.591 29.42 176.731 29.42C175.091 29.42 174.271 29.03 174.271 28.25C174.231 27.93 174.211 27.44 174.211 26.78C174.211 26.1 174.271 24.85 174.391 23.03C174.531 21.19 174.601 19.78 174.601 18.8C174.601 17.8 174.101 17.3 173.101 17.3C172.121 17.3 171.371 17.88 170.851 19.04C170.331 20.2 170.071 21.36 170.071 22.52C170.071 24.98 170.691 26.21 171.931 26.21C172.111 26.21 172.281 26.18 172.441 26.12C172.621 26.04 172.731 26 172.771 26C172.931 26 173.051 26.1 173.131 26.3C173.231 26.5 173.281 26.7 173.281 26.9C173.281 27.58 173.011 28.16 172.471 28.64C171.931 29.1 171.271 29.33 170.491 29.33C169.291 29.33 168.381 28.81 167.761 27.77C167.161 26.71 166.861 25.4 166.861 23.84C166.861 21.86 167.331 20.02 168.271 18.32C168.751 17.48 169.401 16.81 170.221 16.31C171.041 15.79 171.971 15.53 173.011 15.53ZM182.465 12.95L181.745 12.92C181.205 12.92 180.855 13.05 180.695 13.31C180.655 13.37 180.605 13.4 180.545 13.4C180.285 13.4 180.155 12.96 180.155 12.08C180.155 11.18 180.285 10.61 180.545 10.37C180.825 10.13 181.295 10.01 181.955 10.01C182.635 10.01 183.095 10.13 183.335 10.37C183.575 10.59 183.695 10.97 183.695 11.51C183.695 12.05 183.605 12.43 183.425 12.65C183.245 12.85 182.925 12.95 182.465 12.95ZM180.065 28.1L180.395 21.11C180.395 19.45 180.205 18.32 179.825 17.72C179.705 17.52 179.565 17.37 179.405 17.27C179.285 17.23 179.225 17.15 179.225 17.03C179.225 16.67 179.735 16.32 180.755 15.98C181.775 15.64 182.515 15.47 182.975 15.47C183.455 15.47 183.705 15.59 183.725 15.83C183.725 16.23 183.665 17.37 183.545 19.25C183.445 21.11 183.395 23.07 183.395 25.13C183.395 27.19 183.515 28.47 183.755 28.97C183.815 29.07 183.845 29.17 183.845 29.27C183.845 29.53 183.465 29.66 182.705 29.66C181.945 29.66 181.165 29.46 180.365 29.06C180.165 28.96 180.065 28.64 180.065 28.1ZM195.483 25.55C195.483 26.69 195.023 27.64 194.103 28.4C193.203 29.14 192.123 29.51 190.863 29.51C189.023 29.51 187.673 28.96 186.813 27.86C185.953 26.74 185.523 25.23 185.523 23.33C185.523 21.31 185.973 19.52 186.873 17.96C187.313 17.16 187.943 16.53 188.763 16.07C189.583 15.61 190.543 15.38 191.643 15.38C193.303 15.38 194.473 15.94 195.153 17.06C195.433 17.52 195.573 18.06 195.573 18.68C195.573 19.64 195.173 20.36 194.373 20.84C194.053 21.02 193.753 21.11 193.473 21.11C193.213 21.11 192.993 21.1 192.813 21.08C192.653 21.04 192.433 20.9 192.153 20.66C191.873 20.42 191.733 20.09 191.733 19.67C191.753 19.45 191.923 19.27 192.243 19.13C192.543 18.95 192.693 18.63 192.693 18.17C192.693 17.39 192.213 17 191.253 17C191.013 17 190.723 17.11 190.383 17.33C190.063 17.53 189.793 17.8 189.573 18.14C189.353 18.46 189.143 18.98 188.943 19.7C188.763 20.4 188.673 21.08 188.673 21.74C188.673 22.38 188.693 22.87 188.733 23.21C188.793 23.53 188.903 23.98 189.063 24.56C189.243 25.12 189.563 25.58 190.023 25.94C190.503 26.3 191.093 26.48 191.793 26.48C192.633 26.48 193.373 26.13 194.013 25.43C194.273 25.15 194.483 24.81 194.643 24.41C194.723 24.25 194.823 24.17 194.943 24.17C195.123 24.17 195.253 24.34 195.333 24.68C195.433 25 195.483 25.29 195.483 25.55ZM196.62 17.3L196.71 16.1C196.73 15.92 196.87 15.83 197.13 15.83H198.18L198.06 13.43V13.31C198.06 12.85 198.41 12.41 199.11 11.99C199.81 11.57 200.45 11.36 201.03 11.36C201.21 11.36 201.3 11.44 201.3 11.6V11.63C201.22 12.17 201.14 13.56 201.06 15.8C201.94 15.8 202.5 15.78 202.74 15.74C202.98 15.7 203.11 15.68 203.13 15.68C203.27 15.68 203.34 15.8 203.34 16.04C203.34 16.28 203.23 16.59 203.01 16.97C202.79 17.33 202.55 17.52 202.29 17.54H201.03C201.01 18.22 201 19.37 201 20.99C201 22.59 201.01 23.91 201.03 24.95C201.07 25.99 201.11 26.78 201.15 27.32C201.19 27.84 201.23 28.26 201.27 28.58C201.33 28.9 201.37 29.13 201.39 29.27C201.43 29.41 201.45 29.5 201.45 29.54C201.45 29.74 201.32 29.85 201.06 29.87C200.28 29.87 199.5 29.76 198.72 29.54C197.96 29.32 197.58 28.94 197.58 28.4C198 25.04 198.21 21.43 198.21 17.57C197.67 17.57 197.26 17.59 196.98 17.63H196.95C196.77 17.63 196.66 17.52 196.62 17.3Z" fill="white"/>
<g clip-path="url(#clip0_33_210)">
<path d="M8.93333 0.0616642C4.01667 0.0616642 0 4.07833 0 8.995V31.0067C0 35.9233 4.01667 39.94 8.93333 39.94H31.0667C35.975 39.94 40 35.9233 40 31.0067V8.99333C40 4.07666 35.975 0.0599976 31.0667 0.0599976L8.93333 0.0616642ZM19.9083 7.20333C23.2697 7.20376 26.4974 8.5196 28.9011 10.8693C31.3047 13.2191 32.6934 16.4162 32.77 19.7767L32.7783 32.9367H27.1283V30.7267C25.001 32.171 22.488 32.9411 19.9167 32.9367C18.5675 32.9347 17.2269 32.7222 15.9433 32.3067V24.59C17.0557 25.5696 18.4877 26.109 19.97 26.1067C21.3891 26.1065 22.7639 25.6125 23.8584 24.7092C24.9529 23.806 25.6989 22.5499 25.9683 21.1567H23.8283C23.5521 22.078 22.9552 22.87 22.1457 23.3894C21.3361 23.9088 20.3674 24.1213 19.4148 23.9884C18.4622 23.8554 17.5886 23.3859 16.9522 22.6647C16.3157 21.9436 15.9585 21.0184 15.945 20.0567V20.005C15.945 18.18 17.1583 16.6333 18.825 16.145V14.005C17.4305 14.2739 16.173 15.0198 15.2683 16.1145C14.3636 17.2093 13.8681 18.5848 13.8667 20.005V31.425C11.3347 30.0757 9.32634 27.9189 8.16074 25.2973C6.99514 22.6757 6.73918 19.7398 7.43353 16.956C8.12789 14.1723 9.73272 11.7005 11.993 9.93342C14.2533 8.16635 17.0393 7.20542 19.9083 7.20333ZM19.96 10.32V12.3833H19.97C21.9914 12.3842 23.9297 13.1877 25.3589 14.6172C26.7881 16.0467 27.5912 17.9853 27.5917 20.0067V20.0233H29.6533V20.0067C29.6533 17.4385 28.6331 14.9755 26.8172 13.1595C25.0012 11.3435 22.5382 10.3233 19.97 10.3233L19.96 10.32ZM19.96 13.9017V15.9783H19.97C20.4988 15.9779 21.0226 16.0818 21.5112 16.284C21.9998 16.4862 22.4438 16.7828 22.8177 17.1568C23.1915 17.5309 23.488 17.9749 23.69 18.4637C23.892 18.9524 23.9957 19.4762 23.995 20.005V20.0217H26.0733V20.005C26.0733 18.3863 25.4303 16.8339 24.2857 15.6893C23.1411 14.5447 21.5887 13.9017 19.97 13.9017H19.96ZM19.96 17.655C18.66 17.655 17.6117 18.7033 17.6117 20.005C17.6117 21.305 18.66 22.3533 19.9617 22.3533C21.2617 22.3533 22.31 21.305 22.31 20.0033C22.31 18.7033 21.2617 17.655 19.96 17.655Z" fill="white"/>
</g>
<defs>
<clipPath id="clip0_33_210">
<rect width="40" height="40" fill="white"/>
</clipPath>
</defs>
</svg>
