<svg width="760" height="52" viewBox="0 0 760 52" fill="none" xmlns="http://www.w3.org/2000/svg">
<path d="M8.12891 13.85C8.12891 24.1833 8.36224 30.95 8.82891 34.15C8.82891 34.95 8.06224 35.6 6.52891 36.1C4.99557 36.6333 3.72891 36.9 2.72891 36.9C1.72891 36.9 1.22891 36.75 1.22891 36.45C1.22891 36.25 1.27891 36 1.37891 35.7C2.01224 34.3 2.32891 28.6667 2.32891 18.8C2.32891 9.46667 1.92891 4.28333 1.12891 3.25L0.928906 2.95C0.728906 2.78333 0.628906 2.58333 0.628906 2.35C0.628906 2.08333 0.81224 1.86666 1.17891 1.7C1.67891 1.4 2.56224 1.1 3.82891 0.799997C5.12891 0.499997 6.29557 0.349997 7.32891 0.349997C8.36224 0.349997 8.87891 0.58333 8.87891 1.05V1.2C8.47891 4.66667 8.22891 8.88333 8.12891 13.85ZM12.3848 36.35C12.9848 32.75 13.2848 28.4333 13.2848 23.4C13.2848 18.3667 13.1348 15.1 12.8348 13.6C12.8348 13.1667 13.3348 12.95 14.3348 12.95C15.8681 12.95 16.8848 13.5333 17.3848 14.7C17.4181 14.8 17.5014 14.85 17.6348 14.85C17.7681 14.85 17.8681 14.8167 17.9348 14.75C18.9681 13.6833 20.5681 13.15 22.7348 13.15C24.9014 13.15 26.6181 13.7 27.8848 14.8C29.1514 15.9 29.7848 17.5 29.7848 19.6C29.7848 20.8667 29.6681 22.6667 29.4348 25C29.2348 27.3333 29.1348 29.0667 29.1348 30.2C29.1348 32.9 29.5848 34.85 30.4848 36.05C30.6181 36.2167 30.6848 36.3833 30.6848 36.55C30.6848 36.9833 30.2181 37.2 29.2848 37.2C25.1514 37.2 23.0848 35.3667 23.0848 31.7C23.0848 30.3 23.4014 28.35 24.0348 25.85C24.6681 23.35 24.9848 21.45 24.9848 20.15C24.9848 17.4833 23.8848 16.15 21.6848 16.15C20.6181 16.15 19.8014 16.4667 19.2348 17.1C18.7014 17.7333 18.4014 18.4667 18.3348 19.3C18.2681 20.1 18.2348 21.6333 18.2348 23.9C18.2348 27.3667 18.3514 30.3833 18.5848 32.95L18.6848 34.05C18.6848 34.9833 18.0681 35.7 16.8348 36.2C15.6348 36.7333 14.5848 37 13.6848 37C12.8181 37 12.3848 36.7833 12.3848 36.35ZM31.6055 16.5L31.7555 14.5C31.7888 14.2 32.0221 14.05 32.4555 14.05H34.2055L34.0055 10.05V9.85C34.0055 9.08333 34.5888 8.35 35.7555 7.65C36.9221 6.95 37.9888 6.6 38.9555 6.6C39.2555 6.6 39.4055 6.73333 39.4055 7V7.05C39.2721 7.95 39.1388 10.2667 39.0055 14C40.4721 14 41.4055 13.9667 41.8055 13.9C42.2055 13.8333 42.4221 13.8 42.4555 13.8C42.6888 13.8 42.8055 14 42.8055 14.4C42.8055 14.8 42.6221 15.3167 42.2555 15.95C41.8888 16.55 41.4888 16.8667 41.0555 16.9H38.9555C38.9221 18.0333 38.9055 19.95 38.9055 22.65C38.9055 25.3167 38.9221 27.5167 38.9555 29.25C39.0221 30.9833 39.0888 32.3 39.1555 33.2C39.2221 34.0667 39.2888 34.7667 39.3555 35.3C39.4555 35.8333 39.5221 36.2167 39.5555 36.45C39.6221 36.6833 39.6555 36.8333 39.6555 36.9C39.6555 37.2333 39.4388 37.4167 39.0055 37.45C37.7055 37.45 36.4055 37.2667 35.1055 36.9C33.8388 36.5333 33.2055 35.9 33.2055 35C33.9055 29.4 34.2555 23.3833 34.2555 16.95C33.3555 16.95 32.6721 16.9833 32.2055 17.05H32.1555C31.8555 17.05 31.6721 16.8667 31.6055 16.5ZM58.7871 22.6L58.9871 24.35C58.9871 24.9833 58.3871 25.3 57.1871 25.3C54.7538 25.3 53.5371 24.3833 53.5371 22.55C53.5371 22.1167 53.6538 21.5167 53.8871 20.75C54.1204 19.9833 54.2371 19.3167 54.2371 18.75C54.2371 18.1833 54.0704 17.7 53.7371 17.3C53.4038 16.8667 52.9204 16.65 52.2871 16.65C51.6538 16.65 51.1038 16.8833 50.6371 17.35C50.2038 17.7833 49.9371 18.2333 49.8371 18.7L49.6371 19.4C49.4371 20.4333 49.3371 22.1667 49.3371 24.6C49.3371 27 49.3704 28.9 49.4371 30.3C49.5038 31.6667 49.5704 32.6167 49.6371 33.15C49.7038 33.65 49.7371 33.95 49.7371 34.05C49.7371 34.8833 49.2204 35.55 48.1871 36.05C47.1538 36.5833 46.1204 36.85 45.0871 36.85C44.0538 36.85 43.5371 36.6333 43.5371 36.2L43.7871 34.65C44.2538 31.75 44.4871 27.9667 44.4871 23.3C44.4871 18.6333 44.3204 15.4667 43.9871 13.8C43.9871 13.4 44.3371 13.2 45.0371 13.2C46.8371 13.2 48.0371 13.8167 48.6371 15.05C48.6704 15.1833 48.7204 15.25 48.7871 15.25C48.8871 15.25 49.1204 15.1 49.4871 14.8C50.5871 13.9 51.8871 13.45 53.3871 13.45C54.3204 13.45 55.2538 13.6333 56.1871 14C58.0871 14.7667 59.0371 16.3667 59.0371 18.8L58.7871 22.6ZM64.941 17.15C64.0743 17.1833 63.441 17.2167 63.041 17.25C62.6743 17.25 62.491 17.15 62.491 16.95C62.491 16.75 62.591 16.55 62.791 16.35C64.9243 14.3833 68.5243 13.4 73.591 13.4C75.3243 13.4 76.691 13.55 77.691 13.85L78.191 14C78.591 14.1667 78.791 14.35 78.791 14.55C78.791 14.7167 78.6744 14.85 78.441 14.95C77.541 15.2167 76.6743 15.65 75.841 16.25C75.0077 16.8167 74.591 17.2167 74.591 17.45L74.891 17.8C75.9577 18.4 76.7744 19.35 77.341 20.65C77.941 21.95 78.2744 23.1 78.341 24.1L78.441 25.65C78.441 28.95 77.5244 31.6667 75.691 33.8C73.8577 35.9333 71.3577 37 68.191 37C66.591 37 65.2077 36.7167 64.041 36.15C62.8743 35.5833 62.0077 34.95 61.441 34.25C60.9077 33.5167 60.4743 32.7 60.141 31.8C59.741 30.5667 59.541 29.3 59.541 28C59.541 26.6667 59.7577 25.3333 60.191 24C60.6577 22.6667 61.1743 21.6833 61.741 21.05C62.341 20.4167 63.0077 19.9 63.741 19.5C64.6743 19 65.4243 18.75 65.991 18.75C66.5577 18.75 66.841 18.8667 66.841 19.1L66.541 19.6C65.8077 20.4667 65.2743 21.6 64.941 23C64.641 24.4 64.491 25.65 64.491 26.75C64.491 27.8167 64.6243 28.8833 64.891 29.95C65.1577 31.0167 65.4577 31.8167 65.791 32.35C66.1243 32.85 66.5077 33.2333 66.941 33.5C67.5743 33.9 68.241 34.1 68.941 34.1C69.641 34.1 70.3243 33.8333 70.991 33.3C71.6577 32.7333 72.141 32 72.441 31.1C73.041 29.4333 73.341 27.7167 73.341 25.95C73.341 23.15 72.6243 20.9833 71.191 19.45C69.791 17.9167 67.7077 17.15 64.941 17.15ZM91.0371 13.55C91.6371 13.55 92.1704 13.6333 92.6371 13.8C93.1371 13.9333 93.4038 14 93.4371 14L93.7371 13.75L93.5371 8.3C93.4704 7.36667 93.2704 6.56667 92.9371 5.9C92.6038 5.23333 92.3038 4.8 92.0371 4.6L91.5871 4.35C91.3871 4.21667 91.2871 4.06667 91.2871 3.9C91.2871 3.4 92.0538 2.81667 93.5871 2.15C95.1538 1.48333 96.3704 1.15 97.2371 1.15C98.1038 1.15 98.5704 1.33333 98.6371 1.7C98.8038 2.83333 98.8871 5 98.8871 8.2C98.8871 11.3667 98.8038 14.4833 98.6371 17.55C98.5038 20.6167 98.4371 24.1 98.4371 28C98.4371 31.8667 98.6871 34.3 99.1871 35.3C99.3204 35.5333 99.3871 35.75 99.3871 35.95C99.3871 36.45 98.6704 36.7 97.2371 36.7C94.5038 36.7 93.1371 36.05 93.1371 34.75C93.0704 34.2167 93.0371 33.4 93.0371 32.3C93.0371 31.1667 93.1371 29.0833 93.3371 26.05C93.5704 22.9833 93.6871 20.6333 93.6871 19C93.6871 17.3333 92.8538 16.5 91.1871 16.5C89.5538 16.5 88.3038 17.4667 87.4371 19.4C86.5704 21.3333 86.1371 23.2667 86.1371 25.2C86.1371 29.3 87.1704 31.35 89.2371 31.35C89.5371 31.35 89.8204 31.3 90.0871 31.2C90.3871 31.0667 90.5704 31 90.6371 31C90.9038 31 91.1038 31.1667 91.2371 31.5C91.4038 31.8333 91.4871 32.1667 91.4871 32.5C91.4871 33.6333 91.0371 34.6 90.1371 35.4C89.2371 36.1667 88.1371 36.55 86.8371 36.55C84.8371 36.55 83.3204 35.6833 82.2871 33.95C81.2871 32.1833 80.7871 30 80.7871 27.4C80.7871 24.1 81.5704 21.0333 83.1371 18.2C83.9371 16.8 85.0204 15.6833 86.3871 14.85C87.7538 13.9833 89.3038 13.55 91.0371 13.55ZM119.343 13.75C118.743 17.35 118.443 21.9333 118.443 27.5C118.443 31.6 118.609 34.3 118.943 35.6L119.143 36.25C119.143 36.6833 118.776 36.9 118.043 36.9C115.476 36.9 114.009 36.1833 113.643 34.75C113.609 34.5833 113.526 34.5 113.393 34.5C113.293 34.5 113.193 34.5667 113.093 34.7C112.059 36.0667 110.459 36.75 108.293 36.75C107.093 36.75 105.843 36.45 104.543 35.85C103.743 35.4833 103.093 34.85 102.593 33.95C102.093 33.0167 101.843 31.8833 101.843 30.55L102.593 19.6C102.593 17.3 102.359 15.6667 101.893 14.7C101.726 14.3333 101.643 14.1 101.643 14C101.643 13.8 101.726 13.6667 101.893 13.6C102.426 13.4333 103.109 13.35 103.943 13.35C107.176 13.35 108.793 14.6833 108.793 17.35C108.793 18.1833 108.443 20.0833 107.743 23.05C107.076 26.0167 106.743 28.1333 106.743 29.4C106.743 30.6333 107.009 31.5833 107.543 32.25C108.109 32.9167 108.876 33.25 109.843 33.25C110.843 33.25 111.626 32.9 112.193 32.2C112.759 31.5 113.093 30.8 113.193 30.1L113.343 29.05C113.476 27.8833 113.543 25.8333 113.543 22.9C113.543 19.9667 113.443 18.1167 113.243 17.35C113.076 16.55 112.993 16.05 112.993 15.85C112.993 15.0167 113.659 14.3667 114.993 13.9C116.326 13.4 117.526 13.15 118.593 13.15C119.093 13.15 119.343 13.35 119.343 13.75ZM137.621 30.25C137.621 32.15 136.855 33.7333 135.321 35C133.821 36.2333 132.021 36.85 129.921 36.85C126.855 36.85 124.605 35.9333 123.171 34.1C121.738 32.2333 121.021 29.7167 121.021 26.55C121.021 23.1833 121.771 20.2 123.271 17.6C124.005 16.2667 125.055 15.2167 126.421 14.45C127.788 13.6833 129.388 13.3 131.221 13.3C133.988 13.3 135.938 14.2333 137.071 16.1C137.538 16.8667 137.771 17.7667 137.771 18.8C137.771 20.4 137.105 21.6 135.771 22.4C135.238 22.7 134.738 22.85 134.271 22.85C133.838 22.85 133.471 22.8333 133.171 22.8C132.905 22.7333 132.538 22.5 132.071 22.1C131.605 21.7 131.371 21.15 131.371 20.45C131.405 20.0833 131.688 19.7833 132.221 19.55C132.721 19.25 132.971 18.7167 132.971 17.95C132.971 16.65 132.171 16 130.571 16C130.171 16 129.688 16.1833 129.121 16.55C128.588 16.8833 128.138 17.3333 127.771 17.9C127.405 18.4333 127.055 19.3 126.721 20.5C126.421 21.6667 126.271 22.8 126.271 23.9C126.271 24.9667 126.305 25.7833 126.371 26.35C126.471 26.8833 126.655 27.6333 126.921 28.6C127.221 29.5333 127.755 30.3 128.521 30.9C129.321 31.5 130.305 31.8 131.471 31.8C132.871 31.8 134.105 31.2167 135.171 30.05C135.605 29.5833 135.955 29.0167 136.221 28.35C136.355 28.0833 136.521 27.95 136.721 27.95C137.021 27.95 137.238 28.2333 137.371 28.8C137.538 29.3333 137.621 29.8167 137.621 30.25ZM145.416 9.25L144.216 9.2C143.316 9.2 142.732 9.41667 142.466 9.85C142.399 9.95 142.316 10 142.216 10C141.782 10 141.566 9.26667 141.566 7.8C141.566 6.3 141.782 5.35 142.216 4.95C142.682 4.55 143.466 4.35 144.566 4.35C145.699 4.35 146.466 4.55 146.866 4.95C147.266 5.31667 147.466 5.95 147.466 6.85C147.466 7.75 147.316 8.38333 147.016 8.75C146.716 9.08333 146.182 9.25 145.416 9.25ZM141.416 34.5L141.966 22.85C141.966 20.0833 141.649 18.2 141.016 17.2C140.816 16.8667 140.582 16.6167 140.316 16.45C140.116 16.3833 140.016 16.25 140.016 16.05C140.016 15.45 140.866 14.8667 142.566 14.3C144.266 13.7333 145.499 13.45 146.266 13.45C147.066 13.45 147.482 13.65 147.516 14.05C147.516 14.7167 147.416 16.6167 147.216 19.75C147.049 22.85 146.966 26.1167 146.966 29.55C146.966 32.9833 147.166 35.1167 147.566 35.95C147.666 36.1167 147.716 36.2833 147.716 36.45C147.716 36.8833 147.082 37.1 145.816 37.1C144.549 37.1 143.249 36.7667 141.916 36.1C141.582 35.9333 141.416 35.4 141.416 34.5ZM150.764 36.35C151.364 32.75 151.664 28.4333 151.664 23.4C151.664 18.3667 151.514 15.1 151.214 13.6C151.214 13.1667 151.714 12.95 152.714 12.95C154.247 12.95 155.264 13.5333 155.764 14.7C155.797 14.8 155.88 14.85 156.014 14.85C156.147 14.85 156.247 14.8167 156.314 14.75C157.347 13.6833 158.947 13.15 161.114 13.15C163.28 13.15 164.997 13.7 166.264 14.8C167.53 15.9 168.164 17.5 168.164 19.6C168.164 20.8667 168.047 22.6667 167.814 25C167.614 27.3333 167.514 29.0667 167.514 30.2C167.514 32.9 167.964 34.85 168.864 36.05C168.997 36.2167 169.064 36.3833 169.064 36.55C169.064 36.9833 168.597 37.2 167.664 37.2C163.53 37.2 161.464 35.3667 161.464 31.7C161.464 30.3 161.78 28.35 162.414 25.85C163.047 23.35 163.364 21.45 163.364 20.15C163.364 17.4833 162.264 16.15 160.064 16.15C158.997 16.15 158.18 16.4667 157.614 17.1C157.08 17.7333 156.78 18.4667 156.714 19.3C156.647 20.1 156.614 21.6333 156.614 23.9C156.614 27.3667 156.73 30.3833 156.964 32.95L157.064 34.05C157.064 34.9833 156.447 35.7 155.214 36.2C154.014 36.7333 152.964 37 152.064 37C151.197 37 150.764 36.7833 150.764 36.35ZM174.034 15.85C174.768 15.0833 175.734 14.45 176.934 13.95C178.134 13.4167 179.284 13.15 180.384 13.15C181.484 13.15 182.601 13.4 183.734 13.9C183.868 13.9 183.968 13.8667 184.034 13.8C184.901 12.9333 186.168 12.5 187.834 12.5C188.234 12.5 188.434 12.6833 188.434 13.05C188.434 13.0833 188.401 13.2333 188.334 13.5C188.268 13.7667 188.184 14.1667 188.084 14.7C187.984 15.2 187.901 15.8167 187.834 16.55C187.601 18.45 187.468 20.55 187.434 22.85C187.434 25.15 187.434 27.45 187.434 29.75L187.584 40.25C187.584 43.6167 186.718 46.4167 184.984 48.65C184.284 49.55 183.218 50.3333 181.784 51C180.384 51.6667 178.734 52 176.834 52C176.401 51.7333 176.184 51.4667 176.184 51.2C176.184 50.9333 176.368 50.7167 176.734 50.55C178.834 49.5833 180.334 47.2833 181.234 43.65C182.134 40.05 182.584 34.5667 182.584 27.2L182.484 20.2L182.334 16.8C182.334 16.5 181.868 16.2833 180.934 16.15C179.734 16.15 178.718 16.55 177.884 17.35C177.084 18.1167 176.534 19.1333 176.234 20.4C175.701 22.4333 175.434 24.2 175.434 25.7C175.434 27.1667 175.668 28.4667 176.134 29.6C176.634 30.7333 177.484 31.3 178.684 31.3C179.018 31.3 179.318 31.2333 179.584 31.1C179.884 30.9667 180.084 30.9 180.184 30.9C180.518 30.9 180.684 31.2333 180.684 31.9C180.684 32.5667 180.634 33.1167 180.534 33.55C180.434 33.95 180.234 34.4 179.934 34.9C179.268 36 177.968 36.55 176.034 36.55C174.101 36.55 172.718 35.85 171.884 34.45C171.018 33.0167 170.518 31.7333 170.384 30.6C170.184 28.9 170.084 27.7833 170.084 27.25C170.084 26.7167 170.084 26.3 170.084 26C170.118 25.6667 170.201 25.0333 170.334 24.1C170.501 23.1333 170.701 22.2333 170.934 21.4C171.201 20.5333 171.601 19.5833 172.134 18.55C172.668 17.4833 173.301 16.5833 174.034 15.85ZM198.939 16.5L199.089 14.5C199.123 14.2 199.356 14.05 199.789 14.05H201.539L201.339 10.05V9.85C201.339 9.08333 201.923 8.35 203.089 7.65C204.256 6.95 205.323 6.6 206.289 6.6C206.589 6.6 206.739 6.73333 206.739 7V7.05C206.606 7.95 206.473 10.2667 206.339 14C207.806 14 208.739 13.9667 209.139 13.9C209.539 13.8333 209.756 13.8 209.789 13.8C210.023 13.8 210.139 14 210.139 14.4C210.139 14.8 209.956 15.3167 209.589 15.95C209.223 16.55 208.823 16.8667 208.389 16.9H206.289C206.256 18.0333 206.239 19.95 206.239 22.65C206.239 25.3167 206.256 27.5167 206.289 29.25C206.356 30.9833 206.423 32.3 206.489 33.2C206.556 34.0667 206.623 34.7667 206.689 35.3C206.789 35.8333 206.856 36.2167 206.889 36.45C206.956 36.6833 206.989 36.8333 206.989 36.9C206.989 37.2333 206.773 37.4167 206.339 37.45C205.039 37.45 203.739 37.2667 202.439 36.9C201.173 36.5333 200.539 35.9 200.539 35C201.239 29.4 201.589 23.3833 201.589 16.95C200.689 16.95 200.006 16.9833 199.539 17.05H199.489C199.189 17.05 199.006 16.8667 198.939 16.5ZM217.321 9.15L217.271 14C217.271 14.2 217.338 14.3 217.471 14.3C217.604 14.3 217.738 14.25 217.871 14.15C218.704 13.5833 220.021 13.3 221.821 13.3C224.854 13.3 226.954 14.3333 228.121 16.4C228.554 17.1667 228.771 18.1833 228.771 19.45C228.771 20.7167 228.688 22.4667 228.521 24.7C228.388 26.9333 228.321 28.5167 228.321 29.45C228.321 32.7167 228.788 34.8833 229.721 35.95C229.888 36.1167 229.971 36.2833 229.971 36.45C229.971 36.7833 229.254 36.95 227.821 36.95C223.954 36.95 222.021 35.15 222.021 31.55C222.021 30.15 222.354 28.1833 223.021 25.65C223.688 23.1167 224.021 21.25 224.021 20.05C224.021 18.85 223.738 17.9333 223.171 17.3C222.604 16.6333 221.821 16.3 220.821 16.3C219.821 16.3 219.021 16.5167 218.421 16.95C217.854 17.3833 217.504 17.8333 217.371 18.3L217.221 18.95C217.188 19.5833 217.171 21.6 217.171 25C217.171 28.4 217.254 30.6167 217.421 31.65C217.588 32.65 217.671 33.2167 217.671 33.35C217.671 34.3167 217.021 35.1833 215.721 35.95C214.421 36.6833 213.138 37.05 211.871 37.05C211.404 37.05 211.171 36.7833 211.171 36.25L211.271 35.3C212.004 29.7 212.371 23.6333 212.371 17.1C212.371 14.5667 212.271 12 212.071 9.4L212.021 8.3C211.954 7.36667 211.754 6.56667 211.421 5.9C211.121 5.23333 210.838 4.8 210.571 4.6L210.121 4.35C209.888 4.21667 209.771 4.06667 209.771 3.9C209.771 3.43333 210.554 2.86667 212.121 2.2C213.688 1.5 214.888 1.15 215.721 1.15C216.588 1.15 217.054 1.33333 217.121 1.7C217.254 3.4 217.321 5.88333 217.321 9.15ZM236.227 23.3L236.277 24.55C236.277 24.75 236.41 24.85 236.677 24.85C237.743 24.75 238.677 24.4833 239.477 24.05C240.277 23.5833 240.877 23.0667 241.277 22.5C242.077 21.2667 242.51 20.2 242.577 19.3L242.627 18.7C242.627 16.9 241.91 16 240.477 16C239.41 16 238.543 16.4667 237.877 17.4C236.777 18.8667 236.227 20.8333 236.227 23.3ZM247.127 29.95C247.127 31.2167 246.86 32.3333 246.327 33.3C245.827 34.2333 245.243 34.9333 244.577 35.4C243.943 35.8333 243.193 36.1833 242.327 36.45C241.227 36.7833 240.177 36.95 239.177 36.95C236.377 36.95 234.31 35.9 232.977 33.8C231.643 31.7 230.977 29.0333 230.977 25.8C230.977 22.5333 231.793 19.6333 233.427 17.1C235.093 14.5667 237.577 13.3 240.877 13.3C243.877 13.3 245.91 14.35 246.977 16.45C247.41 17.25 247.627 18.0167 247.627 18.75C247.627 19.45 247.593 20.0167 247.527 20.45C247.46 20.85 247.227 21.4667 246.827 22.3C246.427 23.1333 245.893 23.8833 245.227 24.55C244.56 25.2167 243.51 25.85 242.077 26.45C240.643 27.05 238.96 27.45 237.027 27.65C236.76 27.65 236.627 27.7667 236.627 28C236.627 28.3 236.727 28.75 236.927 29.35C237.16 29.9167 237.41 30.4 237.677 30.8C238.41 31.7333 239.493 32.2 240.927 32.2C242.36 32.2 243.577 31.7333 244.577 30.8C245.11 30.3 245.543 29.6833 245.877 28.95C246.01 28.6833 246.177 28.55 246.377 28.55C246.61 28.55 246.793 28.7333 246.927 29.1C247.06 29.4667 247.127 29.75 247.127 29.95ZM268.969 18.75L267.819 19.05C267.219 19.05 266.919 18.5 266.919 17.4C266.919 16.2667 267.319 15.3667 268.119 14.7C268.952 14 270.002 13.65 271.269 13.65C271.969 13.65 272.719 13.8667 273.519 14.3C274.319 14.7 274.986 15.2167 275.519 15.85C276.052 16.45 276.519 17.4167 276.919 18.75C277.352 20.05 277.569 21.5833 277.569 23.35C277.569 27.4167 276.469 30.7167 274.269 33.25C272.102 35.7833 268.952 37.05 264.819 37.05C263.619 37.05 262.436 36.9333 261.269 36.7L260.769 36.6C260.336 36.4667 260.086 36.2333 260.019 35.9C259.919 35.2 259.869 33.55 259.869 30.95L260.169 14.75C260.169 12.25 260.102 10.3333 259.969 9L259.869 8.3C259.802 7.36667 259.602 6.56667 259.269 5.9C258.969 5.23333 258.669 4.8 258.369 4.6L257.969 4.35C257.736 4.21667 257.619 4.06667 257.619 3.9C257.619 3.4 258.452 2.81667 260.119 2.15C261.786 1.45 263.002 1.1 263.769 1.1C264.536 1.1 264.936 1.3 264.969 1.7C265.202 3.73333 265.319 6.63333 265.319 10.4L265.069 22.4C265.069 27.6333 265.219 31.25 265.519 33.25C265.552 33.7167 266.069 33.95 267.069 33.95C268.102 33.95 268.986 33.6667 269.719 33.1C270.452 32.5333 271.002 31.7833 271.369 30.85C272.036 29.15 272.369 27.2667 272.369 25.2C272.369 24.2333 272.236 23.1833 271.969 22.05C271.502 19.85 270.502 18.75 268.969 18.75ZM284.566 23.3L284.616 24.55C284.616 24.75 284.75 24.85 285.016 24.85C286.083 24.75 287.016 24.4833 287.816 24.05C288.616 23.5833 289.216 23.0667 289.616 22.5C290.416 21.2667 290.85 20.2 290.916 19.3L290.966 18.7C290.966 16.9 290.25 16 288.816 16C287.75 16 286.883 16.4667 286.216 17.4C285.116 18.8667 284.566 20.8333 284.566 23.3ZM295.466 29.95C295.466 31.2167 295.2 32.3333 294.666 33.3C294.166 34.2333 293.583 34.9333 292.916 35.4C292.283 35.8333 291.533 36.1833 290.666 36.45C289.566 36.7833 288.516 36.95 287.516 36.95C284.716 36.95 282.65 35.9 281.316 33.8C279.983 31.7 279.316 29.0333 279.316 25.8C279.316 22.5333 280.133 19.6333 281.766 17.1C283.433 14.5667 285.916 13.3 289.216 13.3C292.216 13.3 294.25 14.35 295.316 16.45C295.75 17.25 295.966 18.0167 295.966 18.75C295.966 19.45 295.933 20.0167 295.866 20.45C295.8 20.85 295.566 21.4667 295.166 22.3C294.766 23.1333 294.233 23.8833 293.566 24.55C292.9 25.2167 291.85 25.85 290.416 26.45C288.983 27.05 287.3 27.45 285.366 27.65C285.1 27.65 284.966 27.7667 284.966 28C284.966 28.3 285.066 28.75 285.266 29.35C285.5 29.9167 285.75 30.4 286.016 30.8C286.75 31.7333 287.833 32.2 289.266 32.2C290.7 32.2 291.916 31.7333 292.916 30.8C293.45 30.3 293.883 29.6833 294.216 28.95C294.35 28.6833 294.516 28.55 294.716 28.55C294.95 28.55 295.133 28.7333 295.266 29.1C295.4 29.4667 295.466 29.75 295.466 29.95ZM313.425 29.15C313.425 30.5833 313.141 31.8333 312.575 32.9C312.041 33.9667 311.425 34.75 310.725 35.25C310.025 35.75 309.191 36.15 308.225 36.45C306.958 36.85 305.808 37.05 304.775 37.05C302.608 37.05 300.808 36.6333 299.375 35.8C297.941 34.9333 297.225 33.5667 297.225 31.7C297.225 30.6 297.525 29.7 298.125 29C299.058 27.9667 300.175 27.45 301.475 27.45C301.875 27.45 302.075 27.6333 302.075 28C302.075 28.0333 301.991 28.3 301.825 28.8C301.691 29.2667 301.625 29.8667 301.625 30.6C301.625 31.3333 301.908 31.9833 302.475 32.55C303.075 33.1167 303.791 33.4 304.625 33.4C305.458 33.4 306.125 33.2667 306.625 33C307.125 32.7 307.475 32.3333 307.675 31.9C307.975 31.3 308.125 30.7333 308.125 30.2C308.125 29.2333 307.641 28.4 306.675 27.7C305.708 27 304.641 26.45 303.475 26.05C302.308 25.65 301.241 24.9833 300.275 24.05C299.308 23.1167 298.825 21.95 298.825 20.55C298.825 18.15 299.575 16.35 301.075 15.15C302.608 13.95 304.675 13.35 307.275 13.35C308.408 13.35 309.591 13.5167 310.825 13.85C312.091 14.15 312.725 14.6833 312.725 15.45C312.725 16.1833 312.591 16.8667 312.325 17.5C312.091 18.1333 311.791 18.45 311.425 18.45C311.225 18.45 311.091 18.3833 311.025 18.25C310.958 18.0833 310.841 17.9 310.675 17.7C310.508 17.5 310.108 17.25 309.475 16.95C308.841 16.6167 308.291 16.45 307.825 16.45C307.391 16.45 307.091 16.4667 306.925 16.5C306.791 16.5 306.541 16.55 306.175 16.65C305.808 16.7167 305.475 16.8333 305.175 17C304.408 17.4333 304.025 18.0667 304.025 18.9C304.025 19.4333 304.141 19.8333 304.375 20.1C304.608 20.3333 304.791 20.5167 304.925 20.65C305.058 20.7833 305.291 20.95 305.625 21.15C305.958 21.3167 306.191 21.4333 306.325 21.5C306.458 21.5667 306.758 21.7167 307.225 21.95C307.691 22.15 307.991 22.2833 308.125 22.35C311.658 24.0167 313.425 26.2833 313.425 29.15ZM314.662 16.5L314.812 14.5C314.845 14.2 315.079 14.05 315.512 14.05H317.262L317.062 10.05V9.85C317.062 9.08333 317.645 8.35 318.812 7.65C319.979 6.95 321.045 6.6 322.012 6.6C322.312 6.6 322.462 6.73333 322.462 7V7.05C322.329 7.95 322.195 10.2667 322.062 14C323.529 14 324.462 13.9667 324.862 13.9C325.262 13.8333 325.479 13.8 325.512 13.8C325.745 13.8 325.862 14 325.862 14.4C325.862 14.8 325.679 15.3167 325.312 15.95C324.945 16.55 324.545 16.8667 324.112 16.9H322.012C321.979 18.0333 321.962 19.95 321.962 22.65C321.962 25.3167 321.979 27.5167 322.012 29.25C322.079 30.9833 322.145 32.3 322.212 33.2C322.279 34.0667 322.345 34.7667 322.412 35.3C322.512 35.8333 322.579 36.2167 322.612 36.45C322.679 36.6833 322.712 36.8333 322.712 36.9C322.712 37.2333 322.495 37.4167 322.062 37.45C320.762 37.45 319.462 37.2667 318.162 36.9C316.895 36.5333 316.262 35.9 316.262 35C316.962 29.4 317.312 23.3833 317.312 16.95C316.412 16.95 315.729 16.9833 315.262 17.05H315.212C314.912 17.05 314.729 16.8667 314.662 16.5ZM354.028 37C353.695 37.2333 353.445 37.35 353.278 37.35C352.911 37.35 352.661 37.2 352.528 36.9C351.528 34.9 350.695 32.2 350.028 28.8C349.995 28.6667 349.945 28.6 349.878 28.6L349.578 28.8C348.678 30.4 347.628 31.8833 346.428 33.25C345.261 34.6167 344.311 35.5833 343.578 36.15L342.478 37C342.145 37.3 341.878 37.45 341.678 37.45C341.311 37.45 341.061 37.2833 340.928 36.95C340.195 35.55 339.345 32.8333 338.378 28.8L337.928 26.75C337.295 23.8167 336.645 21.4667 335.978 19.7C335.345 17.9333 334.861 16.9 334.528 16.6L334.028 16.15C333.728 16.05 333.578 15.8833 333.578 15.65C333.578 15.1833 334.261 14.6833 335.628 14.15C337.028 13.6167 338.111 13.35 338.878 13.35C339.645 13.35 340.145 13.6667 340.378 14.3C340.645 14.9 341.045 16.6167 341.578 19.45C342.978 26.9167 343.995 30.65 344.628 30.65C344.828 30.65 345.045 30.4833 345.278 30.15C345.545 29.7833 345.845 29.35 346.178 28.85C346.545 28.35 347.028 27.4833 347.628 26.25C348.228 25.0167 348.528 23.9333 348.528 23C348.528 22.8333 348.411 22.2333 348.178 21.2C347.945 20.1333 347.595 19.1167 347.128 18.15C346.695 17.15 346.345 16.5833 346.078 16.45C345.478 16.1167 345.178 15.8333 345.178 15.6C345.178 15.2 345.861 14.7333 347.228 14.2C348.595 13.6333 349.828 13.35 350.928 13.35C351.428 13.35 351.778 13.65 351.978 14.25C352.478 15.8167 353.078 18.6333 353.778 22.7C354.678 27.9 355.511 30.5 356.278 30.5C356.545 30.5 356.945 30.1333 357.478 29.4C358.011 28.6333 358.528 27.5333 359.028 26.1C359.561 24.6667 359.828 23.45 359.828 22.45C359.828 21.4167 359.778 20.6333 359.678 20.1C359.611 19.5333 359.328 18.8833 358.828 18.15C358.328 17.4167 357.761 17 357.128 16.9C356.495 16.7667 356.178 16.55 356.178 16.25C356.178 15.7833 356.861 15.1833 358.228 14.45C359.628 13.7167 361.061 13.35 362.528 13.35C363.928 13.35 364.628 14.75 364.628 17.55C364.628 21.05 363.595 24.65 361.528 28.35C359.461 32.05 356.961 34.9333 354.028 37ZM382.405 21L382.305 27.4C382.305 31.8333 382.788 34.5 383.755 35.4C383.888 35.5333 383.955 35.6833 383.955 35.85C383.955 36.35 382.872 36.6 380.705 36.6C378.572 36.6 377.438 35.9667 377.305 34.7C377.272 34.4 377.255 33.7833 377.255 32.85L377.455 24.85C377.455 24.6167 377.322 24.5 377.055 24.5C375.455 24.5 373.955 24.95 372.555 25.85C371.155 26.75 370.455 27.9 370.455 29.3C370.455 30.0333 370.655 30.65 371.055 31.15C371.455 31.65 371.938 31.9 372.505 31.9C373.105 31.9 373.588 31.7833 373.955 31.55C374.355 31.3167 374.588 31.1833 374.655 31.15C375.222 31.2167 375.505 31.8167 375.505 32.95C375.505 34.05 374.988 34.95 373.955 35.65C372.922 36.3167 371.838 36.65 370.705 36.65C369.572 36.65 368.588 36.45 367.755 36.05C366.955 35.65 366.372 35.2 366.005 34.7C365.638 34.2 365.338 33.6333 365.105 33C364.872 32.2333 364.755 31.5667 364.755 31C364.755 28.6667 365.488 26.8 366.955 25.4C368.422 24 370.305 23 372.605 22.4C375.638 21.8 377.222 21.25 377.355 20.75C377.455 20.3833 377.505 19.7667 377.505 18.9C377.505 17.1333 376.605 16.25 374.805 16.25C374.038 16.25 373.355 16.5 372.755 17C372.155 17.4667 371.855 18.0667 371.855 18.8L372.155 20C372.088 20.5667 371.488 20.9 370.355 21L369.805 21.05C368.805 21.05 368.005 20.8 367.405 20.3C366.838 19.8 366.555 19.1333 366.555 18.3C366.555 17.7667 366.722 17.1833 367.055 16.55C367.422 15.8833 367.872 15.35 368.405 14.95C368.938 14.55 369.755 14.2 370.855 13.9C371.988 13.5667 373.072 13.4 374.105 13.4C375.138 13.4 375.938 13.4333 376.505 13.5C377.072 13.5667 377.838 13.7333 378.805 14C379.805 14.2333 380.622 14.7 381.255 15.4C381.922 16.1 382.272 16.85 382.305 17.65C382.372 18.4167 382.405 19.5333 382.405 21ZM394.282 49.85C394.282 50.25 394.082 50.45 393.682 50.45H393.632C392.532 50.45 391.282 50.0667 389.882 49.3C388.515 48.5333 387.832 47.65 387.832 46.65C387.832 45.65 388.465 43.9 389.732 41.4C390.998 38.9333 391.632 37.2833 391.632 36.45C391.632 35.55 391.198 33.9333 390.332 31.6C389.232 28.5667 388.348 26.1 387.682 24.2C387.048 22.3 386.348 20.6333 385.582 19.2C384.848 17.7333 384.315 16.8667 383.982 16.6L383.482 16.25C383.115 16.05 382.932 15.8333 382.932 15.6C382.932 15.1333 383.648 14.6667 385.082 14.2C386.548 13.7 387.832 13.45 388.932 13.45C389.432 13.45 389.848 13.85 390.182 14.65C390.782 16.2167 391.432 18.3833 392.132 21.15C393.832 26.8167 394.898 29.65 395.332 29.65C395.632 29.65 396.232 28.4833 397.132 26.15C398.065 23.8167 398.532 21.9333 398.532 20.5C398.532 18 397.798 16.5333 396.332 16.1C395.998 16.0333 395.832 15.8667 395.832 15.6C395.832 15 396.615 14.4333 398.182 13.9C399.748 13.3333 401.165 13.05 402.432 13.05C403.532 13.05 404.082 13.7667 404.082 15.2C404.082 16.3 403.848 17.5833 403.382 19.05C402.915 20.5167 402.482 21.6833 402.082 22.55C401.682 23.3833 400.682 25.35 399.082 28.45C397.515 31.5167 396.215 34.2167 395.182 36.55C394.048 39.35 393.482 42.2 393.482 45.1C393.482 46.6333 393.615 47.7833 393.882 48.55C394.148 49.3167 394.282 49.75 394.282 49.85ZM420.35 23.5L420.6 33.5C420.6 35.6 420.316 37.45 419.75 39.05C419.216 40.6833 418.55 41.9 417.75 42.7C416.116 44.4 414.683 45.3667 413.45 45.6L412.6 45.8C412.1 45.8 411.85 45.65 411.85 45.35L412.1 44.6C414.533 41.2333 415.75 32.9667 415.75 19.8C415.75 18.6 415.733 17.7 415.7 17.1C415 17.1 414.3 17.15 413.6 17.25H413.55C413.183 17.25 413 17.0667 413 16.7L413.15 14.8C413.183 14.5 413.416 14.35 413.85 14.35H415.65V11L415.75 6.25C415.75 6.01666 415.783 5.76666 415.85 5.5C415.95 5.2 416.316 4.76667 416.95 4.2C417.583 3.6 418.516 3.06666 419.75 2.6C420.983 2.1 422.033 1.85 422.9 1.85C423.8 1.85 424.25 2.11666 424.25 2.65C424.25 2.85 424.1 3.01667 423.8 3.15C422.833 3.45 422.033 4.31667 421.4 5.75C420.8 7.15 420.5 9.55 420.5 12.95V14.35C422.2 14.2833 423.316 14.2 423.85 14.1C424.083 14.1 424.2 14.3 424.2 14.7C424.2 15.1 424.016 15.6 423.65 16.2C423.316 16.7667 422.883 17.0667 422.35 17.1C421.85 17.1 421.216 17.0833 420.45 17.05C420.383 19.5833 420.35 21.7333 420.35 23.5ZM428.857 17.15C427.99 17.1833 427.357 17.2167 426.957 17.25C426.59 17.25 426.407 17.15 426.407 16.95C426.407 16.75 426.507 16.55 426.707 16.35C428.84 14.3833 432.44 13.4 437.507 13.4C439.24 13.4 440.607 13.55 441.607 13.85L442.107 14C442.507 14.1667 442.707 14.35 442.707 14.55C442.707 14.7167 442.59 14.85 442.357 14.95C441.457 15.2167 440.59 15.65 439.757 16.25C438.924 16.8167 438.507 17.2167 438.507 17.45L438.807 17.8C439.874 18.4 440.69 19.35 441.257 20.65C441.857 21.95 442.19 23.1 442.257 24.1L442.357 25.65C442.357 28.95 441.44 31.6667 439.607 33.8C437.774 35.9333 435.274 37 432.107 37C430.507 37 429.124 36.7167 427.957 36.15C426.79 35.5833 425.924 34.95 425.357 34.25C424.824 33.5167 424.39 32.7 424.057 31.8C423.657 30.5667 423.457 29.3 423.457 28C423.457 26.6667 423.674 25.3333 424.107 24C424.574 22.6667 425.09 21.6833 425.657 21.05C426.257 20.4167 426.924 19.9 427.657 19.5C428.59 19 429.34 18.75 429.907 18.75C430.474 18.75 430.757 18.8667 430.757 19.1L430.457 19.6C429.724 20.4667 429.19 21.6 428.857 23C428.557 24.4 428.407 25.65 428.407 26.75C428.407 27.8167 428.54 28.8833 428.807 29.95C429.074 31.0167 429.374 31.8167 429.707 32.35C430.04 32.85 430.424 33.2333 430.857 33.5C431.49 33.9 432.157 34.1 432.857 34.1C433.557 34.1 434.24 33.8333 434.907 33.3C435.574 32.7333 436.057 32 436.357 31.1C436.957 29.4333 437.257 27.7167 437.257 25.95C437.257 23.15 436.54 20.9833 435.107 19.45C433.707 17.9167 431.624 17.15 428.857 17.15ZM459.715 22.6L459.915 24.35C459.915 24.9833 459.315 25.3 458.115 25.3C455.682 25.3 454.465 24.3833 454.465 22.55C454.465 22.1167 454.582 21.5167 454.815 20.75C455.048 19.9833 455.165 19.3167 455.165 18.75C455.165 18.1833 454.998 17.7 454.665 17.3C454.332 16.8667 453.848 16.65 453.215 16.65C452.582 16.65 452.032 16.8833 451.565 17.35C451.132 17.7833 450.865 18.2333 450.765 18.7L450.565 19.4C450.365 20.4333 450.265 22.1667 450.265 24.6C450.265 27 450.298 28.9 450.365 30.3C450.432 31.6667 450.498 32.6167 450.565 33.15C450.632 33.65 450.665 33.95 450.665 34.05C450.665 34.8833 450.148 35.55 449.115 36.05C448.082 36.5833 447.048 36.85 446.015 36.85C444.982 36.85 444.465 36.6333 444.465 36.2L444.715 34.65C445.182 31.75 445.415 27.9667 445.415 23.3C445.415 18.6333 445.248 15.4667 444.915 13.8C444.915 13.4 445.265 13.2 445.965 13.2C447.765 13.2 448.965 13.8167 449.565 15.05C449.598 15.1833 449.648 15.25 449.715 15.25C449.815 15.25 450.048 15.1 450.415 14.8C451.515 13.9 452.815 13.45 454.315 13.45C455.248 13.45 456.182 13.6333 457.115 14C459.015 14.7667 459.965 16.3667 459.965 18.8L459.715 22.6ZM471.723 28.35C471.789 24.9833 471.823 22.2167 471.823 20.05C471.823 17.8833 471.673 15.8167 471.373 13.85C471.373 13.5167 471.706 13.35 472.373 13.35C473.039 13.35 473.606 13.4333 474.073 13.6C474.573 13.7667 474.923 13.95 475.123 14.15C475.656 14.6833 475.956 14.95 476.023 14.95C476.123 14.95 476.389 14.8 476.823 14.5C478.123 13.6667 479.556 13.25 481.123 13.25C482.723 13.25 484.106 13.65 485.273 14.45C486.473 15.25 487.323 16.3 487.823 17.6C488.723 19.8333 489.173 22.2 489.173 24.7C489.173 27.1667 488.723 29.6333 487.823 32.1C487.323 33.4333 486.589 34.5333 485.623 35.4C484.656 36.2333 483.523 36.65 482.223 36.65C479.656 36.65 478.373 35.1667 478.373 32.2C478.373 31.4 478.539 31 478.873 31C478.939 31 479.123 31.0833 479.423 31.25C479.756 31.3833 480.073 31.45 480.373 31.45C482.739 31.45 483.923 28.95 483.923 23.95C483.923 18.9167 482.656 16.4 480.123 16.4C479.423 16.4 478.823 16.5667 478.323 16.9C477.856 17.2 477.556 17.5 477.423 17.8L477.223 18.3C476.756 21.3 476.523 27.0833 476.523 35.65C476.523 39.5167 476.589 42.2833 476.723 43.95C476.889 45.65 476.973 46.6667 476.973 47C476.973 47.3333 476.873 47.6333 476.673 47.9C476.006 48.7667 475.106 49.5333 473.973 50.2C472.839 50.9 471.839 51.25 470.973 51.25C470.639 51.25 470.473 51.0333 470.473 50.6C471.006 47.2333 471.423 39.8167 471.723 28.35ZM496.533 17.15C495.666 17.1833 495.033 17.2167 494.633 17.25C494.266 17.25 494.083 17.15 494.083 16.95C494.083 16.75 494.183 16.55 494.383 16.35C496.516 14.3833 500.116 13.4 505.183 13.4C506.916 13.4 508.283 13.55 509.283 13.85L509.783 14C510.183 14.1667 510.383 14.35 510.383 14.55C510.383 14.7167 510.266 14.85 510.033 14.95C509.133 15.2167 508.266 15.65 507.433 16.25C506.599 16.8167 506.183 17.2167 506.183 17.45L506.483 17.8C507.549 18.4 508.366 19.35 508.933 20.65C509.533 21.95 509.866 23.1 509.933 24.1L510.033 25.65C510.033 28.95 509.116 31.6667 507.283 33.8C505.449 35.9333 502.949 37 499.783 37C498.183 37 496.799 36.7167 495.633 36.15C494.466 35.5833 493.599 34.95 493.033 34.25C492.499 33.5167 492.066 32.7 491.733 31.8C491.333 30.5667 491.133 29.3 491.133 28C491.133 26.6667 491.349 25.3333 491.783 24C492.249 22.6667 492.766 21.6833 493.333 21.05C493.933 20.4167 494.599 19.9 495.333 19.5C496.266 19 497.016 18.75 497.583 18.75C498.149 18.75 498.433 18.8667 498.433 19.1L498.133 19.6C497.399 20.4667 496.866 21.6 496.533 23C496.233 24.4 496.083 25.65 496.083 26.75C496.083 27.8167 496.216 28.8833 496.483 29.95C496.749 31.0167 497.049 31.8167 497.383 32.35C497.716 32.85 498.099 33.2333 498.533 33.5C499.166 33.9 499.833 34.1 500.533 34.1C501.233 34.1 501.916 33.8333 502.583 33.3C503.249 32.7333 503.733 32 504.033 31.1C504.633 29.4333 504.933 27.7167 504.933 25.95C504.933 23.15 504.216 20.9833 502.783 19.45C501.383 17.9167 499.299 17.15 496.533 17.15ZM522.629 13.55C523.229 13.55 523.762 13.6333 524.229 13.8C524.729 13.9333 524.996 14 525.029 14L525.329 13.75L525.129 8.3C525.062 7.36667 524.862 6.56667 524.529 5.9C524.196 5.23333 523.896 4.8 523.629 4.6L523.179 4.35C522.979 4.21667 522.879 4.06667 522.879 3.9C522.879 3.4 523.646 2.81667 525.179 2.15C526.746 1.48333 527.962 1.15 528.829 1.15C529.696 1.15 530.162 1.33333 530.229 1.7C530.396 2.83333 530.479 5 530.479 8.2C530.479 11.3667 530.396 14.4833 530.229 17.55C530.096 20.6167 530.029 24.1 530.029 28C530.029 31.8667 530.279 34.3 530.779 35.3C530.912 35.5333 530.979 35.75 530.979 35.95C530.979 36.45 530.262 36.7 528.829 36.7C526.096 36.7 524.729 36.05 524.729 34.75C524.662 34.2167 524.629 33.4 524.629 32.3C524.629 31.1667 524.729 29.0833 524.929 26.05C525.162 22.9833 525.279 20.6333 525.279 19C525.279 17.3333 524.446 16.5 522.779 16.5C521.146 16.5 519.896 17.4667 519.029 19.4C518.162 21.3333 517.729 23.2667 517.729 25.2C517.729 29.3 518.762 31.35 520.829 31.35C521.129 31.35 521.412 31.3 521.679 31.2C521.979 31.0667 522.162 31 522.229 31C522.496 31 522.696 31.1667 522.829 31.5C522.996 31.8333 523.079 32.1667 523.079 32.5C523.079 33.6333 522.629 34.6 521.729 35.4C520.829 36.1667 519.729 36.55 518.429 36.55C516.429 36.55 514.912 35.6833 513.879 33.95C512.879 32.1833 512.379 30 512.379 27.4C512.379 24.1 513.162 21.0333 514.729 18.2C515.529 16.8 516.612 15.6833 517.979 14.85C519.346 13.9833 520.896 13.55 522.629 13.55ZM549.584 30.25C549.584 32.15 548.818 33.7333 547.284 35C545.784 36.2333 543.984 36.85 541.884 36.85C538.818 36.85 536.568 35.9333 535.134 34.1C533.701 32.2333 532.984 29.7167 532.984 26.55C532.984 23.1833 533.734 20.2 535.234 17.6C535.968 16.2667 537.018 15.2167 538.384 14.45C539.751 13.6833 541.351 13.3 543.184 13.3C545.951 13.3 547.901 14.2333 549.034 16.1C549.501 16.8667 549.734 17.7667 549.734 18.8C549.734 20.4 549.068 21.6 547.734 22.4C547.201 22.7 546.701 22.85 546.234 22.85C545.801 22.85 545.434 22.8333 545.134 22.8C544.868 22.7333 544.501 22.5 544.034 22.1C543.568 21.7 543.334 21.15 543.334 20.45C543.368 20.0833 543.651 19.7833 544.184 19.55C544.684 19.25 544.934 18.7167 544.934 17.95C544.934 16.65 544.134 16 542.534 16C542.134 16 541.651 16.1833 541.084 16.55C540.551 16.8833 540.101 17.3333 539.734 17.9C539.368 18.4333 539.018 19.3 538.684 20.5C538.384 21.6667 538.234 22.8 538.234 23.9C538.234 24.9667 538.268 25.7833 538.334 26.35C538.434 26.8833 538.618 27.6333 538.884 28.6C539.184 29.5333 539.718 30.3 540.484 30.9C541.284 31.5 542.268 31.8 543.434 31.8C544.834 31.8 546.068 31.2167 547.134 30.05C547.568 29.5833 547.918 29.0167 548.184 28.35C548.318 28.0833 548.484 27.95 548.684 27.95C548.984 27.95 549.201 28.2333 549.334 28.8C549.501 29.3333 549.584 29.8167 549.584 30.25ZM568.929 21L568.829 27.4C568.829 31.8333 569.312 34.5 570.279 35.4C570.412 35.5333 570.479 35.6833 570.479 35.85C570.479 36.35 569.395 36.6 567.229 36.6C565.095 36.6 563.962 35.9667 563.829 34.7C563.795 34.4 563.779 33.7833 563.779 32.85L563.979 24.85C563.979 24.6167 563.845 24.5 563.579 24.5C561.979 24.5 560.479 24.95 559.079 25.85C557.679 26.75 556.979 27.9 556.979 29.3C556.979 30.0333 557.179 30.65 557.579 31.15C557.979 31.65 558.462 31.9 559.029 31.9C559.629 31.9 560.112 31.7833 560.479 31.55C560.879 31.3167 561.112 31.1833 561.179 31.15C561.745 31.2167 562.029 31.8167 562.029 32.95C562.029 34.05 561.512 34.95 560.479 35.65C559.445 36.3167 558.362 36.65 557.229 36.65C556.095 36.65 555.112 36.45 554.279 36.05C553.479 35.65 552.895 35.2 552.529 34.7C552.162 34.2 551.862 33.6333 551.629 33C551.395 32.2333 551.279 31.5667 551.279 31C551.279 28.6667 552.012 26.8 553.479 25.4C554.945 24 556.829 23 559.129 22.4C562.162 21.8 563.745 21.25 563.879 20.75C563.979 20.3833 564.029 19.7667 564.029 18.9C564.029 17.1333 563.129 16.25 561.329 16.25C560.562 16.25 559.879 16.5 559.279 17C558.679 17.4667 558.379 18.0667 558.379 18.8L558.679 20C558.612 20.5667 558.012 20.9 556.879 21L556.329 21.05C555.329 21.05 554.529 20.8 553.929 20.3C553.362 19.8 553.079 19.1333 553.079 18.3C553.079 17.7667 553.245 17.1833 553.579 16.55C553.945 15.8833 554.395 15.35 554.929 14.95C555.462 14.55 556.279 14.2 557.379 13.9C558.512 13.5667 559.595 13.4 560.629 13.4C561.662 13.4 562.462 13.4333 563.029 13.5C563.595 13.5667 564.362 13.7333 565.329 14C566.329 14.2333 567.145 14.7 567.779 15.4C568.445 16.1 568.795 16.85 568.829 17.65C568.895 18.4167 568.929 19.5333 568.929 21ZM587.155 29.15C587.155 30.5833 586.872 31.8333 586.305 32.9C585.772 33.9667 585.155 34.75 584.455 35.25C583.755 35.75 582.922 36.15 581.955 36.45C580.688 36.85 579.538 37.05 578.505 37.05C576.338 37.05 574.538 36.6333 573.105 35.8C571.672 34.9333 570.955 33.5667 570.955 31.7C570.955 30.6 571.255 29.7 571.855 29C572.788 27.9667 573.905 27.45 575.205 27.45C575.605 27.45 575.805 27.6333 575.805 28C575.805 28.0333 575.722 28.3 575.555 28.8C575.422 29.2667 575.355 29.8667 575.355 30.6C575.355 31.3333 575.638 31.9833 576.205 32.55C576.805 33.1167 577.522 33.4 578.355 33.4C579.188 33.4 579.855 33.2667 580.355 33C580.855 32.7 581.205 32.3333 581.405 31.9C581.705 31.3 581.855 30.7333 581.855 30.2C581.855 29.2333 581.372 28.4 580.405 27.7C579.438 27 578.372 26.45 577.205 26.05C576.038 25.65 574.972 24.9833 574.005 24.05C573.038 23.1167 572.555 21.95 572.555 20.55C572.555 18.15 573.305 16.35 574.805 15.15C576.338 13.95 578.405 13.35 581.005 13.35C582.138 13.35 583.322 13.5167 584.555 13.85C585.822 14.15 586.455 14.6833 586.455 15.45C586.455 16.1833 586.322 16.8667 586.055 17.5C585.822 18.1333 585.522 18.45 585.155 18.45C584.955 18.45 584.822 18.3833 584.755 18.25C584.688 18.0833 584.572 17.9 584.405 17.7C584.238 17.5 583.838 17.25 583.205 16.95C582.572 16.6167 582.022 16.45 581.555 16.45C581.122 16.45 580.822 16.4667 580.655 16.5C580.522 16.5 580.272 16.55 579.905 16.65C579.538 16.7167 579.205 16.8333 578.905 17C578.138 17.4333 577.755 18.0667 577.755 18.9C577.755 19.4333 577.872 19.8333 578.105 20.1C578.338 20.3333 578.522 20.5167 578.655 20.65C578.788 20.7833 579.022 20.95 579.355 21.15C579.688 21.3167 579.922 21.4333 580.055 21.5C580.188 21.5667 580.488 21.7167 580.955 21.95C581.422 22.15 581.722 22.2833 581.855 22.35C585.388 24.0167 587.155 26.2833 587.155 29.15ZM588.393 16.5L588.543 14.5C588.576 14.2 588.809 14.05 589.243 14.05H590.993L590.793 10.05V9.85C590.793 9.08333 591.376 8.35 592.543 7.65C593.709 6.95 594.776 6.6 595.743 6.6C596.043 6.6 596.193 6.73333 596.193 7V7.05C596.059 7.95 595.926 10.2667 595.793 14C597.259 14 598.193 13.9667 598.593 13.9C598.993 13.8333 599.209 13.8 599.243 13.8C599.476 13.8 599.593 14 599.593 14.4C599.593 14.8 599.409 15.3167 599.043 15.95C598.676 16.55 598.276 16.8667 597.843 16.9H595.743C595.709 18.0333 595.693 19.95 595.693 22.65C595.693 25.3167 595.709 27.5167 595.743 29.25C595.809 30.9833 595.876 32.3 595.943 33.2C596.009 34.0667 596.076 34.7667 596.143 35.3C596.243 35.8333 596.309 36.2167 596.343 36.45C596.409 36.6833 596.443 36.8333 596.443 36.9C596.443 37.2333 596.226 37.4167 595.793 37.45C594.493 37.45 593.193 37.2667 591.893 36.9C590.626 36.5333 589.993 35.9 589.993 35C590.693 29.4 591.043 23.3833 591.043 16.95C590.143 16.95 589.459 16.9833 588.993 17.05H588.943C588.643 17.05 588.459 16.8667 588.393 16.5ZM604.586 23.3L604.636 24.55C604.636 24.75 604.769 24.85 605.036 24.85C606.103 24.75 607.036 24.4833 607.836 24.05C608.636 23.5833 609.236 23.0667 609.636 22.5C610.436 21.2667 610.869 20.2 610.936 19.3L610.986 18.7C610.986 16.9 610.269 16 608.836 16C607.769 16 606.903 16.4667 606.236 17.4C605.136 18.8667 604.586 20.8333 604.586 23.3ZM615.486 29.95C615.486 31.2167 615.219 32.3333 614.686 33.3C614.186 34.2333 613.603 34.9333 612.936 35.4C612.303 35.8333 611.553 36.1833 610.686 36.45C609.586 36.7833 608.536 36.95 607.536 36.95C604.736 36.95 602.669 35.9 601.336 33.8C600.003 31.7 599.336 29.0333 599.336 25.8C599.336 22.5333 600.153 19.6333 601.786 17.1C603.453 14.5667 605.936 13.3 609.236 13.3C612.236 13.3 614.269 14.35 615.336 16.45C615.769 17.25 615.986 18.0167 615.986 18.75C615.986 19.45 615.953 20.0167 615.886 20.45C615.819 20.85 615.586 21.4667 615.186 22.3C614.786 23.1333 614.253 23.8833 613.586 24.55C612.919 25.2167 611.869 25.85 610.436 26.45C609.003 27.05 607.319 27.45 605.386 27.65C605.119 27.65 604.986 27.7667 604.986 28C604.986 28.3 605.086 28.75 605.286 29.35C605.519 29.9167 605.769 30.4 606.036 30.8C606.769 31.7333 607.853 32.2 609.286 32.2C610.719 32.2 611.936 31.7333 612.936 30.8C613.469 30.3 613.903 29.6833 614.236 28.95C614.369 28.6833 614.536 28.55 614.736 28.55C614.969 28.55 615.153 28.7333 615.286 29.1C615.419 29.4667 615.486 29.75 615.486 29.95ZM633.006 22.6L633.206 24.35C633.206 24.9833 632.606 25.3 631.406 25.3C628.973 25.3 627.756 24.3833 627.756 22.55C627.756 22.1167 627.873 21.5167 628.106 20.75C628.339 19.9833 628.456 19.3167 628.456 18.75C628.456 18.1833 628.289 17.7 627.956 17.3C627.623 16.8667 627.139 16.65 626.506 16.65C625.873 16.65 625.323 16.8833 624.856 17.35C624.423 17.7833 624.156 18.2333 624.056 18.7L623.856 19.4C623.656 20.4333 623.556 22.1667 623.556 24.6C623.556 27 623.589 28.9 623.656 30.3C623.723 31.6667 623.789 32.6167 623.856 33.15C623.923 33.65 623.956 33.95 623.956 34.05C623.956 34.8833 623.439 35.55 622.406 36.05C621.373 36.5833 620.339 36.85 619.306 36.85C618.273 36.85 617.756 36.6333 617.756 36.2L618.006 34.65C618.473 31.75 618.706 27.9667 618.706 23.3C618.706 18.6333 618.539 15.4667 618.206 13.8C618.206 13.4 618.556 13.2 619.256 13.2C621.056 13.2 622.256 13.8167 622.856 15.05C622.889 15.1833 622.939 15.25 623.006 15.25C623.106 15.25 623.339 15.1 623.706 14.8C624.806 13.9 626.106 13.45 627.606 13.45C628.539 13.45 629.473 13.6333 630.406 14C632.306 14.7667 633.256 16.3667 633.256 18.8L633.006 22.6ZM643.764 16.5L643.914 14.5C643.947 14.2 644.18 14.05 644.614 14.05H646.364L646.164 10.05V9.85C646.164 9.08333 646.747 8.35 647.914 7.65C649.08 6.95 650.147 6.6 651.114 6.6C651.414 6.6 651.564 6.73333 651.564 7V7.05C651.43 7.95 651.297 10.2667 651.164 14C652.63 14 653.564 13.9667 653.964 13.9C654.364 13.8333 654.58 13.8 654.614 13.8C654.847 13.8 654.964 14 654.964 14.4C654.964 14.8 654.78 15.3167 654.414 15.95C654.047 16.55 653.647 16.8667 653.214 16.9H651.114C651.08 18.0333 651.064 19.95 651.064 22.65C651.064 25.3167 651.08 27.5167 651.114 29.25C651.18 30.9833 651.247 32.3 651.314 33.2C651.38 34.0667 651.447 34.7667 651.514 35.3C651.614 35.8333 651.68 36.2167 651.714 36.45C651.78 36.6833 651.814 36.8333 651.814 36.9C651.814 37.2333 651.597 37.4167 651.164 37.45C649.864 37.45 648.564 37.2667 647.264 36.9C645.997 36.5333 645.364 35.9 645.364 35C646.064 29.4 646.414 23.3833 646.414 16.95C645.514 16.95 644.83 16.9833 644.364 17.05H644.314C644.014 17.05 643.83 16.8667 643.764 16.5ZM660.595 17.15C659.729 17.1833 659.095 17.2167 658.695 17.25C658.329 17.25 658.145 17.15 658.145 16.95C658.145 16.75 658.245 16.55 658.445 16.35C660.579 14.3833 664.179 13.4 669.245 13.4C670.979 13.4 672.345 13.55 673.345 13.85L673.845 14C674.245 14.1667 674.445 14.35 674.445 14.55C674.445 14.7167 674.329 14.85 674.095 14.95C673.195 15.2167 672.329 15.65 671.495 16.25C670.662 16.8167 670.245 17.2167 670.245 17.45L670.545 17.8C671.612 18.4 672.429 19.35 672.995 20.65C673.595 21.95 673.929 23.1 673.995 24.1L674.095 25.65C674.095 28.95 673.179 31.6667 671.345 33.8C669.512 35.9333 667.012 37 663.845 37C662.245 37 660.862 36.7167 659.695 36.15C658.529 35.5833 657.662 34.95 657.095 34.25C656.562 33.5167 656.129 32.7 655.795 31.8C655.395 30.5667 655.195 29.3 655.195 28C655.195 26.6667 655.412 25.3333 655.845 24C656.312 22.6667 656.829 21.6833 657.395 21.05C657.995 20.4167 658.662 19.9 659.395 19.5C660.329 19 661.079 18.75 661.645 18.75C662.212 18.75 662.495 18.8667 662.495 19.1L662.195 19.6C661.462 20.4667 660.929 21.6 660.595 23C660.295 24.4 660.145 25.65 660.145 26.75C660.145 27.8167 660.279 28.8833 660.545 29.95C660.812 31.0167 661.112 31.8167 661.445 32.35C661.779 32.85 662.162 33.2333 662.595 33.5C663.229 33.9 663.895 34.1 664.595 34.1C665.295 34.1 665.979 33.8333 666.645 33.3C667.312 32.7333 667.795 32 668.095 31.1C668.695 29.4333 668.995 27.7167 668.995 25.95C668.995 23.15 668.279 20.9833 666.845 19.45C665.445 17.9167 663.362 17.15 660.595 17.15ZM690.426 23.3L690.476 24.55C690.476 24.75 690.609 24.85 690.876 24.85C691.942 24.75 692.876 24.4833 693.676 24.05C694.476 23.5833 695.076 23.0667 695.476 22.5C696.276 21.2667 696.709 20.2 696.776 19.3L696.826 18.7C696.826 16.9 696.109 16 694.676 16C693.609 16 692.742 16.4667 692.076 17.4C690.976 18.8667 690.426 20.8333 690.426 23.3ZM701.326 29.95C701.326 31.2167 701.059 32.3333 700.526 33.3C700.026 34.2333 699.442 34.9333 698.776 35.4C698.142 35.8333 697.392 36.1833 696.526 36.45C695.426 36.7833 694.376 36.95 693.376 36.95C690.576 36.95 688.509 35.9 687.176 33.8C685.842 31.7 685.176 29.0333 685.176 25.8C685.176 22.5333 685.992 19.6333 687.626 17.1C689.292 14.5667 691.776 13.3 695.076 13.3C698.076 13.3 700.109 14.35 701.176 16.45C701.609 17.25 701.826 18.0167 701.826 18.75C701.826 19.45 701.792 20.0167 701.726 20.45C701.659 20.85 701.426 21.4667 701.026 22.3C700.626 23.1333 700.092 23.8833 699.426 24.55C698.759 25.2167 697.709 25.85 696.276 26.45C694.842 27.05 693.159 27.45 691.226 27.65C690.959 27.65 690.826 27.7667 690.826 28C690.826 28.3 690.926 28.75 691.126 29.35C691.359 29.9167 691.609 30.4 691.876 30.8C692.609 31.7333 693.692 32.2 695.126 32.2C696.559 32.2 697.776 31.7333 698.776 30.8C699.309 30.3 699.742 29.6833 700.076 28.95C700.209 28.6833 700.376 28.55 700.576 28.55C700.809 28.55 700.992 28.7333 701.126 29.1C701.259 29.4667 701.326 29.75 701.326 29.95ZM720.1 21L720 27.4C720 31.8333 720.484 34.5 721.45 35.4C721.584 35.5333 721.65 35.6833 721.65 35.85C721.65 36.35 720.567 36.6 718.4 36.6C716.267 36.6 715.134 35.9667 715 34.7C714.967 34.4 714.95 33.7833 714.95 32.85L715.15 24.85C715.15 24.6167 715.017 24.5 714.75 24.5C713.15 24.5 711.65 24.95 710.25 25.85C708.85 26.75 708.15 27.9 708.15 29.3C708.15 30.0333 708.35 30.65 708.75 31.15C709.15 31.65 709.634 31.9 710.2 31.9C710.8 31.9 711.284 31.7833 711.65 31.55C712.05 31.3167 712.284 31.1833 712.35 31.15C712.917 31.2167 713.2 31.8167 713.2 32.95C713.2 34.05 712.684 34.95 711.65 35.65C710.617 36.3167 709.534 36.65 708.4 36.65C707.267 36.65 706.284 36.45 705.45 36.05C704.65 35.65 704.067 35.2 703.7 34.7C703.334 34.2 703.034 33.6333 702.8 33C702.567 32.2333 702.45 31.5667 702.45 31C702.45 28.6667 703.184 26.8 704.65 25.4C706.117 24 708 23 710.3 22.4C713.334 21.8 714.917 21.25 715.05 20.75C715.15 20.3833 715.2 19.7667 715.2 18.9C715.2 17.1333 714.3 16.25 712.5 16.25C711.734 16.25 711.05 16.5 710.45 17C709.85 17.4667 709.55 18.0667 709.55 18.8L709.85 20C709.784 20.5667 709.184 20.9 708.05 21L707.5 21.05C706.5 21.05 705.7 20.8 705.1 20.3C704.534 19.8 704.25 19.1333 704.25 18.3C704.25 17.7667 704.417 17.1833 704.75 16.55C705.117 15.8833 705.567 15.35 706.1 14.95C706.634 14.55 707.45 14.2 708.55 13.9C709.684 13.5667 710.767 13.4 711.8 13.4C712.834 13.4 713.634 13.4333 714.2 13.5C714.767 13.5667 715.534 13.7333 716.5 14C717.5 14.2333 718.317 14.7 718.95 15.4C719.617 16.1 719.967 16.85 720 17.65C720.067 18.4167 720.1 19.5333 720.1 21ZM738.377 22.6L738.577 24.35C738.577 24.9833 737.977 25.3 736.777 25.3C734.344 25.3 733.127 24.3833 733.127 22.55C733.127 22.1167 733.244 21.5167 733.477 20.75C733.71 19.9833 733.827 19.3167 733.827 18.75C733.827 18.1833 733.66 17.7 733.327 17.3C732.994 16.8667 732.51 16.65 731.877 16.65C731.244 16.65 730.694 16.8833 730.227 17.35C729.794 17.7833 729.527 18.2333 729.427 18.7L729.227 19.4C729.027 20.4333 728.927 22.1667 728.927 24.6C728.927 27 728.96 28.9 729.027 30.3C729.094 31.6667 729.16 32.6167 729.227 33.15C729.294 33.65 729.327 33.95 729.327 34.05C729.327 34.8833 728.81 35.55 727.777 36.05C726.744 36.5833 725.71 36.85 724.677 36.85C723.644 36.85 723.127 36.6333 723.127 36.2L723.377 34.65C723.844 31.75 724.077 27.9667 724.077 23.3C724.077 18.6333 723.91 15.4667 723.577 13.8C723.577 13.4 723.927 13.2 724.627 13.2C726.427 13.2 727.627 13.8167 728.227 15.05C728.26 15.1833 728.31 15.25 728.377 15.25C728.477 15.25 728.71 15.1 729.077 14.8C730.177 13.9 731.477 13.45 732.977 13.45C733.91 13.45 734.844 13.6333 735.777 14C737.677 14.7667 738.627 16.3667 738.627 18.8L738.377 22.6ZM740.9 36.35C741.5 32.75 741.8 28.4333 741.8 23.4C741.8 18.3667 741.65 15.1 741.35 13.6C741.35 13.1667 741.85 12.95 742.85 12.95C744.384 12.95 745.4 13.5333 745.9 14.7C745.934 14.8 746.017 14.85 746.15 14.85C746.284 14.85 746.384 14.8167 746.45 14.75C747.484 13.6833 749.084 13.15 751.25 13.15C753.417 13.15 755.134 13.7 756.4 14.8C757.667 15.9 758.3 17.5 758.3 19.6C758.3 20.8667 758.184 22.6667 757.95 25C757.75 27.3333 757.65 29.0667 757.65 30.2C757.65 32.9 758.1 34.85 759 36.05C759.134 36.2167 759.2 36.3833 759.2 36.55C759.2 36.9833 758.734 37.2 757.8 37.2C753.667 37.2 751.6 35.3667 751.6 31.7C751.6 30.3 751.917 28.35 752.55 25.85C753.184 23.35 753.5 21.45 753.5 20.15C753.5 17.4833 752.4 16.15 750.2 16.15C749.134 16.15 748.317 16.4667 747.75 17.1C747.217 17.7333 746.917 18.4667 746.85 19.3C746.784 20.1 746.75 21.6333 746.75 23.9C746.75 27.3667 746.867 30.3833 747.1 32.95L747.2 34.05C747.2 34.9833 746.584 35.7 745.35 36.2C744.15 36.7333 743.1 37 742.2 37C741.334 37 740.9 36.7833 740.9 36.35Z" fill="#113A2D"/>
</svg>
