<svg width="636" height="53" viewBox="0 0 636 53" fill="none" xmlns="http://www.w3.org/2000/svg">
<path d="M15.0904 36.95L12.2404 36.9C11.8404 36.9 11.4404 36.9 11.0404 36.9L1.94043 37.35C1.44043 37.35 1.19043 37.1833 1.19043 36.85C1.19043 36.75 1.24043 36.5167 1.34043 36.15C1.67376 35.3833 1.9071 32.95 2.04043 28.85C2.2071 24.75 2.29043 21.0167 2.29043 17.65C2.29043 14.25 2.22376 11.5 2.09043 9.4C1.89043 6.23333 1.5571 4.33333 1.09043 3.7C0.723763 3.23333 0.54043 2.93333 0.54043 2.8C0.54043 2.26666 1.44043 1.8 3.24043 1.4C5.04043 0.999999 6.32376 0.799998 7.09043 0.799998C7.89043 0.799998 8.39043 0.849999 8.59043 0.949999C8.79043 1.01667 8.89043 1.18333 8.89043 1.45C8.89043 1.71667 8.82376 2.56667 8.69043 4C8.3571 8.23333 8.19043 13.1667 8.19043 18.8C8.19043 24.4 8.32376 28.8833 8.59043 32.25C8.59043 32.6167 8.9071 32.9333 9.54043 33.2C10.1738 33.4667 10.9571 33.6 11.8904 33.6C15.1571 33.6 16.7904 31.0833 16.7904 26.05C16.7904 24.65 16.7071 23.7833 16.5404 23.45C16.4071 23.1167 16.3404 22.9 16.3404 22.8C16.3404 22.4667 16.5738 22.3 17.0404 22.3C17.4071 22.3 17.8904 22.4833 18.4904 22.85C19.1238 23.2167 19.6404 23.6833 20.0404 24.25C20.4404 24.7833 20.8071 25.65 21.1404 26.85C21.4738 28.0167 21.6404 29.4 21.6404 31C21.6404 34.9667 21.1571 36.95 20.1904 36.95C18.4904 36.95 16.7904 36.95 15.0904 36.95ZM28.6549 10.25L27.4549 10.2C26.5549 10.2 25.9715 10.4167 25.7049 10.85C25.6382 10.95 25.5549 11 25.4549 11C25.0215 11 24.8049 10.2667 24.8049 8.8C24.8049 7.3 25.0215 6.35 25.4549 5.95C25.9215 5.55 26.7049 5.35 27.8049 5.35C28.9382 5.35 29.7049 5.55 30.1049 5.95C30.5049 6.31667 30.7049 6.95 30.7049 7.85C30.7049 8.75 30.5549 9.38333 30.2549 9.75C29.9549 10.0833 29.4215 10.25 28.6549 10.25ZM24.6549 35.5L25.2049 23.85C25.2049 21.0833 24.8882 19.2 24.2549 18.2C24.0549 17.8667 23.8215 17.6167 23.5549 17.45C23.3549 17.3833 23.2549 17.25 23.2549 17.05C23.2549 16.45 24.1049 15.8667 25.8049 15.3C27.5049 14.7333 28.7382 14.45 29.5049 14.45C30.3049 14.45 30.7216 14.65 30.7549 15.05C30.7549 15.7167 30.6549 17.6167 30.4549 20.75C30.2882 23.85 30.2049 27.1167 30.2049 30.55C30.2049 33.9833 30.4049 36.1167 30.8049 36.95C30.9049 37.1167 30.9549 37.2833 30.9549 37.45C30.9549 37.8833 30.3215 38.1 29.0549 38.1C27.7882 38.1 26.4882 37.7667 25.1549 37.1C24.8215 36.9333 24.6549 36.4 24.6549 35.5ZM49.2029 30.15C49.2029 31.5833 48.9196 32.8333 48.3529 33.9C47.8196 34.9667 47.2029 35.75 46.5029 36.25C45.8029 36.75 44.9696 37.15 44.0029 37.45C42.7363 37.85 41.5863 38.05 40.5529 38.05C38.3863 38.05 36.5863 37.6333 35.1529 36.8C33.7196 35.9333 33.0029 34.5667 33.0029 32.7C33.0029 31.6 33.3029 30.7 33.9029 30C34.8363 28.9667 35.9529 28.45 37.2529 28.45C37.6529 28.45 37.8529 28.6333 37.8529 29C37.8529 29.0333 37.7696 29.3 37.6029 29.8C37.4696 30.2667 37.4029 30.8667 37.4029 31.6C37.4029 32.3333 37.6863 32.9833 38.2529 33.55C38.8529 34.1167 39.5696 34.4 40.4029 34.4C41.2363 34.4 41.9029 34.2667 42.4029 34C42.9029 33.7 43.2529 33.3333 43.4529 32.9C43.7529 32.3 43.9029 31.7333 43.9029 31.2C43.9029 30.2333 43.4196 29.4 42.4529 28.7C41.4863 28 40.4196 27.45 39.2529 27.05C38.0863 26.65 37.0196 25.9833 36.0529 25.05C35.0863 24.1167 34.6029 22.95 34.6029 21.55C34.6029 19.15 35.3529 17.35 36.8529 16.15C38.3863 14.95 40.4529 14.35 43.0529 14.35C44.1863 14.35 45.3696 14.5167 46.6029 14.85C47.8696 15.15 48.5029 15.6833 48.5029 16.45C48.5029 17.1833 48.3696 17.8667 48.1029 18.5C47.8696 19.1333 47.5696 19.45 47.2029 19.45C47.0029 19.45 46.8696 19.3833 46.8029 19.25C46.7363 19.0833 46.6196 18.9 46.4529 18.7C46.2863 18.5 45.8863 18.25 45.2529 17.95C44.6196 17.6167 44.0696 17.45 43.6029 17.45C43.1696 17.45 42.8696 17.4667 42.7029 17.5C42.5696 17.5 42.3196 17.55 41.9529 17.65C41.5863 17.7167 41.2529 17.8333 40.9529 18C40.1863 18.4333 39.8029 19.0667 39.8029 19.9C39.8029 20.4333 39.9196 20.8333 40.1529 21.1C40.3863 21.3333 40.5696 21.5167 40.7029 21.65C40.8363 21.7833 41.0696 21.95 41.4029 22.15C41.7363 22.3167 41.9696 22.4333 42.1029 22.5C42.2363 22.5667 42.5363 22.7167 43.0029 22.95C43.4696 23.15 43.7696 23.2833 43.9029 23.35C47.4363 25.0167 49.2029 27.2833 49.2029 30.15ZM50.4404 17.5L50.5904 15.5C50.6238 15.2 50.8571 15.05 51.2904 15.05H53.0404L52.8404 11.05V10.85C52.8404 10.0833 53.4238 9.35 54.5904 8.65C55.7571 7.95 56.8238 7.6 57.7904 7.6C58.0904 7.6 58.2404 7.73333 58.2404 8V8.05C58.1071 8.95 57.9738 11.2667 57.8404 15C59.3071 15 60.2404 14.9667 60.6404 14.9C61.0404 14.8333 61.2571 14.8 61.2904 14.8C61.5238 14.8 61.6404 15 61.6404 15.4C61.6404 15.8 61.4571 16.3167 61.0904 16.95C60.7238 17.55 60.3238 17.8667 59.8904 17.9H57.7904C57.7571 19.0333 57.7404 20.95 57.7404 23.65C57.7404 26.3167 57.7571 28.5167 57.7904 30.25C57.8571 31.9833 57.9238 33.3 57.9904 34.2C58.0571 35.0667 58.1238 35.7667 58.1904 36.3C58.2904 36.8333 58.3571 37.2167 58.3904 37.45C58.4571 37.6833 58.4904 37.8333 58.4904 37.9C58.4904 38.2333 58.2738 38.4167 57.8404 38.45C56.5404 38.45 55.2404 38.2667 53.9404 37.9C52.6738 37.5333 52.0404 36.9 52.0404 36C52.7404 30.4 53.0904 24.3833 53.0904 17.95C52.1904 17.95 51.5071 17.9833 51.0404 18.05H50.9904C50.6904 18.05 50.5071 17.8667 50.4404 17.5ZM66.6338 24.3L66.6838 25.55C66.6838 25.75 66.8171 25.85 67.0838 25.85C68.1505 25.75 69.0838 25.4833 69.8838 25.05C70.6838 24.5833 71.2838 24.0667 71.6838 23.5C72.4838 22.2667 72.9171 21.2 72.9838 20.3L73.0338 19.7C73.0338 17.9 72.3171 17 70.8838 17C69.8171 17 68.9505 17.4667 68.2838 18.4C67.1838 19.8667 66.6338 21.8333 66.6338 24.3ZM77.5338 30.95C77.5338 32.2167 77.2671 33.3333 76.7338 34.3C76.2338 35.2333 75.6505 35.9333 74.9838 36.4C74.3505 36.8333 73.6005 37.1833 72.7338 37.45C71.6338 37.7833 70.5838 37.95 69.5838 37.95C66.7838 37.95 64.7171 36.9 63.3838 34.8C62.0505 32.7 61.3838 30.0333 61.3838 26.8C61.3838 23.5333 62.2005 20.6333 63.8338 18.1C65.5005 15.5667 67.9838 14.3 71.2838 14.3C74.2838 14.3 76.3171 15.35 77.3838 17.45C77.8171 18.25 78.0338 19.0167 78.0338 19.75C78.0338 20.45 78.0005 21.0167 77.9338 21.45C77.8671 21.85 77.6338 22.4667 77.2338 23.3C76.8338 24.1333 76.3005 24.8833 75.6338 25.55C74.9671 26.2167 73.9171 26.85 72.4838 27.45C71.0505 28.05 69.3671 28.45 67.4338 28.65C67.1671 28.65 67.0338 28.7667 67.0338 29C67.0338 29.3 67.1338 29.75 67.3338 30.35C67.5671 30.9167 67.8171 31.4 68.0838 31.8C68.8171 32.7333 69.9005 33.2 71.3338 33.2C72.7671 33.2 73.9838 32.7333 74.9838 31.8C75.5171 31.3 75.9505 30.6833 76.2838 29.95C76.4171 29.6833 76.5838 29.55 76.7838 29.55C77.0171 29.55 77.2005 29.7333 77.3338 30.1C77.4671 30.4667 77.5338 30.75 77.5338 30.95ZM80.292 37.35C80.892 33.75 81.192 29.4333 81.192 24.4C81.192 19.3667 81.042 16.1 80.742 14.6C80.742 14.1667 81.242 13.95 82.242 13.95C83.7753 13.95 84.792 14.5333 85.292 15.7C85.3253 15.8 85.4087 15.85 85.542 15.85C85.6753 15.85 85.7753 15.8167 85.842 15.75C86.8753 14.6833 88.4753 14.15 90.642 14.15C92.8087 14.15 94.5253 14.7 95.792 15.8C97.0587 16.9 97.692 18.5 97.692 20.6C97.692 21.8667 97.5753 23.6667 97.342 26C97.142 28.3333 97.042 30.0667 97.042 31.2C97.042 33.9 97.492 35.85 98.392 37.05C98.5253 37.2167 98.592 37.3833 98.592 37.55C98.592 37.9833 98.1253 38.2 97.192 38.2C93.0587 38.2 90.992 36.3667 90.992 32.7C90.992 31.3 91.3087 29.35 91.942 26.85C92.5753 24.35 92.892 22.45 92.892 21.15C92.892 18.4833 91.792 17.15 89.592 17.15C88.5253 17.15 87.7087 17.4667 87.142 18.1C86.6087 18.7333 86.3087 19.4667 86.242 20.3C86.1753 21.1 86.142 22.6333 86.142 24.9C86.142 28.3667 86.2587 31.3833 86.492 33.95L86.592 35.05C86.592 35.9833 85.9753 36.7 84.742 37.2C83.542 37.7333 82.492 38 81.592 38C80.7253 38 80.292 37.7833 80.292 37.35ZM108.497 17.5L108.647 15.5C108.68 15.2 108.914 15.05 109.347 15.05H111.097L110.897 11.05V10.85C110.897 10.0833 111.48 9.35 112.647 8.65C113.814 7.95 114.88 7.6 115.847 7.6C116.147 7.6 116.297 7.73333 116.297 8V8.05C116.164 8.95 116.03 11.2667 115.897 15C117.364 15 118.297 14.9667 118.697 14.9C119.097 14.8333 119.314 14.8 119.347 14.8C119.58 14.8 119.697 15 119.697 15.4C119.697 15.8 119.514 16.3167 119.147 16.95C118.78 17.55 118.38 17.8667 117.947 17.9H115.847C115.814 19.0333 115.797 20.95 115.797 23.65C115.797 26.3167 115.814 28.5167 115.847 30.25C115.914 31.9833 115.98 33.3 116.047 34.2C116.114 35.0667 116.18 35.7667 116.247 36.3C116.347 36.8333 116.414 37.2167 116.447 37.45C116.514 37.6833 116.547 37.8333 116.547 37.9C116.547 38.2333 116.33 38.4167 115.897 38.45C114.597 38.45 113.297 38.2667 111.997 37.9C110.73 37.5333 110.097 36.9 110.097 36C110.797 30.4 111.147 24.3833 111.147 17.95C110.247 17.95 109.564 17.9833 109.097 18.05H109.047C108.747 18.05 108.564 17.8667 108.497 17.5ZM126.879 10.15L126.829 15C126.829 15.2 126.895 15.3 127.029 15.3C127.162 15.3 127.295 15.25 127.429 15.15C128.262 14.5833 129.579 14.3 131.379 14.3C134.412 14.3 136.512 15.3333 137.679 17.4C138.112 18.1667 138.329 19.1833 138.329 20.45C138.329 21.7167 138.245 23.4667 138.079 25.7C137.945 27.9333 137.879 29.5167 137.879 30.45C137.879 33.7167 138.345 35.8833 139.279 36.95C139.445 37.1167 139.529 37.2833 139.529 37.45C139.529 37.7833 138.812 37.95 137.379 37.95C133.512 37.95 131.579 36.15 131.579 32.55C131.579 31.15 131.912 29.1833 132.579 26.65C133.245 24.1167 133.579 22.25 133.579 21.05C133.579 19.85 133.295 18.9333 132.729 18.3C132.162 17.6333 131.379 17.3 130.379 17.3C129.379 17.3 128.579 17.5167 127.979 17.95C127.412 18.3833 127.062 18.8333 126.929 19.3L126.779 19.95C126.745 20.5833 126.729 22.6 126.729 26C126.729 29.4 126.812 31.6167 126.979 32.65C127.145 33.65 127.229 34.2167 127.229 34.35C127.229 35.3167 126.579 36.1833 125.279 36.95C123.979 37.6833 122.695 38.05 121.429 38.05C120.962 38.05 120.729 37.7833 120.729 37.25L120.829 36.3C121.562 30.7 121.929 24.6333 121.929 18.1C121.929 15.5667 121.829 13 121.629 10.4L121.579 9.3C121.512 8.36667 121.312 7.56667 120.979 6.9C120.679 6.23333 120.395 5.8 120.129 5.6L119.679 5.35C119.445 5.21667 119.329 5.06667 119.329 4.9C119.329 4.43333 120.112 3.86667 121.679 3.2C123.245 2.5 124.445 2.15 125.279 2.15C126.145 2.15 126.612 2.33333 126.679 2.7C126.812 4.4 126.879 6.88333 126.879 10.15ZM145.784 24.3L145.834 25.55C145.834 25.75 145.968 25.85 146.234 25.85C147.301 25.75 148.234 25.4833 149.034 25.05C149.834 24.5833 150.434 24.0667 150.834 23.5C151.634 22.2667 152.068 21.2 152.134 20.3L152.184 19.7C152.184 17.9 151.468 17 150.034 17C148.968 17 148.101 17.4667 147.434 18.4C146.334 19.8667 145.784 21.8333 145.784 24.3ZM156.684 30.95C156.684 32.2167 156.418 33.3333 155.884 34.3C155.384 35.2333 154.801 35.9333 154.134 36.4C153.501 36.8333 152.751 37.1833 151.884 37.45C150.784 37.7833 149.734 37.95 148.734 37.95C145.934 37.95 143.868 36.9 142.534 34.8C141.201 32.7 140.534 30.0333 140.534 26.8C140.534 23.5333 141.351 20.6333 142.984 18.1C144.651 15.5667 147.134 14.3 150.434 14.3C153.434 14.3 155.468 15.35 156.534 17.45C156.968 18.25 157.184 19.0167 157.184 19.75C157.184 20.45 157.151 21.0167 157.084 21.45C157.018 21.85 156.784 22.4667 156.384 23.3C155.984 24.1333 155.451 24.8833 154.784 25.55C154.118 26.2167 153.068 26.85 151.634 27.45C150.201 28.05 148.518 28.45 146.584 28.65C146.318 28.65 146.184 28.7667 146.184 29C146.184 29.3 146.284 29.75 146.484 30.35C146.718 30.9167 146.968 31.4 147.234 31.8C147.968 32.7333 149.051 33.2 150.484 33.2C151.918 33.2 153.134 32.7333 154.134 31.8C154.668 31.3 155.101 30.6833 155.434 29.95C155.568 29.6833 155.734 29.55 155.934 29.55C156.168 29.55 156.351 29.7333 156.484 30.1C156.618 30.4667 156.684 30.75 156.684 30.95ZM178.527 19.75L177.377 20.05C176.777 20.05 176.477 19.5 176.477 18.4C176.477 17.2667 176.877 16.3667 177.677 15.7C178.51 15 179.56 14.65 180.827 14.65C181.527 14.65 182.277 14.8667 183.077 15.3C183.877 15.7 184.543 16.2167 185.077 16.85C185.61 17.45 186.077 18.4167 186.477 19.75C186.91 21.05 187.127 22.5833 187.127 24.35C187.127 28.4167 186.027 31.7167 183.827 34.25C181.66 36.7833 178.51 38.05 174.377 38.05C173.177 38.05 171.993 37.9333 170.827 37.7L170.327 37.6C169.893 37.4667 169.643 37.2333 169.577 36.9C169.477 36.2 169.427 34.55 169.427 31.95L169.727 15.75C169.727 13.25 169.66 11.3333 169.527 10L169.427 9.3C169.36 8.36667 169.16 7.56667 168.827 6.9C168.527 6.23333 168.227 5.8 167.927 5.6L167.527 5.35C167.293 5.21667 167.177 5.06667 167.177 4.9C167.177 4.4 168.01 3.81667 169.677 3.15C171.343 2.45 172.56 2.1 173.327 2.1C174.093 2.1 174.493 2.3 174.527 2.7C174.76 4.73333 174.877 7.63333 174.877 11.4L174.627 23.4C174.627 28.6333 174.777 32.25 175.077 34.25C175.11 34.7167 175.627 34.95 176.627 34.95C177.66 34.95 178.543 34.6667 179.277 34.1C180.01 33.5333 180.56 32.7833 180.927 31.85C181.593 30.15 181.927 28.2667 181.927 26.2C181.927 25.2333 181.793 24.1833 181.527 23.05C181.06 20.85 180.06 19.75 178.527 19.75ZM194.124 24.3L194.174 25.55C194.174 25.75 194.307 25.85 194.574 25.85C195.641 25.75 196.574 25.4833 197.374 25.05C198.174 24.5833 198.774 24.0667 199.174 23.5C199.974 22.2667 200.407 21.2 200.474 20.3L200.524 19.7C200.524 17.9 199.807 17 198.374 17C197.307 17 196.441 17.4667 195.774 18.4C194.674 19.8667 194.124 21.8333 194.124 24.3ZM205.024 30.95C205.024 32.2167 204.757 33.3333 204.224 34.3C203.724 35.2333 203.141 35.9333 202.474 36.4C201.841 36.8333 201.091 37.1833 200.224 37.45C199.124 37.7833 198.074 37.95 197.074 37.95C194.274 37.95 192.207 36.9 190.874 34.8C189.541 32.7 188.874 30.0333 188.874 26.8C188.874 23.5333 189.691 20.6333 191.324 18.1C192.991 15.5667 195.474 14.3 198.774 14.3C201.774 14.3 203.807 15.35 204.874 17.45C205.307 18.25 205.524 19.0167 205.524 19.75C205.524 20.45 205.491 21.0167 205.424 21.45C205.357 21.85 205.124 22.4667 204.724 23.3C204.324 24.1333 203.791 24.8833 203.124 25.55C202.457 26.2167 201.407 26.85 199.974 27.45C198.541 28.05 196.857 28.45 194.924 28.65C194.657 28.65 194.524 28.7667 194.524 29C194.524 29.3 194.624 29.75 194.824 30.35C195.057 30.9167 195.307 31.4 195.574 31.8C196.307 32.7333 197.391 33.2 198.824 33.2C200.257 33.2 201.474 32.7333 202.474 31.8C203.007 31.3 203.441 30.6833 203.774 29.95C203.907 29.6833 204.074 29.55 204.274 29.55C204.507 29.55 204.691 29.7333 204.824 30.1C204.957 30.4667 205.024 30.75 205.024 30.95ZM222.982 30.15C222.982 31.5833 222.699 32.8333 222.132 33.9C221.599 34.9667 220.982 35.75 220.282 36.25C219.582 36.75 218.749 37.15 217.782 37.45C216.516 37.85 215.366 38.05 214.332 38.05C212.166 38.05 210.366 37.6333 208.932 36.8C207.499 35.9333 206.782 34.5667 206.782 32.7C206.782 31.6 207.082 30.7 207.682 30C208.616 28.9667 209.732 28.45 211.032 28.45C211.432 28.45 211.632 28.6333 211.632 29C211.632 29.0333 211.549 29.3 211.382 29.8C211.249 30.2667 211.182 30.8667 211.182 31.6C211.182 32.3333 211.466 32.9833 212.032 33.55C212.632 34.1167 213.349 34.4 214.182 34.4C215.016 34.4 215.682 34.2667 216.182 34C216.682 33.7 217.032 33.3333 217.232 32.9C217.532 32.3 217.682 31.7333 217.682 31.2C217.682 30.2333 217.199 29.4 216.232 28.7C215.266 28 214.199 27.45 213.032 27.05C211.866 26.65 210.799 25.9833 209.832 25.05C208.866 24.1167 208.382 22.95 208.382 21.55C208.382 19.15 209.132 17.35 210.632 16.15C212.166 14.95 214.232 14.35 216.832 14.35C217.966 14.35 219.149 14.5167 220.382 14.85C221.649 15.15 222.282 15.6833 222.282 16.45C222.282 17.1833 222.149 17.8667 221.882 18.5C221.649 19.1333 221.349 19.45 220.982 19.45C220.782 19.45 220.649 19.3833 220.582 19.25C220.516 19.0833 220.399 18.9 220.232 18.7C220.066 18.5 219.666 18.25 219.032 17.95C218.399 17.6167 217.849 17.45 217.382 17.45C216.949 17.45 216.649 17.4667 216.482 17.5C216.349 17.5 216.099 17.55 215.732 17.65C215.366 17.7167 215.032 17.8333 214.732 18C213.966 18.4333 213.582 19.0667 213.582 19.9C213.582 20.4333 213.699 20.8333 213.932 21.1C214.166 21.3333 214.349 21.5167 214.482 21.65C214.616 21.7833 214.849 21.95 215.182 22.15C215.516 22.3167 215.749 22.4333 215.882 22.5C216.016 22.5667 216.316 22.7167 216.782 22.95C217.249 23.15 217.549 23.2833 217.682 23.35C221.216 25.0167 222.982 27.2833 222.982 30.15ZM224.22 17.5L224.37 15.5C224.403 15.2 224.636 15.05 225.07 15.05H226.82L226.62 11.05V10.85C226.62 10.0833 227.203 9.35 228.37 8.65C229.536 7.95 230.603 7.6 231.57 7.6C231.87 7.6 232.02 7.73333 232.02 8V8.05C231.886 8.95 231.753 11.2667 231.62 15C233.086 15 234.02 14.9667 234.42 14.9C234.82 14.8333 235.036 14.8 235.07 14.8C235.303 14.8 235.42 15 235.42 15.4C235.42 15.8 235.236 16.3167 234.87 16.95C234.503 17.55 234.103 17.8667 233.67 17.9H231.57C231.536 19.0333 231.52 20.95 231.52 23.65C231.52 26.3167 231.536 28.5167 231.57 30.25C231.636 31.9833 231.703 33.3 231.77 34.2C231.836 35.0667 231.903 35.7667 231.97 36.3C232.07 36.8333 232.136 37.2167 232.17 37.45C232.236 37.6833 232.27 37.8333 232.27 37.9C232.27 38.2333 232.053 38.4167 231.62 38.45C230.32 38.45 229.02 38.2667 227.72 37.9C226.453 37.5333 225.82 36.9 225.82 36C226.52 30.4 226.87 24.3833 226.87 17.95C225.97 17.95 225.286 17.9833 224.82 18.05H224.77C224.47 18.05 224.286 17.8667 224.22 17.5ZM245.636 29.35C245.702 25.9833 245.736 23.2167 245.736 21.05C245.736 18.8833 245.586 16.8167 245.286 14.85C245.286 14.5167 245.619 14.35 246.286 14.35C246.952 14.35 247.519 14.4333 247.986 14.6C248.486 14.7667 248.836 14.95 249.036 15.15C249.569 15.6833 249.869 15.95 249.936 15.95C250.036 15.95 250.302 15.8 250.736 15.5C252.036 14.6667 253.469 14.25 255.036 14.25C256.636 14.25 258.019 14.65 259.186 15.45C260.386 16.25 261.236 17.3 261.736 18.6C262.636 20.8333 263.086 23.2 263.086 25.7C263.086 28.1667 262.636 30.6333 261.736 33.1C261.236 34.4333 260.502 35.5333 259.536 36.4C258.569 37.2333 257.436 37.65 256.136 37.65C253.569 37.65 252.286 36.1667 252.286 33.2C252.286 32.4 252.452 32 252.786 32C252.852 32 253.036 32.0833 253.336 32.25C253.669 32.3833 253.986 32.45 254.286 32.45C256.652 32.45 257.836 29.95 257.836 24.95C257.836 19.9167 256.569 17.4 254.036 17.4C253.336 17.4 252.736 17.5667 252.236 17.9C251.769 18.2 251.469 18.5 251.336 18.8L251.136 19.3C250.669 22.3 250.436 28.0833 250.436 36.65C250.436 40.5167 250.502 43.2833 250.636 44.95C250.802 46.65 250.886 47.6667 250.886 48C250.886 48.3333 250.786 48.6333 250.586 48.9C249.919 49.7667 249.019 50.5333 247.886 51.2C246.752 51.9 245.752 52.25 244.886 52.25C244.552 52.25 244.386 52.0333 244.386 51.6C244.919 48.2333 245.336 40.8167 245.636 29.35ZM270.446 18.15C269.579 18.1833 268.946 18.2167 268.546 18.25C268.179 18.25 267.996 18.15 267.996 17.95C267.996 17.75 268.096 17.55 268.296 17.35C270.429 15.3833 274.029 14.4 279.096 14.4C280.829 14.4 282.196 14.55 283.196 14.85L283.696 15C284.096 15.1667 284.296 15.35 284.296 15.55C284.296 15.7167 284.179 15.85 283.946 15.95C283.046 16.2167 282.179 16.65 281.346 17.25C280.513 17.8167 280.096 18.2167 280.096 18.45L280.396 18.8C281.463 19.4 282.279 20.35 282.846 21.65C283.446 22.95 283.779 24.1 283.846 25.1L283.946 26.65C283.946 29.95 283.029 32.6667 281.196 34.8C279.363 36.9333 276.863 38 273.696 38C272.096 38 270.713 37.7167 269.546 37.15C268.379 36.5833 267.513 35.95 266.946 35.25C266.413 34.5167 265.979 33.7 265.646 32.8C265.246 31.5667 265.046 30.3 265.046 29C265.046 27.6667 265.263 26.3333 265.696 25C266.163 23.6667 266.679 22.6833 267.246 22.05C267.846 21.4167 268.513 20.9 269.246 20.5C270.179 20 270.929 19.75 271.496 19.75C272.063 19.75 272.346 19.8667 272.346 20.1L272.046 20.6C271.313 21.4667 270.779 22.6 270.446 24C270.146 25.4 269.996 26.65 269.996 27.75C269.996 28.8167 270.129 29.8833 270.396 30.95C270.663 32.0167 270.963 32.8167 271.296 33.35C271.629 33.85 272.013 34.2333 272.446 34.5C273.079 34.9 273.746 35.1 274.446 35.1C275.146 35.1 275.829 34.8333 276.496 34.3C277.163 33.7333 277.646 33 277.946 32.1C278.546 30.4333 278.846 28.7167 278.846 26.95C278.846 24.15 278.129 21.9833 276.696 20.45C275.296 18.9167 273.213 18.15 270.446 18.15ZM296.542 14.55C297.142 14.55 297.675 14.6333 298.142 14.8C298.642 14.9333 298.909 15 298.942 15L299.242 14.75L299.042 9.3C298.975 8.36667 298.775 7.56667 298.442 6.9C298.109 6.23333 297.809 5.8 297.542 5.6L297.092 5.35C296.892 5.21667 296.792 5.06667 296.792 4.9C296.792 4.4 297.559 3.81667 299.092 3.15C300.659 2.48333 301.875 2.15 302.742 2.15C303.609 2.15 304.075 2.33333 304.142 2.7C304.309 3.83333 304.392 6 304.392 9.2C304.392 12.3667 304.309 15.4833 304.142 18.55C304.009 21.6167 303.942 25.1 303.942 29C303.942 32.8667 304.192 35.3 304.692 36.3C304.825 36.5333 304.892 36.75 304.892 36.95C304.892 37.45 304.175 37.7 302.742 37.7C300.009 37.7 298.642 37.05 298.642 35.75C298.575 35.2167 298.542 34.4 298.542 33.3C298.542 32.1667 298.642 30.0833 298.842 27.05C299.075 23.9833 299.192 21.6333 299.192 20C299.192 18.3333 298.359 17.5 296.692 17.5C295.059 17.5 293.809 18.4667 292.942 20.4C292.075 22.3333 291.642 24.2667 291.642 26.2C291.642 30.3 292.675 32.35 294.742 32.35C295.042 32.35 295.325 32.3 295.592 32.2C295.892 32.0667 296.075 32 296.142 32C296.409 32 296.609 32.1667 296.742 32.5C296.909 32.8333 296.992 33.1667 296.992 33.5C296.992 34.6333 296.542 35.6 295.642 36.4C294.742 37.1667 293.642 37.55 292.342 37.55C290.342 37.55 288.825 36.6833 287.792 34.95C286.792 33.1833 286.292 31 286.292 28.4C286.292 25.1 287.075 22.0333 288.642 19.2C289.442 17.8 290.525 16.6833 291.892 15.85C293.259 14.9833 294.809 14.55 296.542 14.55ZM323.497 31.25C323.497 33.15 322.731 34.7333 321.197 36C319.697 37.2333 317.897 37.85 315.797 37.85C312.731 37.85 310.481 36.9333 309.047 35.1C307.614 33.2333 306.897 30.7167 306.897 27.55C306.897 24.1833 307.647 21.2 309.147 18.6C309.881 17.2667 310.931 16.2167 312.297 15.45C313.664 14.6833 315.264 14.3 317.097 14.3C319.864 14.3 321.814 15.2333 322.947 17.1C323.414 17.8667 323.647 18.7667 323.647 19.8C323.647 21.4 322.981 22.6 321.647 23.4C321.114 23.7 320.614 23.85 320.147 23.85C319.714 23.85 319.347 23.8333 319.047 23.8C318.781 23.7333 318.414 23.5 317.947 23.1C317.481 22.7 317.247 22.15 317.247 21.45C317.281 21.0833 317.564 20.7833 318.097 20.55C318.597 20.25 318.847 19.7167 318.847 18.95C318.847 17.65 318.047 17 316.447 17C316.047 17 315.564 17.1833 314.997 17.55C314.464 17.8833 314.014 18.3333 313.647 18.9C313.281 19.4333 312.931 20.3 312.597 21.5C312.297 22.6667 312.147 23.8 312.147 24.9C312.147 25.9667 312.181 26.7833 312.247 27.35C312.347 27.8833 312.531 28.6333 312.797 29.6C313.097 30.5333 313.631 31.3 314.397 31.9C315.197 32.5 316.181 32.8 317.347 32.8C318.747 32.8 319.981 32.2167 321.047 31.05C321.481 30.5833 321.831 30.0167 322.097 29.35C322.231 29.0833 322.397 28.95 322.597 28.95C322.897 28.95 323.114 29.2333 323.247 29.8C323.414 30.3333 323.497 30.8167 323.497 31.25ZM342.842 22L342.742 28.4C342.742 32.8333 343.225 35.5 344.192 36.4C344.325 36.5333 344.392 36.6833 344.392 36.85C344.392 37.35 343.308 37.6 341.142 37.6C339.008 37.6 337.875 36.9667 337.742 35.7C337.708 35.4 337.692 34.7833 337.692 33.85L337.892 25.85C337.892 25.6167 337.758 25.5 337.492 25.5C335.892 25.5 334.392 25.95 332.992 26.85C331.592 27.75 330.892 28.9 330.892 30.3C330.892 31.0333 331.092 31.65 331.492 32.15C331.892 32.65 332.375 32.9 332.942 32.9C333.542 32.9 334.025 32.7833 334.392 32.55C334.792 32.3167 335.025 32.1833 335.092 32.15C335.658 32.2167 335.942 32.8167 335.942 33.95C335.942 35.05 335.425 35.95 334.392 36.65C333.358 37.3167 332.275 37.65 331.142 37.65C330.008 37.65 329.025 37.45 328.192 37.05C327.392 36.65 326.808 36.2 326.442 35.7C326.075 35.2 325.775 34.6333 325.542 34C325.308 33.2333 325.192 32.5667 325.192 32C325.192 29.6667 325.925 27.8 327.392 26.4C328.858 25 330.742 24 333.042 23.4C336.075 22.8 337.658 22.25 337.792 21.75C337.892 21.3833 337.942 20.7667 337.942 19.9C337.942 18.1333 337.042 17.25 335.242 17.25C334.475 17.25 333.792 17.5 333.192 18C332.592 18.4667 332.292 19.0667 332.292 19.8L332.592 21C332.525 21.5667 331.925 21.9 330.792 22L330.242 22.05C329.242 22.05 328.442 21.8 327.842 21.3C327.275 20.8 326.992 20.1333 326.992 19.3C326.992 18.7667 327.158 18.1833 327.492 17.55C327.858 16.8833 328.308 16.35 328.842 15.95C329.375 15.55 330.192 15.2 331.292 14.9C332.425 14.5667 333.508 14.4 334.542 14.4C335.575 14.4 336.375 14.4333 336.942 14.5C337.508 14.5667 338.275 14.7333 339.242 15C340.242 15.2333 341.058 15.7 341.692 16.4C342.358 17.1 342.708 17.85 342.742 18.65C342.808 19.4167 342.842 20.5333 342.842 22ZM361.068 30.15C361.068 31.5833 360.785 32.8333 360.218 33.9C359.685 34.9667 359.068 35.75 358.368 36.25C357.668 36.75 356.835 37.15 355.868 37.45C354.601 37.85 353.451 38.05 352.418 38.05C350.251 38.05 348.451 37.6333 347.018 36.8C345.585 35.9333 344.868 34.5667 344.868 32.7C344.868 31.6 345.168 30.7 345.768 30C346.701 28.9667 347.818 28.45 349.118 28.45C349.518 28.45 349.718 28.6333 349.718 29C349.718 29.0333 349.635 29.3 349.468 29.8C349.335 30.2667 349.268 30.8667 349.268 31.6C349.268 32.3333 349.551 32.9833 350.118 33.55C350.718 34.1167 351.435 34.4 352.268 34.4C353.101 34.4 353.768 34.2667 354.268 34C354.768 33.7 355.118 33.3333 355.318 32.9C355.618 32.3 355.768 31.7333 355.768 31.2C355.768 30.2333 355.285 29.4 354.318 28.7C353.351 28 352.285 27.45 351.118 27.05C349.951 26.65 348.885 25.9833 347.918 25.05C346.951 24.1167 346.468 22.95 346.468 21.55C346.468 19.15 347.218 17.35 348.718 16.15C350.251 14.95 352.318 14.35 354.918 14.35C356.051 14.35 357.235 14.5167 358.468 14.85C359.735 15.15 360.368 15.6833 360.368 16.45C360.368 17.1833 360.235 17.8667 359.968 18.5C359.735 19.1333 359.435 19.45 359.068 19.45C358.868 19.45 358.735 19.3833 358.668 19.25C358.601 19.0833 358.485 18.9 358.318 18.7C358.151 18.5 357.751 18.25 357.118 17.95C356.485 17.6167 355.935 17.45 355.468 17.45C355.035 17.45 354.735 17.4667 354.568 17.5C354.435 17.5 354.185 17.55 353.818 17.65C353.451 17.7167 353.118 17.8333 352.818 18C352.051 18.4333 351.668 19.0667 351.668 19.9C351.668 20.4333 351.785 20.8333 352.018 21.1C352.251 21.3333 352.435 21.5167 352.568 21.65C352.701 21.7833 352.935 21.95 353.268 22.15C353.601 22.3167 353.835 22.4333 353.968 22.5C354.101 22.5667 354.401 22.7167 354.868 22.95C355.335 23.15 355.635 23.2833 355.768 23.35C359.301 25.0167 361.068 27.2833 361.068 30.15ZM362.306 17.5L362.456 15.5C362.489 15.2 362.722 15.05 363.156 15.05H364.906L364.706 11.05V10.85C364.706 10.0833 365.289 9.35 366.456 8.65C367.622 7.95 368.689 7.6 369.656 7.6C369.956 7.6 370.106 7.73333 370.106 8V8.05C369.972 8.95 369.839 11.2667 369.706 15C371.172 15 372.106 14.9667 372.506 14.9C372.906 14.8333 373.122 14.8 373.156 14.8C373.389 14.8 373.506 15 373.506 15.4C373.506 15.8 373.322 16.3167 372.956 16.95C372.589 17.55 372.189 17.8667 371.756 17.9H369.656C369.622 19.0333 369.606 20.95 369.606 23.65C369.606 26.3167 369.622 28.5167 369.656 30.25C369.722 31.9833 369.789 33.3 369.856 34.2C369.922 35.0667 369.989 35.7667 370.056 36.3C370.156 36.8333 370.222 37.2167 370.256 37.45C370.322 37.6833 370.356 37.8333 370.356 37.9C370.356 38.2333 370.139 38.4167 369.706 38.45C368.406 38.45 367.106 38.2667 365.806 37.9C364.539 37.5333 363.906 36.9 363.906 36C364.606 30.4 364.956 24.3833 364.956 17.95C364.056 17.95 363.372 17.9833 362.906 18.05H362.856C362.556 18.05 362.372 17.8667 362.306 17.5ZM389.437 30.15C389.437 31.5833 389.154 32.8333 388.587 33.9C388.054 34.9667 387.437 35.75 386.737 36.25C386.037 36.75 385.204 37.15 384.237 37.45C382.971 37.85 381.821 38.05 380.787 38.05C378.621 38.05 376.821 37.6333 375.387 36.8C373.954 35.9333 373.237 34.5667 373.237 32.7C373.237 31.6 373.537 30.7 374.137 30C375.071 28.9667 376.187 28.45 377.487 28.45C377.887 28.45 378.087 28.6333 378.087 29C378.087 29.0333 378.004 29.3 377.837 29.8C377.704 30.2667 377.637 30.8667 377.637 31.6C377.637 32.3333 377.921 32.9833 378.487 33.55C379.087 34.1167 379.804 34.4 380.637 34.4C381.471 34.4 382.137 34.2667 382.637 34C383.137 33.7 383.487 33.3333 383.687 32.9C383.987 32.3 384.137 31.7333 384.137 31.2C384.137 30.2333 383.654 29.4 382.687 28.7C381.721 28 380.654 27.45 379.487 27.05C378.321 26.65 377.254 25.9833 376.287 25.05C375.321 24.1167 374.837 22.95 374.837 21.55C374.837 19.15 375.587 17.35 377.087 16.15C378.621 14.95 380.687 14.35 383.287 14.35C384.421 14.35 385.604 14.5167 386.837 14.85C388.104 15.15 388.737 15.6833 388.737 16.45C388.737 17.1833 388.604 17.8667 388.337 18.5C388.104 19.1333 387.804 19.45 387.437 19.45C387.237 19.45 387.104 19.3833 387.037 19.25C386.971 19.0833 386.854 18.9 386.687 18.7C386.521 18.5 386.121 18.25 385.487 17.95C384.854 17.6167 384.304 17.45 383.837 17.45C383.404 17.45 383.104 17.4667 382.937 17.5C382.804 17.5 382.554 17.55 382.187 17.65C381.821 17.7167 381.487 17.8333 381.187 18C380.421 18.4333 380.037 19.0667 380.037 19.9C380.037 20.4333 380.154 20.8333 380.387 21.1C380.621 21.3333 380.804 21.5167 380.937 21.65C381.071 21.7833 381.304 21.95 381.637 22.15C381.971 22.3167 382.204 22.4333 382.337 22.5C382.471 22.5667 382.771 22.7167 383.237 22.95C383.704 23.15 384.004 23.2833 384.137 23.35C387.671 25.0167 389.437 27.2833 389.437 30.15ZM405.309 18.15C404.443 18.1833 403.809 18.2167 403.409 18.25C403.043 18.25 402.859 18.15 402.859 17.95C402.859 17.75 402.959 17.55 403.159 17.35C405.293 15.3833 408.893 14.4 413.959 14.4C415.693 14.4 417.059 14.55 418.059 14.85L418.559 15C418.959 15.1667 419.159 15.35 419.159 15.55C419.159 15.7167 419.043 15.85 418.809 15.95C417.909 16.2167 417.043 16.65 416.209 17.25C415.376 17.8167 414.959 18.2167 414.959 18.45L415.259 18.8C416.326 19.4 417.143 20.35 417.709 21.65C418.309 22.95 418.643 24.1 418.709 25.1L418.809 26.65C418.809 29.95 417.893 32.6667 416.059 34.8C414.226 36.9333 411.726 38 408.559 38C406.959 38 405.576 37.7167 404.409 37.15C403.243 36.5833 402.376 35.95 401.809 35.25C401.276 34.5167 400.843 33.7 400.509 32.8C400.109 31.5667 399.909 30.3 399.909 29C399.909 27.6667 400.126 26.3333 400.559 25C401.026 23.6667 401.543 22.6833 402.109 22.05C402.709 21.4167 403.376 20.9 404.109 20.5C405.043 20 405.793 19.75 406.359 19.75C406.926 19.75 407.209 19.8667 407.209 20.1L406.909 20.6C406.176 21.4667 405.643 22.6 405.309 24C405.009 25.4 404.859 26.65 404.859 27.75C404.859 28.8167 404.993 29.8833 405.259 30.95C405.526 32.0167 405.826 32.8167 406.159 33.35C406.493 33.85 406.876 34.2333 407.309 34.5C407.943 34.9 408.609 35.1 409.309 35.1C410.009 35.1 410.693 34.8333 411.359 34.3C412.026 33.7333 412.509 33 412.809 32.1C413.409 30.4333 413.709 28.7167 413.709 26.95C413.709 24.15 412.993 21.9833 411.559 20.45C410.159 18.9167 408.076 18.15 405.309 18.15ZM421.259 37.35C421.859 33.75 422.159 29.4333 422.159 24.4C422.159 19.3667 422.009 16.1 421.709 14.6C421.709 14.1667 422.209 13.95 423.209 13.95C424.742 13.95 425.759 14.5333 426.259 15.7C426.292 15.8 426.375 15.85 426.509 15.85C426.642 15.85 426.742 15.8167 426.809 15.75C427.842 14.6833 429.442 14.15 431.609 14.15C433.775 14.15 435.492 14.7 436.759 15.8C438.025 16.9 438.659 18.5 438.659 20.6C438.659 21.8667 438.542 23.6667 438.309 26C438.109 28.3333 438.009 30.0667 438.009 31.2C438.009 33.9 438.459 35.85 439.359 37.05C439.492 37.2167 439.559 37.3833 439.559 37.55C439.559 37.9833 439.092 38.2 438.159 38.2C434.025 38.2 431.959 36.3667 431.959 32.7C431.959 31.3 432.275 29.35 432.909 26.85C433.542 24.35 433.859 22.45 433.859 21.15C433.859 18.4833 432.759 17.15 430.559 17.15C429.492 17.15 428.675 17.4667 428.109 18.1C427.575 18.7333 427.275 19.4667 427.209 20.3C427.142 21.1 427.109 22.6333 427.109 24.9C427.109 28.3667 427.225 31.3833 427.459 33.95L427.559 35.05C427.559 35.9833 426.942 36.7 425.709 37.2C424.509 37.7333 423.459 38 422.559 38C421.692 38 421.259 37.7833 421.259 37.35ZM449.464 17.5L449.614 15.5C449.647 15.2 449.881 15.05 450.314 15.05H452.064L451.864 11.05V10.85C451.864 10.0833 452.447 9.35 453.614 8.65C454.781 7.95 455.847 7.6 456.814 7.6C457.114 7.6 457.264 7.73333 457.264 8V8.05C457.131 8.95 456.997 11.2667 456.864 15C458.331 15 459.264 14.9667 459.664 14.9C460.064 14.8333 460.281 14.8 460.314 14.8C460.547 14.8 460.664 15 460.664 15.4C460.664 15.8 460.481 16.3167 460.114 16.95C459.747 17.55 459.347 17.8667 458.914 17.9H456.814C456.781 19.0333 456.764 20.95 456.764 23.65C456.764 26.3167 456.781 28.5167 456.814 30.25C456.881 31.9833 456.947 33.3 457.014 34.2C457.081 35.0667 457.147 35.7667 457.214 36.3C457.314 36.8333 457.381 37.2167 457.414 37.45C457.481 37.6833 457.514 37.8333 457.514 37.9C457.514 38.2333 457.297 38.4167 456.864 38.45C455.564 38.45 454.264 38.2667 452.964 37.9C451.697 37.5333 451.064 36.9 451.064 36C451.764 30.4 452.114 24.3833 452.114 17.95C451.214 17.95 450.531 17.9833 450.064 18.05H450.014C449.714 18.05 449.531 17.8667 449.464 17.5ZM467.846 10.15L467.796 15C467.796 15.2 467.862 15.3 467.996 15.3C468.129 15.3 468.262 15.25 468.396 15.15C469.229 14.5833 470.546 14.3 472.346 14.3C475.379 14.3 477.479 15.3333 478.646 17.4C479.079 18.1667 479.296 19.1833 479.296 20.45C479.296 21.7167 479.212 23.4667 479.046 25.7C478.912 27.9333 478.846 29.5167 478.846 30.45C478.846 33.7167 479.312 35.8833 480.246 36.95C480.412 37.1167 480.496 37.2833 480.496 37.45C480.496 37.7833 479.779 37.95 478.346 37.95C474.479 37.95 472.546 36.15 472.546 32.55C472.546 31.15 472.879 29.1833 473.546 26.65C474.212 24.1167 474.546 22.25 474.546 21.05C474.546 19.85 474.262 18.9333 473.696 18.3C473.129 17.6333 472.346 17.3 471.346 17.3C470.346 17.3 469.546 17.5167 468.946 17.95C468.379 18.3833 468.029 18.8333 467.896 19.3L467.746 19.95C467.712 20.5833 467.696 22.6 467.696 26C467.696 29.4 467.779 31.6167 467.946 32.65C468.112 33.65 468.196 34.2167 468.196 34.35C468.196 35.3167 467.546 36.1833 466.246 36.95C464.946 37.6833 463.662 38.05 462.396 38.05C461.929 38.05 461.696 37.7833 461.696 37.25L461.796 36.3C462.529 30.7 462.896 24.6333 462.896 18.1C462.896 15.5667 462.796 13 462.596 10.4L462.546 9.3C462.479 8.36667 462.279 7.56667 461.946 6.9C461.646 6.23333 461.362 5.8 461.096 5.6L460.646 5.35C460.412 5.21667 460.296 5.06667 460.296 4.9C460.296 4.43333 461.079 3.86667 462.646 3.2C464.212 2.5 465.412 2.15 466.246 2.15C467.112 2.15 467.579 2.33333 467.646 2.7C467.779 4.4 467.846 6.88333 467.846 10.15ZM486.751 24.3L486.801 25.55C486.801 25.75 486.934 25.85 487.201 25.85C488.268 25.75 489.201 25.4833 490.001 25.05C490.801 24.5833 491.401 24.0667 491.801 23.5C492.601 22.2667 493.034 21.2 493.101 20.3L493.151 19.7C493.151 17.9 492.434 17 491.001 17C489.934 17 489.068 17.4667 488.401 18.4C487.301 19.8667 486.751 21.8333 486.751 24.3ZM497.651 30.95C497.651 32.2167 497.384 33.3333 496.851 34.3C496.351 35.2333 495.768 35.9333 495.101 36.4C494.468 36.8333 493.718 37.1833 492.851 37.45C491.751 37.7833 490.701 37.95 489.701 37.95C486.901 37.95 484.834 36.9 483.501 34.8C482.168 32.7 481.501 30.0333 481.501 26.8C481.501 23.5333 482.318 20.6333 483.951 18.1C485.618 15.5667 488.101 14.3 491.401 14.3C494.401 14.3 496.434 15.35 497.501 17.45C497.934 18.25 498.151 19.0167 498.151 19.75C498.151 20.45 498.118 21.0167 498.051 21.45C497.984 21.85 497.751 22.4667 497.351 23.3C496.951 24.1333 496.418 24.8833 495.751 25.55C495.084 26.2167 494.034 26.85 492.601 27.45C491.168 28.05 489.484 28.45 487.551 28.65C487.284 28.65 487.151 28.7667 487.151 29C487.151 29.3 487.251 29.75 487.451 30.35C487.684 30.9167 487.934 31.4 488.201 31.8C488.934 32.7333 490.018 33.2 491.451 33.2C492.884 33.2 494.101 32.7333 495.101 31.8C495.634 31.3 496.068 30.6833 496.401 29.95C496.534 29.6833 496.701 29.55 496.901 29.55C497.134 29.55 497.318 29.7333 497.451 30.1C497.584 30.4667 497.651 30.75 497.651 30.95ZM514.544 10.25L513.344 10.2C512.444 10.2 511.86 10.4167 511.594 10.85C511.527 10.95 511.444 11 511.344 11C510.91 11 510.694 10.2667 510.694 8.8C510.694 7.3 510.91 6.35 511.344 5.95C511.81 5.55 512.594 5.35 513.694 5.35C514.827 5.35 515.594 5.55 515.994 5.95C516.394 6.31667 516.594 6.95 516.594 7.85C516.594 8.75 516.444 9.38333 516.144 9.75C515.844 10.0833 515.31 10.25 514.544 10.25ZM510.544 35.5L511.094 23.85C511.094 21.0833 510.777 19.2 510.144 18.2C509.944 17.8667 509.71 17.6167 509.444 17.45C509.244 17.3833 509.144 17.25 509.144 17.05C509.144 16.45 509.994 15.8667 511.694 15.3C513.394 14.7333 514.627 14.45 515.394 14.45C516.194 14.45 516.61 14.65 516.644 15.05C516.644 15.7167 516.544 17.6167 516.344 20.75C516.177 23.85 516.094 27.1167 516.094 30.55C516.094 33.9833 516.294 36.1167 516.694 36.95C516.794 37.1167 516.844 37.2833 516.844 37.45C516.844 37.8833 516.21 38.1 514.944 38.1C513.677 38.1 512.377 37.7667 511.044 37.1C510.71 36.9333 510.544 36.4 510.544 35.5ZM519.892 37.35C520.492 33.75 520.792 29.4333 520.792 24.4C520.792 19.3667 520.642 16.1 520.342 14.6C520.342 14.1667 520.842 13.95 521.842 13.95C523.375 13.95 524.392 14.5333 524.892 15.7C524.925 15.8 525.008 15.85 525.142 15.85C525.275 15.85 525.375 15.8167 525.442 15.75C526.475 14.6833 528.075 14.15 530.242 14.15C532.408 14.15 534.125 14.7 535.392 15.8C536.658 16.9 537.292 18.5 537.292 20.6C537.292 21.8667 537.175 23.6667 536.942 26C536.742 28.3333 536.642 30.0667 536.642 31.2C536.642 33.9 537.092 35.85 537.992 37.05C538.125 37.2167 538.192 37.3833 538.192 37.55C538.192 37.9833 537.725 38.2 536.792 38.2C532.658 38.2 530.592 36.3667 530.592 32.7C530.592 31.3 530.908 29.35 531.542 26.85C532.175 24.35 532.492 22.45 532.492 21.15C532.492 18.4833 531.392 17.15 529.192 17.15C528.125 17.15 527.308 17.4667 526.742 18.1C526.208 18.7333 525.908 19.4667 525.842 20.3C525.775 21.1 525.742 22.6333 525.742 24.9C525.742 28.3667 525.858 31.3833 526.092 33.95L526.192 35.05C526.192 35.9833 525.575 36.7 524.342 37.2C523.142 37.7333 522.092 38 521.192 38C520.325 38 519.892 37.7833 519.892 37.35ZM539.112 17.5L539.262 15.5C539.296 15.2 539.529 15.05 539.962 15.05H541.712L541.512 11.05V10.85C541.512 10.0833 542.096 9.35 543.262 8.65C544.429 7.95 545.496 7.6 546.462 7.6C546.762 7.6 546.912 7.73333 546.912 8V8.05C546.779 8.95 546.646 11.2667 546.512 15C547.979 15 548.912 14.9667 549.312 14.9C549.712 14.8333 549.929 14.8 549.962 14.8C550.196 14.8 550.312 15 550.312 15.4C550.312 15.8 550.129 16.3167 549.762 16.95C549.396 17.55 548.996 17.8667 548.562 17.9H546.462C546.429 19.0333 546.412 20.95 546.412 23.65C546.412 26.3167 546.429 28.5167 546.462 30.25C546.529 31.9833 546.596 33.3 546.662 34.2C546.729 35.0667 546.796 35.7667 546.862 36.3C546.962 36.8333 547.029 37.2167 547.062 37.45C547.129 37.6833 547.162 37.8333 547.162 37.9C547.162 38.2333 546.946 38.4167 546.512 38.45C545.212 38.45 543.912 38.2667 542.612 37.9C541.346 37.5333 540.712 36.9 540.712 36C541.412 30.4 541.762 24.3833 541.762 17.95C540.862 17.95 540.179 17.9833 539.712 18.05H539.662C539.362 18.05 539.179 17.8667 539.112 17.5ZM555.306 24.3L555.356 25.55C555.356 25.75 555.489 25.85 555.756 25.85C556.822 25.75 557.756 25.4833 558.556 25.05C559.356 24.5833 559.956 24.0667 560.356 23.5C561.156 22.2667 561.589 21.2 561.656 20.3L561.706 19.7C561.706 17.9 560.989 17 559.556 17C558.489 17 557.622 17.4667 556.956 18.4C555.856 19.8667 555.306 21.8333 555.306 24.3ZM566.206 30.95C566.206 32.2167 565.939 33.3333 565.406 34.3C564.906 35.2333 564.322 35.9333 563.656 36.4C563.022 36.8333 562.272 37.1833 561.406 37.45C560.306 37.7833 559.256 37.95 558.256 37.95C555.456 37.95 553.389 36.9 552.056 34.8C550.722 32.7 550.056 30.0333 550.056 26.8C550.056 23.5333 550.872 20.6333 552.506 18.1C554.172 15.5667 556.656 14.3 559.956 14.3C562.956 14.3 564.989 15.35 566.056 17.45C566.489 18.25 566.706 19.0167 566.706 19.75C566.706 20.45 566.672 21.0167 566.606 21.45C566.539 21.85 566.306 22.4667 565.906 23.3C565.506 24.1333 564.972 24.8833 564.306 25.55C563.639 26.2167 562.589 26.85 561.156 27.45C559.722 28.05 558.039 28.45 556.106 28.65C555.839 28.65 555.706 28.7667 555.706 29C555.706 29.3 555.806 29.75 556.006 30.35C556.239 30.9167 556.489 31.4 556.756 31.8C557.489 32.7333 558.572 33.2 560.006 33.2C561.439 33.2 562.656 32.7333 563.656 31.8C564.189 31.3 564.622 30.6833 564.956 29.95C565.089 29.6833 565.256 29.55 565.456 29.55C565.689 29.55 565.872 29.7333 566.006 30.1C566.139 30.4667 566.206 30.75 566.206 30.95ZM583.726 23.6L583.926 25.35C583.926 25.9833 583.326 26.3 582.126 26.3C579.692 26.3 578.476 25.3833 578.476 23.55C578.476 23.1167 578.592 22.5167 578.826 21.75C579.059 20.9833 579.176 20.3167 579.176 19.75C579.176 19.1833 579.009 18.7 578.676 18.3C578.342 17.8667 577.859 17.65 577.226 17.65C576.592 17.65 576.042 17.8833 575.576 18.35C575.142 18.7833 574.876 19.2333 574.776 19.7L574.576 20.4C574.376 21.4333 574.276 23.1667 574.276 25.6C574.276 28 574.309 29.9 574.376 31.3C574.442 32.6667 574.509 33.6167 574.576 34.15C574.642 34.65 574.676 34.95 574.676 35.05C574.676 35.8833 574.159 36.55 573.126 37.05C572.092 37.5833 571.059 37.85 570.026 37.85C568.992 37.85 568.476 37.6333 568.476 37.2L568.726 35.65C569.192 32.75 569.426 28.9667 569.426 24.3C569.426 19.6333 569.259 16.4667 568.926 14.8C568.926 14.4 569.276 14.2 569.976 14.2C571.776 14.2 572.976 14.8167 573.576 16.05C573.609 16.1833 573.659 16.25 573.726 16.25C573.826 16.25 574.059 16.1 574.426 15.8C575.526 14.9 576.826 14.45 578.326 14.45C579.259 14.45 580.192 14.6333 581.126 15C583.026 15.7667 583.976 17.3667 583.976 19.8L583.726 23.6ZM586.249 37.35C586.849 33.75 587.149 29.4333 587.149 24.4C587.149 19.3667 586.999 16.1 586.699 14.6C586.699 14.1667 587.199 13.95 588.199 13.95C589.732 13.95 590.749 14.5333 591.249 15.7C591.282 15.8 591.366 15.85 591.499 15.85C591.632 15.85 591.732 15.8167 591.799 15.75C592.832 14.6833 594.432 14.15 596.599 14.15C598.766 14.15 600.482 14.7 601.749 15.8C603.016 16.9 603.649 18.5 603.649 20.6C603.649 21.8667 603.532 23.6667 603.299 26C603.099 28.3333 602.999 30.0667 602.999 31.2C602.999 33.9 603.449 35.85 604.349 37.05C604.482 37.2167 604.549 37.3833 604.549 37.55C604.549 37.9833 604.082 38.2 603.149 38.2C599.016 38.2 596.949 36.3667 596.949 32.7C596.949 31.3 597.266 29.35 597.899 26.85C598.532 24.35 598.849 22.45 598.849 21.15C598.849 18.4833 597.749 17.15 595.549 17.15C594.482 17.15 593.666 17.4667 593.099 18.1C592.566 18.7333 592.266 19.4667 592.199 20.3C592.132 21.1 592.099 22.6333 592.099 24.9C592.099 28.3667 592.216 31.3833 592.449 33.95L592.549 35.05C592.549 35.9833 591.932 36.7 590.699 37.2C589.499 37.7333 588.449 38 587.549 38C586.682 38 586.249 37.7833 586.249 37.35ZM610.97 24.3L611.02 25.55C611.02 25.75 611.153 25.85 611.42 25.85C612.486 25.75 613.42 25.4833 614.22 25.05C615.02 24.5833 615.62 24.0667 616.02 23.5C616.82 22.2667 617.253 21.2 617.32 20.3L617.37 19.7C617.37 17.9 616.653 17 615.22 17C614.153 17 613.286 17.4667 612.62 18.4C611.52 19.8667 610.97 21.8333 610.97 24.3ZM621.87 30.95C621.87 32.2167 621.603 33.3333 621.07 34.3C620.57 35.2333 619.986 35.9333 619.32 36.4C618.686 36.8333 617.936 37.1833 617.07 37.45C615.97 37.7833 614.92 37.95 613.92 37.95C611.12 37.95 609.053 36.9 607.72 34.8C606.386 32.7 605.72 30.0333 605.72 26.8C605.72 23.5333 606.536 20.6333 608.17 18.1C609.836 15.5667 612.32 14.3 615.62 14.3C618.62 14.3 620.653 15.35 621.72 17.45C622.153 18.25 622.37 19.0167 622.37 19.75C622.37 20.45 622.336 21.0167 622.27 21.45C622.203 21.85 621.97 22.4667 621.57 23.3C621.17 24.1333 620.636 24.8833 619.97 25.55C619.303 26.2167 618.253 26.85 616.82 27.45C615.386 28.05 613.703 28.45 611.77 28.65C611.503 28.65 611.37 28.7667 611.37 29C611.37 29.3 611.47 29.75 611.67 30.35C611.903 30.9167 612.153 31.4 612.42 31.8C613.153 32.7333 614.236 33.2 615.67 33.2C617.103 33.2 618.32 32.7333 619.32 31.8C619.853 31.3 620.286 30.6833 620.62 29.95C620.753 29.6833 620.92 29.55 621.12 29.55C621.353 29.55 621.536 29.7333 621.67 30.1C621.803 30.4667 621.87 30.75 621.87 30.95ZM623.878 17.5L624.028 15.5C624.061 15.2 624.295 15.05 624.728 15.05H626.478L626.278 11.05V10.85C626.278 10.0833 626.861 9.35 628.028 8.65C629.195 7.95 630.261 7.6 631.228 7.6C631.528 7.6 631.678 7.73333 631.678 8V8.05C631.545 8.95 631.411 11.2667 631.278 15C632.745 15 633.678 14.9667 634.078 14.9C634.478 14.8333 634.695 14.8 634.728 14.8C634.961 14.8 635.078 15 635.078 15.4C635.078 15.8 634.895 16.3167 634.528 16.95C634.161 17.55 633.761 17.8667 633.328 17.9H631.228C631.195 19.0333 631.178 20.95 631.178 23.65C631.178 26.3167 631.195 28.5167 631.228 30.25C631.295 31.9833 631.361 33.3 631.428 34.2C631.495 35.0667 631.561 35.7667 631.628 36.3C631.728 36.8333 631.795 37.2167 631.828 37.45C631.895 37.6833 631.928 37.8333 631.928 37.9C631.928 38.2333 631.711 38.4167 631.278 38.45C629.978 38.45 628.678 38.2667 627.378 37.9C626.111 37.5333 625.478 36.9 625.478 36C626.178 30.4 626.528 24.3833 626.528 17.95C625.628 17.95 624.945 17.9833 624.478 18.05H624.428C624.128 18.05 623.945 17.8667 623.878 17.5Z" fill="#113A2D"/>
</svg>
