<svg width="157" height="37" viewBox="0 0 157 37" fill="none" xmlns="http://www.w3.org/2000/svg">
<path d="M21.3494 36C21.0161 36.2333 20.7661 36.35 20.5994 36.35C20.2327 36.35 19.9827 36.2 19.8494 35.9C18.8494 33.9 18.0161 31.2 17.3494 27.8C17.3161 27.6667 17.2661 27.6 17.1994 27.6L16.8994 27.8C15.9994 29.4 14.9494 30.8833 13.7494 32.25C12.5827 33.6167 11.6327 34.5833 10.8994 35.15L9.79941 36C9.46608 36.3 9.19941 36.45 8.99941 36.45C8.63275 36.45 8.38275 36.2833 8.24941 35.95C7.51608 34.55 6.66608 31.8333 5.69941 27.8L5.24941 25.75C4.61608 22.8167 3.96608 20.4667 3.29941 18.7C2.66608 16.9333 2.18275 15.9 1.84941 15.6L1.34941 15.15C1.04941 15.05 0.899414 14.8833 0.899414 14.65C0.899414 14.1833 1.58275 13.6833 2.94941 13.15C4.34941 12.6167 5.43275 12.35 6.19941 12.35C6.96608 12.35 7.46608 12.6667 7.69941 13.3C7.96608 13.9 8.36608 15.6167 8.89941 18.45C10.2994 25.9167 11.3161 29.65 11.9494 29.65C12.1494 29.65 12.3661 29.4833 12.5994 29.15C12.8661 28.7833 13.1661 28.35 13.4994 27.85C13.8661 27.35 14.3494 26.4833 14.9494 25.25C15.5494 24.0167 15.8494 22.9333 15.8494 22C15.8494 21.8333 15.7327 21.2333 15.4994 20.2C15.2661 19.1333 14.9161 18.1167 14.4494 17.15C14.0161 16.15 13.6661 15.5833 13.3994 15.45C12.7994 15.1167 12.4994 14.8333 12.4994 14.6C12.4994 14.2 13.1827 13.7333 14.5494 13.2C15.9161 12.6333 17.1494 12.35 18.2494 12.35C18.7494 12.35 19.0994 12.65 19.2994 13.25C19.7994 14.8167 20.3994 17.6333 21.0994 21.7C21.9994 26.9 22.8327 29.5 23.5994 29.5C23.8661 29.5 24.2661 29.1333 24.7994 28.4C25.3327 27.6333 25.8494 26.5333 26.3494 25.1C26.8827 23.6667 27.1494 22.45 27.1494 21.45C27.1494 20.4167 27.0994 19.6333 26.9994 19.1C26.9327 18.5333 26.6494 17.8833 26.1494 17.15C25.6494 16.4167 25.0827 16 24.4494 15.9C23.8161 15.7667 23.4994 15.55 23.4994 15.25C23.4994 14.7833 24.1827 14.1833 25.5494 13.45C26.9494 12.7167 28.3827 12.35 29.8494 12.35C31.2494 12.35 31.9494 13.75 31.9494 16.55C31.9494 20.05 30.9161 23.65 28.8494 27.35C26.7827 31.05 24.2827 33.9333 21.3494 36ZM37.7764 22.3L37.8264 23.55C37.8264 23.75 37.9597 23.85 38.2264 23.85C39.293 23.75 40.2264 23.4833 41.0264 23.05C41.8264 22.5833 42.4264 22.0667 42.8264 21.5C43.6264 20.2667 44.0597 19.2 44.1264 18.3L44.1764 17.7C44.1764 15.9 43.4597 15 42.0264 15C40.9597 15 40.093 15.4667 39.4264 16.4C38.3264 17.8667 37.7764 19.8333 37.7764 22.3ZM48.6764 28.95C48.6764 30.2167 48.4097 31.3333 47.8764 32.3C47.3764 33.2333 46.793 33.9333 46.1264 34.4C45.493 34.8333 44.743 35.1833 43.8764 35.45C42.7764 35.7833 41.7264 35.95 40.7264 35.95C37.9264 35.95 35.8597 34.9 34.5264 32.8C33.193 30.7 32.5264 28.0333 32.5264 24.8C32.5264 21.5333 33.343 18.6333 34.9764 16.1C36.643 13.5667 39.1264 12.3 42.4264 12.3C45.4264 12.3 47.4597 13.35 48.5264 15.45C48.9597 16.25 49.1764 17.0167 49.1764 17.75C49.1764 18.45 49.143 19.0167 49.0764 19.45C49.0097 19.85 48.7764 20.4667 48.3764 21.3C47.9764 22.1333 47.443 22.8833 46.7764 23.55C46.1097 24.2167 45.0597 24.85 43.6264 25.45C42.193 26.05 40.5097 26.45 38.5764 26.65C38.3097 26.65 38.1764 26.7667 38.1764 27C38.1764 27.3 38.2764 27.75 38.4764 28.35C38.7097 28.9167 38.9597 29.4 39.2264 29.8C39.9597 30.7333 41.043 31.2 42.4764 31.2C43.9097 31.2 45.1264 30.7333 46.1264 29.8C46.6597 29.3 47.093 28.6833 47.4264 27.95C47.5597 27.6833 47.7264 27.55 47.9264 27.55C48.1597 27.55 48.343 27.7333 48.4764 28.1C48.6097 28.4667 48.6764 28.75 48.6764 28.95ZM61.0463 17.75L59.8963 18.05C59.2963 18.05 58.9963 17.5 58.9963 16.4C58.9963 15.2667 59.3963 14.3667 60.1963 13.7C61.0296 13 62.0796 12.65 63.3463 12.65C64.0463 12.65 64.7963 12.8667 65.5963 13.3C66.3963 13.7 67.063 14.2167 67.5963 14.85C68.1296 15.45 68.5963 16.4167 68.9963 17.75C69.4296 19.05 69.6463 20.5833 69.6463 22.35C69.6463 26.4167 68.5463 29.7167 66.3463 32.25C64.1796 34.7833 61.0296 36.05 56.8963 36.05C55.6963 36.05 54.513 35.9333 53.3463 35.7L52.8463 35.6C52.413 35.4667 52.163 35.2333 52.0963 34.9C51.9963 34.2 51.9463 32.55 51.9463 29.95L52.2463 13.75C52.2463 11.25 52.1796 9.33333 52.0463 8L51.9463 7.3C51.8796 6.36667 51.6796 5.56667 51.3463 4.9C51.0463 4.23333 50.7463 3.8 50.4463 3.6L50.0463 3.35C49.813 3.21667 49.6963 3.06667 49.6963 2.9C49.6963 2.4 50.5296 1.81667 52.1963 1.15C53.863 0.449999 55.0796 0.0999993 55.8463 0.0999993C56.613 0.0999993 57.013 0.299999 57.0463 0.699998C57.2796 2.73333 57.3963 5.63333 57.3963 9.4L57.1463 21.4C57.1463 26.6333 57.2963 30.25 57.5963 32.25C57.6296 32.7167 58.1463 32.95 59.1463 32.95C60.1796 32.95 61.063 32.6667 61.7963 32.1C62.5296 31.5333 63.0796 30.7833 63.4463 29.85C64.113 28.15 64.4463 26.2667 64.4463 24.2C64.4463 23.2333 64.313 22.1833 64.0463 21.05C63.5796 18.85 62.5796 17.75 61.0463 17.75ZM76.5553 8.25L75.3553 8.2C74.4553 8.2 73.8719 8.41667 73.6053 8.85C73.5386 8.95 73.4553 9 73.3553 9C72.9219 9 72.7053 8.26667 72.7053 6.8C72.7053 5.3 72.9219 4.35 73.3553 3.95C73.8219 3.55 74.6053 3.35 75.7053 3.35C76.8386 3.35 77.6053 3.55 78.0053 3.95C78.4053 4.31667 78.6053 4.95 78.6053 5.85C78.6053 6.75 78.4553 7.38333 78.1553 7.75C77.8553 8.08333 77.3219 8.25 76.5553 8.25ZM72.5553 33.5L73.1053 21.85C73.1053 19.0833 72.7886 17.2 72.1553 16.2C71.9553 15.8667 71.7219 15.6167 71.4553 15.45C71.2553 15.3833 71.1553 15.25 71.1553 15.05C71.1553 14.45 72.0053 13.8667 73.7053 13.3C75.4053 12.7333 76.6386 12.45 77.4053 12.45C78.2053 12.45 78.6219 12.65 78.6553 13.05C78.6553 13.7167 78.5553 15.6167 78.3553 18.75C78.1886 21.85 78.1053 25.1167 78.1053 28.55C78.1053 31.9833 78.3053 34.1167 78.7053 34.95C78.8053 35.1167 78.8553 35.2833 78.8553 35.45C78.8553 35.8833 78.2219 36.1 76.9553 36.1C75.6886 36.1 74.3886 35.7667 73.0553 35.1C72.7219 34.9333 72.5553 34.4 72.5553 33.5ZM97.1033 28.15C97.1033 29.5833 96.82 30.8333 96.2533 31.9C95.72 32.9667 95.1033 33.75 94.4033 34.25C93.7033 34.75 92.87 35.15 91.9033 35.45C90.6367 35.85 89.4867 36.05 88.4533 36.05C86.2867 36.05 84.4867 35.6333 83.0533 34.8C81.62 33.9333 80.9033 32.5667 80.9033 30.7C80.9033 29.6 81.2033 28.7 81.8033 28C82.7367 26.9667 83.8533 26.45 85.1533 26.45C85.5533 26.45 85.7533 26.6333 85.7533 27C85.7533 27.0333 85.67 27.3 85.5033 27.8C85.37 28.2667 85.3033 28.8667 85.3033 29.6C85.3033 30.3333 85.5867 30.9833 86.1533 31.55C86.7533 32.1167 87.47 32.4 88.3033 32.4C89.1367 32.4 89.8033 32.2667 90.3033 32C90.8033 31.7 91.1533 31.3333 91.3533 30.9C91.6533 30.3 91.8033 29.7333 91.8033 29.2C91.8033 28.2333 91.32 27.4 90.3533 26.7C89.3867 26 88.32 25.45 87.1533 25.05C85.9867 24.65 84.92 23.9833 83.9533 23.05C82.9867 22.1167 82.5033 20.95 82.5033 19.55C82.5033 17.15 83.2533 15.35 84.7533 14.15C86.2867 12.95 88.3533 12.35 90.9533 12.35C92.0867 12.35 93.27 12.5167 94.5033 12.85C95.77 13.15 96.4033 13.6833 96.4033 14.45C96.4033 15.1833 96.27 15.8667 96.0033 16.5C95.77 17.1333 95.47 17.45 95.1033 17.45C94.9033 17.45 94.77 17.3833 94.7033 17.25C94.6367 17.0833 94.52 16.9 94.3533 16.7C94.1867 16.5 93.7867 16.25 93.1533 15.95C92.52 15.6167 91.97 15.45 91.5033 15.45C91.07 15.45 90.77 15.4667 90.6033 15.5C90.47 15.5 90.22 15.55 89.8533 15.65C89.4867 15.7167 89.1533 15.8333 88.8533 16C88.0867 16.4333 87.7033 17.0667 87.7033 17.9C87.7033 18.4333 87.82 18.8333 88.0533 19.1C88.2867 19.3333 88.47 19.5167 88.6033 19.65C88.7367 19.7833 88.97 19.95 89.3033 20.15C89.6367 20.3167 89.87 20.4333 90.0033 20.5C90.1367 20.5667 90.4367 20.7167 90.9033 20.95C91.37 21.15 91.67 21.2833 91.8033 21.35C95.3367 23.0167 97.1033 25.2833 97.1033 28.15ZM103.991 16.15C103.124 16.1833 102.491 16.2167 102.091 16.25C101.724 16.25 101.541 16.15 101.541 15.95C101.541 15.75 101.641 15.55 101.841 15.35C103.974 13.3833 107.574 12.4 112.641 12.4C114.374 12.4 115.741 12.55 116.741 12.85L117.241 13C117.641 13.1667 117.841 13.35 117.841 13.55C117.841 13.7167 117.724 13.85 117.491 13.95C116.591 14.2167 115.724 14.65 114.891 15.25C114.057 15.8167 113.641 16.2167 113.641 16.45L113.941 16.8C115.007 17.4 115.824 18.35 116.391 19.65C116.991 20.95 117.324 22.1 117.391 23.1L117.491 24.65C117.491 27.95 116.574 30.6667 114.741 32.8C112.907 34.9333 110.407 36 107.241 36C105.641 36 104.257 35.7167 103.091 35.15C101.924 34.5833 101.057 33.95 100.491 33.25C99.9575 32.5167 99.5242 31.7 99.1908 30.8C98.7908 29.5667 98.5908 28.3 98.5908 27C98.5908 25.6667 98.8075 24.3333 99.2408 23C99.7075 21.6667 100.224 20.6833 100.791 20.05C101.391 19.4167 102.057 18.9 102.791 18.5C103.724 18 104.474 17.75 105.041 17.75C105.607 17.75 105.891 17.8667 105.891 18.1L105.591 18.6C104.857 19.4667 104.324 20.6 103.991 22C103.691 23.4 103.541 24.65 103.541 25.75C103.541 26.8167 103.674 27.8833 103.941 28.95C104.207 30.0167 104.507 30.8167 104.841 31.35C105.174 31.85 105.557 32.2333 105.991 32.5C106.624 32.9 107.291 33.1 107.991 33.1C108.691 33.1 109.374 32.8333 110.041 32.3C110.707 31.7333 111.191 31 111.491 30.1C112.091 28.4333 112.391 26.7167 112.391 24.95C112.391 22.15 111.674 19.9833 110.241 18.45C108.841 16.9167 106.757 16.15 103.991 16.15ZM130.087 12.55C130.687 12.55 131.22 12.6333 131.687 12.8C132.187 12.9333 132.454 13 132.487 13L132.787 12.75L132.587 7.3C132.52 6.36667 132.32 5.56667 131.987 4.9C131.654 4.23333 131.354 3.8 131.087 3.6L130.637 3.35C130.437 3.21667 130.337 3.06667 130.337 2.9C130.337 2.4 131.104 1.81667 132.637 1.15C134.204 0.483332 135.42 0.149999 136.287 0.149999C137.154 0.149999 137.62 0.333332 137.687 0.699998C137.854 1.83333 137.937 4 137.937 7.2C137.937 10.3667 137.854 13.4833 137.687 16.55C137.554 19.6167 137.487 23.1 137.487 27C137.487 30.8667 137.737 33.3 138.237 34.3C138.37 34.5333 138.437 34.75 138.437 34.95C138.437 35.45 137.72 35.7 136.287 35.7C133.554 35.7 132.187 35.05 132.187 33.75C132.12 33.2167 132.087 32.4 132.087 31.3C132.087 30.1667 132.187 28.0833 132.387 25.05C132.62 21.9833 132.737 19.6333 132.737 18C132.737 16.3333 131.904 15.5 130.237 15.5C128.604 15.5 127.354 16.4667 126.487 18.4C125.62 20.3333 125.187 22.2667 125.187 24.2C125.187 28.3 126.22 30.35 128.287 30.35C128.587 30.35 128.87 30.3 129.137 30.2C129.437 30.0667 129.62 30 129.687 30C129.954 30 130.154 30.1667 130.287 30.5C130.454 30.8333 130.537 31.1667 130.537 31.5C130.537 32.6333 130.087 33.6 129.187 34.4C128.287 35.1667 127.187 35.55 125.887 35.55C123.887 35.55 122.37 34.6833 121.337 32.95C120.337 31.1833 119.837 29 119.837 26.4C119.837 23.1 120.62 20.0333 122.187 17.2C122.987 15.8 124.07 14.6833 125.437 13.85C126.804 12.9833 128.354 12.55 130.087 12.55ZM145.442 22.3L145.492 23.55C145.492 23.75 145.626 23.85 145.892 23.85C146.959 23.75 147.892 23.4833 148.692 23.05C149.492 22.5833 150.092 22.0667 150.492 21.5C151.292 20.2667 151.726 19.2 151.792 18.3L151.842 17.7C151.842 15.9 151.126 15 149.692 15C148.626 15 147.759 15.4667 147.092 16.4C145.992 17.8667 145.442 19.8333 145.442 22.3ZM156.342 28.95C156.342 30.2167 156.076 31.3333 155.542 32.3C155.042 33.2333 154.459 33.9333 153.792 34.4C153.159 34.8333 152.409 35.1833 151.542 35.45C150.442 35.7833 149.392 35.95 148.392 35.95C145.592 35.95 143.526 34.9 142.192 32.8C140.859 30.7 140.192 28.0333 140.192 24.8C140.192 21.5333 141.009 18.6333 142.642 16.1C144.309 13.5667 146.792 12.3 150.092 12.3C153.092 12.3 155.126 13.35 156.192 15.45C156.626 16.25 156.842 17.0167 156.842 17.75C156.842 18.45 156.809 19.0167 156.742 19.45C156.676 19.85 156.442 20.4667 156.042 21.3C155.642 22.1333 155.109 22.8833 154.442 23.55C153.776 24.2167 152.726 24.85 151.292 25.45C149.859 26.05 148.176 26.45 146.242 26.65C145.976 26.65 145.842 26.7667 145.842 27C145.842 27.3 145.942 27.75 146.142 28.35C146.376 28.9167 146.626 29.4 146.892 29.8C147.626 30.7333 148.709 31.2 150.142 31.2C151.576 31.2 152.792 30.7333 153.792 29.8C154.326 29.3 154.759 28.6833 155.092 27.95C155.226 27.6833 155.392 27.55 155.592 27.55C155.826 27.55 156.009 27.7333 156.142 28.1C156.276 28.4667 156.342 28.75 156.342 28.95Z" fill="white"/>
</svg>
