<svg width="40" height="40" viewBox="0 0 40 40" fill="none" xmlns="http://www.w3.org/2000/svg">
<g clip-path="url(#clip0_31_47)">
<path d="M40 20C40 31.0967 30.97 40 20 40C8.90333 40 0 31.0967 0 20C0 8.90333 8.90333 0 20 0C30.97 0 40 8.90333 40 20ZM3.35667 20C3.35667 29.1617 10.8383 36.645 20 36.645C29.1633 36.645 36.6467 29.1617 36.6467 20C36.6467 10.8367 29.1633 3.355 20 3.355C10.8383 3.355 3.35667 10.8367 3.35667 20ZM21.9367 10.1917L21.9367 24.645C21.9367 25.285 21.4217 25.8033 20.785 25.8083H19.0983C18.4533 25.8083 17.9367 25.29 17.9367 24.645L17.9367 10.065C17.9367 9.42 18.455 8.90333 19.0983 8.90333H20.775C21.42 9.03167 21.9367 9.54833 21.9367 10.1917ZM15.485 13.935L15.485 28.515C15.4883 29.1533 14.9733 29.6767 14.3333 29.6783H12.65C12.1317 29.6783 11.615 29.1617 11.615 28.5167L11.615 13.9367C11.615 13.42 12.1333 12.9033 12.6467 12.9033H14.3233C14.9667 12.9017 15.485 13.42 15.485 13.935ZM24.515 28.515L24.515 13.935C24.515 13.2883 25.0333 12.775 25.6767 12.775H27.3533C27.9917 12.7717 28.5117 13.29 28.515 13.9267L28.515 28.515C28.3883 29.1617 27.87 29.6767 27.2267 29.6767H25.55C25.0333 29.6783 24.515 29.1617 24.515 28.515Z" fill="white"/>
</g>
<defs>
<clipPath id="clip0_31_47">
<rect width="40" height="40" fill="white" transform="matrix(0 -1 1 0 0 40)"/>
</clipPath>
</defs>
</svg>
